0
SECTION
2
HEADER
9
$INSUNITS
70
4
9
$ACADVER
1
AC1014
9
$HANDSEED
5
FFFF
0
ENDSEC
0
SECTION
2
TABLES
0
TABLE
2
VPORT
5
8
100
AcDbSymbolTable
0
ENDTAB
0
TABLE
2
LTYPE
5
5
100
AcDbSymbolTable
0
LTYPE
5
14
100
AcDbSymbolTableRecord
100
AcDbLinetypeTableRecord
2
BYBLOCK
70
0
0
LTYPE
5
15
100
AcDbSymbolTableRecord
100
AcDbLinetypeTableRecord
2
BYLAYER
70
0
0
ENDTAB
0
TABLE
2
LAYER
5
2
100
AcDbSymbolTable
70
2
0
LAYER
5
50
100
AcDbSymbolTableRecord
100
AcDbLayerTableRecord
2
0
70
0
6
CONTINUOUS
0
ENDTAB
0
TABLE
2
STYLE
5
3
100
AcDbSymbolTable
70
1
0
STYLE
5
11
100
AcDbSymbolTableRecord
100
AcDbTextStyleTableRecord
2
STANDARD
70
0
0
ENDTAB
0
TABLE
2
VIEW
5
6
100
AcDbSymbolTable
70
0
0
ENDTAB
0
TABLE
2
UCS
5
7
100
AcDbSymbolTable
70
0
0
ENDTAB
0
TABLE
2
APPID
5
9
100
AcDbSymbolTable
70
2
0
APPID
5
12
100
AcDbSymbolTableRecord
100
AcDbRegAppTableRecord
2
ACAD
70
0
0
ENDTAB
0
TABLE
2
DIMSTYLE
5
A
100
AcDbSymbolTable
70
1
0
ENDTAB
0
TABLE
2
BLOCK_RECORD
5
1
100
AcDbSymbolTable
70
1
0
BLOCK_RECORD
5
1F
100
AcDbSymbolTableRecord
100
AcDbBlockTableRecord
2
*MODEL_SPACE
0
BLOCK_RECORD
5
1B
100
AcDbSymbolTableRecord
100
AcDbBlockTableRecord
2
*PAPER_SPACE
0
ENDTAB
0
ENDSEC
0
SECTION
2
BLOCKS
0
BLOCK
5
20
100
AcDbEntity
100
AcDbBlockBegin
2
*MODEL_SPACE
0
ENDBLK
5
21
100
AcDbEntity
100
AcDbBlockEnd
0
BLOCK
5
1C
100
AcDbEntity
100
AcDbBlockBegin
2
*PAPER_SPACE
0
ENDBLK
5
1D
100
AcDbEntity
100
AcDbBlockEnd
0
ENDSEC
0
SECTION
2
ENTITIES
0
LWPOLYLINE
5
100
100
AcDbEntity
8
0
100
AcDbPolyline
90
8
70
1
43
0.0
10
-8.9999999999999947
20
-11.999999999999996
42
-0.41421356237309626
10
-12.000000000000004
20
-8.9999999999999982
10
-12.000000000000002
20
9.0000000000000071
42
-0.41421356237309503
10
-9.0000000000000036
20
12.000000000000004
10
30
20
12.000000000000011
42
-0.41421356237309592
10
33
20
9
10
33.000000000000007
20
-8.9999999999999911
42
-0.41421356237309548
10
29.999999999999996
20
-11.999999999999996
0
LWPOLYLINE
5
101
100
AcDbEntity
8
0
100
AcDbPolyline
90
8
70
1
43
0.0
10
-8.9999999999999982
20
-11.499999999999995
42
-0.4142135623730962
10
-11.500000000000004
20
-8.9999999999999982
10
-11.500000000000002
20
9.0000000000000071
42
-0.41421356237309476
10
-9.0000000000000071
20
11.500000000000004
10
30
20
11.500000000000007
42
-0.4142135623730962
10
32.5
20
9
10
32.500000000000007
20
-8.9999999999999893
42
-0.4142135623730957
10
29.999999999999996
20
-11.499999999999995
0
LWPOLYLINE
5
102
100
AcDbEntity
8
0
100
AcDbPolyline
90
8
70
1
43
0.0
10
-8.9999999999999947
20
-11.999999999999993
42
-0.41421356237309626
10
-12.000000000000002
20
-8.9999999999999982
10
-12.000000000000002
20
9.0000000000000071
42
-0.41421356237309515
10
-9.0000000000000036
20
12.000000000000004
10
30
20
12.000000000000011
42
-0.41421356237309592
10
33
20
9
10
33.000000000000007
20
-8.9999999999999911
42
-0.41421356237309548
10
29.999999999999996
20
-11.999999999999996
0
LWPOLYLINE
5
103
100
AcDbEntity
8
0
100
AcDbPolyline
90
8
70
1
43
0.0
10
-8.9999999999999982
20
-11.499999999999995
42
-0.4142135623730962
10
-11.500000000000002
20
-8.9999999999999982
10
-11.500000000000002
20
9.0000000000000071
42
-0.41421356237309476
10
-9.0000000000000071
20
11.500000000000004
10
29.999999999999996
20
11.500000000000007
42
-0.4142135623730967
10
32.5
20
9
10
32.500000000000007
20
-8.9999999999999893
42
-0.4142135623730957
10
29.999999999999996
20
-11.499999999999995
0
CIRCLE
5
104
100
AcDbEntity
8
0
100
AcDbCircle
10
-9.0000000000000018
20
9.0000000000000036
30
0
40
0.62499999999998668
210
0
220
0
230
1
0
CIRCLE
5
105
100
AcDbEntity
8
0
100
AcDbCircle
10
-9.0000000000000053
20
-8.9999999999999964
30
0
40
0.62499999999998668
210
0
220
0
230
1
0
CIRCLE
5
106
100
AcDbEntity
8
0
100
AcDbCircle
10
30
20
-8.9999999999999911
30
0
40
0.62499999999998668
210
0
220
0
230
1
0
CIRCLE
5
107
100
AcDbEntity
8
0
100
AcDbCircle
10
30
20
9.0000000000000053
30
0
40
0.62499999999998668
210
0
220
0
230
1
0
LWPOLYLINE
5
108
100
AcDbEntity
8
0
100
AcDbPolyline
90
4
70
1
43
0.0
10
-5.3300499999999973
20
-5.0696598765656375
10
-5.3300499999999973
20
5.0694587201159251
10
-4.3200500000000019
20
5.0694587201159251
10
-4.3200500000000019
20
-5.0696598765656375
0
ELLIPSE
5
109
100
AcDbEntity
8
0
100
AcDbEllipse
10
-4.958016550841724
20
2.0622465751722374
30
0
11
-0.087776552916905018
21
0.052033449229138266
31
0.0
40
0.99999999863807898
41
0.54661006723124161
42
1.5707963267948895
0
LINE
5
110
100
AcDbEntity
8
0
100
AcDbLine
10
-5.0600500000994986
20
2.0610725625854771
30
2.4266905387538465e-22
11
-5.0600500000000004
21
3.4387262807969243
31
0
0
ELLIPSE
5
111
100
AcDbEntity
8
0
100
AcDbEllipse
10
-4.9580165508417995
20
3.4375522683780479
30
0
11
0.0011740124204752487
21
0.10203344929715699
31
0.0
40
0.99999999863807942
41
0.54661006723045213
42
1.5707963267949037
0
SPLINE
5
112
100
AcDbEntity
8
0
100
AcDbSpline
70
0
71
3
72
11
73
7
74
0
42
0.000000001
43
0.0000000001
44
0.0000000001
40
0
40
0
40
0
40
0
40
0.5
40
0.5
40
0.5
40
1
40
1
40
1
40
1
10
-5.0100499999999926
20
3.5253288211753619
30
0
10
-4.9524013667876288
20
3.5581752463910066
30
0
10
-4.8900167254465909
20
3.5747007977104506
30
0
10
-4.8250500000000018
20
3.574800130063216
30
0
10
-4.7600832745534127
20
3.5748994624159813
30
0
10
-4.6983991689977644
20
3.5585743902215516
30
0
10
-4.6400500000000022
20
3.5253288211753664
30
2.7755575615628914e-16
0
ELLIPSE
5
113
100
AcDbEntity
8
0
100
AcDbEllipse
10
-4.6920834491582797
20
3.4375522683780035
30
0
11
0.087776552916902575
21
-0.052033449229142534
31
0.0
40
0.99999999863807898
41
0.54661006723135241
42
1.5707963267949179
0
LINE
5
114
100
AcDbEntity
8
0
100
AcDbLine
10
-4.5900499999005051
20
3.4387262809647701
30
-2.4266905385587502e-22
11
-4.5900500000000033
21
2.0610725627533233
31
2.7755575615628914e-16
0
ELLIPSE
5
115
100
AcDbEntity
8
0
100
AcDbEllipse
10
-4.6920834491582575
20
2.0622465751722308
30
0
11
-0.0011740124205063694
21
-0.10203344929721556
31
0.0
40
0.99999999863807898
41
0.5466100672310602
42
1.5707963267948966
0
SPLINE
5
116
100
AcDbEntity
8
0
100
AcDbSpline
70
0
71
3
72
11
73
7
74
0
42
0.000000001
43
0.0000000001
44
0.0000000001
40
0
40
0
40
0
40
0
40
0.5
40
0.5
40
0.5
40
1
40
1
40
1
40
1
10
-4.6400500000000067
20
1.974470022374879
30
2.7755575615628914e-16
10
-4.6976986332124548
20
1.94162359715919
30
0
10
-4.7600832745533239
20
1.9250980458397482
30
0
10
-4.8250500000000018
20
1.9249987134870095
30
0
10
-4.8900167254466798
20
1.9248993811342707
30
0
10
-4.9517008310023414
20
1.9412244533287426
30
0
10
-5.0100499999999926
20
1.9744700223748768
30
0
0
SPLINE
5
117
100
AcDbEntity
8
0
100
AcDbSpline
70
0
71
3
72
11
73
7
74
0
42
0.000000001
43
0.0000000001
44
0.0000000001
40
0
40
0
40
0
40
0
40
0.5
40
0.5
40
0.5
40
1
40
1
40
1
40
1
10
-5.010049999999997
20
-1.9746711788246318
30
0
10
-4.9524013667875977
20
-1.9418247536089606
30
0
10
-4.8900167254466353
20
-1.9252992022895254
30
0
10
-4.8250499999999974
20
-1.9251998699367745
30
0
10
-4.7600832745533594
20
-1.9251005375840236
30
0
10
-4.6983991689977245
20
-1.941425609778471
30
0
10
-4.6400500000000067
20
-1.9746711788246352
30
0
0
ELLIPSE
5
118
100
AcDbEntity
8
0
100
AcDbEllipse
10
-4.6920834491583374
20
-2.0624477316220293
30
0
11
0.087776552916935549
21
-0.052033449229200765
31
0.0
40
0.99999999863807953
41
0.54661006723198269
42
1.5707963267949605
0
LINE
5
119
100
AcDbEntity
8
0
100
AcDbLine
10
-4.5900499999005051
20
-2.0612737190352313
30
-2.4266903399332998e-22
11
-4.5900500000000033
21
-3.4389274372466772
31
2.7755575615628914e-16
0
ELLIPSE
5
120
100
AcDbEntity
8
0
100
AcDbEllipse
10
-4.6920834491582841
20
-3.4377534248277577
30
0
11
-0.0011740124205185823
21
-0.10203344929724181
31
0.0
40
0.99999999863807898
41
0.54661006723137584
42
1.5707963267948966
0
SPLINE
5
121
100
AcDbEntity
8
0
100
AcDbSpline
70
0
71
3
72
11
73
7
74
0
42
0.000000001
43
0.0000000001
44
0.0000000001
40
0
40
0
40
0
40
0
40
0.5
40
0.5
40
0.5
40
1
40
1
40
1
40
1
10
-4.6400500000000022
20
-3.5255299776251183
30
0
10
-4.6976986332124504
20
-3.5583764028408114
30
0
10
-4.7600832745533239
20
-3.5749019541602491
30
0
10
-4.8250500000000018
20
-3.5750012865129865
30
0
10
-4.8900167254466798
20
-3.5751006188657239
30
0
10
-4.9517008310023458
20
-3.5587755466712565
30
0
10
-5.010049999999997
20
-3.5255299776251157
30
0
0
ELLIPSE
5
122
100
AcDbEntity
8
0
100
AcDbEllipse
10
-4.9580165508416973
20
-3.4377534248277408
30
0
11
-0.0877765529169202
21
0.052033449229165342
31
0.0
40
0.9999999986380792
41
0.54661006723160799
42
1.5707963267948859
0
LINE
5
123
100
AcDbEntity
8
0
100
AcDbLine
10
-5.0600500000994986
20
-3.4389274374145233
30
2.4266904468861808e-22
11
-5.0600500000000004
21
-2.0612737192030774
31
9.6296497219361793e-33
0
ELLIPSE
5
124
100
AcDbEntity
8
0
100
AcDbEllipse
10
-4.9580165508417062
20
-2.0624477316220178
30
0
11
0.0011740124205396846
21
0.10203344929726423
31
0.0
40
0.99999999863807942
41
0.54661006559795056
42
1.5707963267949001
0
LWPOLYLINE
5
125
100
AcDbEntity
8
0
100
AcDbPolyline
90
4
70
1
43
0.0
10
-5.7000500000000009
20
-5.7101005782248766
10
-5.7000500000000009
20
5.7098994217751216
10
-3.9500500000000027
20
5.7098994217751242
10
-3.9500500000000116
20
-5.7101005782248766
0
LWPOLYLINE
5
126
100
AcDbEntity
8
0
100
AcDbPolyline
90
12
70
1
43
0.0
10
-4.4250500000000059
20
5.3698994217751235
10
-4.4250500000000059
20
5.2698994217751238
10
-5.2250500000000022
20
5.2698994217751238
10
-5.2250500000000022
20
5.3698994217751235
10
-5.5400500000000008
20
5.3698994217751235
10
-5.5400500000000008
20
-5.3701005782248767
10
-5.2250500000000066
20
-5.3701005782248767
10
-5.2250500000000066
20
-5.2701005782248771
10
-4.4250500000000059
20
-5.270100578224878
10
-4.4250500000000059
20
-5.3701005782248767
10
-4.1100500000000073
20
-5.3701005782248767
10
-4.1100499999999984
20
5.3698994217751235
0
LWPOLYLINE
5
127
100
AcDbEntity
8
0
100
AcDbPolyline
90
4
70
1
43
0.0
10
-6.0500499999999979
20
4.7248994217751239
10
-6.3100500000000004
20
4.7248994217751239
10
-6.3100500000000004
20
4.8748994217751225
10
-6.0500499999999979
20
4.8748994217751225
0
LWPOLYLINE
5
128
100
AcDbEntity
8
0
100
AcDbPolyline
90
4
70
1
43
0.0
10
-3.3400499999999944
20
4.7248994217751239
10
-3.6000500000000013
20
4.7248994217751239
10
-3.6000500000000013
20
4.8748994217751225
10
-3.3400500000000033
20
4.8748994217751225
0
LWPOLYLINE
5
129
100
AcDbEntity
8
0
100
AcDbPolyline
90
4
70
1
43
0.0
10
-6.0500499999999979
20
-4.8751005782248766
10
-6.3100500000000004
20
-4.8751005782248766
10
-6.3100500000000004
20
-4.7251005782248763
10
-6.0500499999999979
20
-4.7251005782248763
0
LWPOLYLINE
5
130
100
AcDbEntity
8
0
100
AcDbPolyline
90
4
70
1
43
0.0
10
-3.3400499999999944
20
-4.8751005782248775
10
-3.6000500000000013
20
-4.8751005782248775
10
-3.6000500000000013
20
-4.7251005782248772
10
-3.3400500000000033
20
-4.7251005782248772
0
LWPOLYLINE
5
131
100
AcDbEntity
8
0
100
AcDbPolyline
90
4
70
1
43
0.0
10
-6.0500499999999979
20
-4.4751005782248763
10
-6.3100500000000004
20
-4.4751005782248763
10
-6.3100500000000004
20
-4.3251005782248777
10
-6.0500499999999979
20
-4.3251005782248768
0
LWPOLYLINE
5
132
100
AcDbEntity
8
0
100
AcDbPolyline
90
4
70
1
43
0.0
10
-6.0500499999999979
20
-4.0751005782248768
10
-6.3100500000000004
20
-4.0751005782248768
10
-6.3100500000000004
20
-3.9251005782248773
10
-6.0500499999999979
20
-3.9251005782248773
0
LWPOLYLINE
5
133
100
AcDbEntity
8
0
100
AcDbPolyline
90
4
70
1
43
0.0
10
-6.0500499999999979
20
-3.6751005782248756
10
-6.3100500000000004
20
-3.6751005782248756
10
-6.3100500000000004
20
-3.525100578224877
10
-6.0500499999999979
20
-3.525100578224877
0
ENDSEC
0
SECTION
2
OBJECTS
0
DICTIONARY
5
C
100
AcDbDictionary
3
ACAD_GROUP
350
D
3
ACAD_MLINESTYLE
350
17
0
DICTIONARY
5
D
100
AcDbDictionary
0
DICTIONARY
5
1A
330
C
100
AcDbDictionary
0
DICTIONARY
5
17
100
AcDbDictionary
0
ENDSEC
0
EOF
