G04 #@! TF.GenerationSoftware,KiCad,Pcbnew,5.1.10-88a1d61d58~88~ubuntu20.04.1*
G04 #@! TF.CreationDate,2021-06-30T14:36:37+02:00*
G04 #@! TF.ProjectId,hadron_board,68616472-6f6e-45f6-926f-6172642e6b69,rev?*
G04 #@! TF.SameCoordinates,Original*
G04 #@! TF.FileFunction,Soldermask,Bot*
G04 #@! TF.FilePolarity,Negative*
%FSLAX46Y46*%
G04 Gerber Fmt 4.6, Leading zero omitted, Abs format (unit mm)*
G04 Created by KiCad (PCBNEW 5.1.10-88a1d61d58~88~ubuntu20.04.1) date 2021-06-30 14:36:37*
%MOMM*%
%LPD*%
G01*
G04 APERTURE LIST*
%ADD10R,1.140000X0.200000*%
%ADD11C,1.000000*%
%ADD12O,1.700000X1.700000*%
%ADD13R,1.700000X1.700000*%
%ADD14C,3.000000*%
G04 APERTURE END LIST*
D10*
X108020000Y-93300000D03*
X105380000Y-93300000D03*
X108020000Y-92900000D03*
X105380000Y-92900000D03*
X108020000Y-92500000D03*
X105380000Y-92500000D03*
X108020000Y-92100000D03*
X105380000Y-92100000D03*
X108020000Y-91700000D03*
X105380000Y-91700000D03*
X108020000Y-91300000D03*
X105380000Y-91300000D03*
X108020000Y-90900000D03*
X105380000Y-90900000D03*
X108020000Y-90500000D03*
X105380000Y-90500000D03*
X108020000Y-90100000D03*
X105380000Y-90100000D03*
X108020000Y-89700000D03*
X105380000Y-89700000D03*
X108020000Y-89300000D03*
X105380000Y-89300000D03*
X108020000Y-88900000D03*
X105380000Y-88900000D03*
X108020000Y-88500000D03*
X105380000Y-88500000D03*
X108020000Y-88100000D03*
X105380000Y-88100000D03*
X108020000Y-87700000D03*
X105380000Y-87700000D03*
X108020000Y-87300000D03*
X105380000Y-87300000D03*
X108020000Y-86900000D03*
X105380000Y-86900000D03*
X108020000Y-86500000D03*
X105380000Y-86500000D03*
X108020000Y-86100000D03*
X105380000Y-86100000D03*
X108020000Y-85700000D03*
X105380000Y-85700000D03*
X108020000Y-85300000D03*
X105380000Y-85300000D03*
X108020000Y-84900000D03*
X105380000Y-84900000D03*
X108020000Y-84500000D03*
X105380000Y-84500000D03*
X108020000Y-84100000D03*
X105380000Y-84100000D03*
X108020000Y-83700000D03*
X105380000Y-83700000D03*
D11*
X136450000Y-86300000D03*
X136450000Y-90700000D03*
D12*
X102000000Y-93340000D03*
D13*
X102000000Y-90800000D03*
D14*
X102500000Y-79500000D03*
X141500000Y-79500000D03*
X102500000Y-97500000D03*
X141500000Y-97500000D03*
M02*
