M48
INCH,TZ
T1C0.0118
T2C0.0394
T3C0.0669
%
G90
G05
T1
X40000Y-35000
X40512Y-33110
X40827Y-35088
X40827Y-35384
X40833Y-33743
X40939Y-34143
X40939Y-34439
X41024Y-34724
X41024Y-35748
X41043Y-33534
X41299Y-32244
X41496Y-30906
X41496Y-37047
X41929Y-34606
X41929Y-34903
X41929Y-35551
X41929Y-35847
X41969Y-36220
X42008Y-34252
X42008Y-35236
X42087Y-32717
X42323Y-37047
X42402Y-31732
X42598Y-37874
X42992Y-31260
X42992Y-36575
X43346Y-36033
X43346Y-36329
X43543Y-34961
X43622Y-36575
X43819Y-33543
X43819Y-35827
X44134Y-32165
X44134Y-36811
X44370Y-34134
X45157Y-32283
X45433Y-30866
X46181Y-31063
X46220Y-32047
X46929Y-32165
X47244Y-32008
X49606Y-35394
X51890Y-34213
X52598Y-33858
X54724Y-33071
X54724Y-36614
T2
X40157Y-35748
X40157Y-36748
T3
X40354Y-31299
X40354Y-38386
X55709Y-31299
X55709Y-38386
T0
M30
