G04 #@! TF.GenerationSoftware,KiCad,Pcbnew,5.1.10-88a1d61d58~88~ubuntu20.04.1*
G04 #@! TF.CreationDate,2021-06-30T14:36:37+02:00*
G04 #@! TF.ProjectId,hadron_board,68616472-6f6e-45f6-926f-6172642e6b69,rev?*
G04 #@! TF.SameCoordinates,Original*
G04 #@! TF.FileFunction,Profile,NP*
%FSLAX46Y46*%
G04 Gerber Fmt 4.6, Leading zero omitted, Abs format (unit mm)*
G04 Created by KiCad (PCBNEW 5.1.10-88a1d61d58~88~ubuntu20.04.1) date 2021-06-30 14:36:37*
%MOMM*%
%LPD*%
G01*
G04 APERTURE LIST*
G04 #@! TA.AperFunction,Profile*
%ADD10C,0.050000*%
G04 #@! TD*
G04 APERTURE END LIST*
D10*
X152400000Y-77200000D02*
X102500000Y-77200000D01*
X153400000Y-78200000D02*
X153400000Y-82500000D01*
X152400000Y-99800000D02*
X102500000Y-99800000D01*
X153400000Y-94500000D02*
X153400000Y-98800000D01*
X152400000Y-77200000D02*
G75*
G02*
X153400000Y-78200000I0J-1000000D01*
G01*
X153400000Y-98800000D02*
G75*
G02*
X152400000Y-99800000I-1000000J0D01*
G01*
X151900000Y-97500000D02*
X151900000Y-96000000D01*
X146900000Y-97500000D02*
X151900000Y-97500000D01*
X146900000Y-96000000D02*
X146900000Y-97500000D01*
X151900000Y-96000000D02*
X146900000Y-96000000D01*
X146900000Y-81000000D02*
X151900000Y-81000000D01*
X146900000Y-79500000D02*
X146900000Y-81000000D01*
X151900000Y-79500000D02*
X146900000Y-79500000D01*
X151900000Y-81000000D02*
X151900000Y-79500000D01*
X143800000Y-94500000D02*
X153400000Y-94500000D01*
X143800000Y-82500000D02*
X153400000Y-82500000D01*
X143800000Y-82500000D02*
X143800000Y-94500000D01*
X100200000Y-97500000D02*
X100200000Y-79500000D01*
X100200000Y-79500000D02*
G75*
G02*
X102500000Y-77200000I2300000J0D01*
G01*
X102500000Y-99800000D02*
G75*
G02*
X100200000Y-97500000I0J2300000D01*
G01*
M02*
