G04 #@! TF.GenerationSoftware,KiCad,Pcbnew,5.1.10-88a1d61d58~88~ubuntu20.04.1*
G04 #@! TF.CreationDate,2021-06-30T14:36:37+02:00*
G04 #@! TF.ProjectId,hadron_board,68616472-6f6e-45f6-926f-6172642e6b69,rev?*
G04 #@! TF.SameCoordinates,Original*
G04 #@! TF.FileFunction,Legend,Top*
G04 #@! TF.FilePolarity,Positive*
%FSLAX46Y46*%
G04 Gerber Fmt 4.6, Leading zero omitted, Abs format (unit mm)*
G04 Created by KiCad (PCBNEW 5.1.10-88a1d61d58~88~ubuntu20.04.1) date 2021-06-30 14:36:37*
%MOMM*%
%LPD*%
G01*
G04 APERTURE LIST*
%ADD10C,0.250000*%
%ADD11C,0.300000*%
%ADD12C,0.150000*%
%ADD13C,0.127000*%
%ADD14C,0.120000*%
%ADD15C,0.010000*%
%ADD16C,0.200000*%
G04 APERTURE END LIST*
D10*
X104138095Y-92800000D02*
X104042857Y-92752380D01*
X103900000Y-92752380D01*
X103757142Y-92800000D01*
X103661904Y-92895238D01*
X103614285Y-92990476D01*
X103566666Y-93180952D01*
X103566666Y-93323809D01*
X103614285Y-93514285D01*
X103661904Y-93609523D01*
X103757142Y-93704761D01*
X103900000Y-93752380D01*
X103995238Y-93752380D01*
X104138095Y-93704761D01*
X104185714Y-93657142D01*
X104185714Y-93323809D01*
X103995238Y-93323809D01*
X104614285Y-93752380D02*
X104614285Y-92752380D01*
X105185714Y-93752380D01*
X105185714Y-92752380D01*
X105661904Y-93752380D02*
X105661904Y-92752380D01*
X105900000Y-92752380D01*
X106042857Y-92800000D01*
X106138095Y-92895238D01*
X106185714Y-92990476D01*
X106233333Y-93180952D01*
X106233333Y-93323809D01*
X106185714Y-93514285D01*
X106138095Y-93609523D01*
X106042857Y-93704761D01*
X105900000Y-93752380D01*
X105661904Y-93752380D01*
X100514285Y-87771428D02*
X101276190Y-87771428D01*
X100895238Y-88152380D02*
X100895238Y-87390476D01*
X102228571Y-87152380D02*
X101752380Y-87152380D01*
X101704761Y-87628571D01*
X101752380Y-87580952D01*
X101847619Y-87533333D01*
X102085714Y-87533333D01*
X102180952Y-87580952D01*
X102228571Y-87628571D01*
X102276190Y-87723809D01*
X102276190Y-87961904D01*
X102228571Y-88057142D01*
X102180952Y-88104761D01*
X102085714Y-88152380D01*
X101847619Y-88152380D01*
X101752380Y-88104761D01*
X101704761Y-88057142D01*
X102561904Y-87152380D02*
X102895238Y-88152380D01*
X103228571Y-87152380D01*
D11*
X108242857Y-88178571D02*
X108242857Y-86678571D01*
X108242857Y-87392857D02*
X109100000Y-87392857D01*
X109100000Y-88178571D02*
X109100000Y-86678571D01*
X110457142Y-88178571D02*
X110457142Y-87392857D01*
X110385714Y-87250000D01*
X110242857Y-87178571D01*
X109957142Y-87178571D01*
X109814285Y-87250000D01*
X110457142Y-88107142D02*
X110314285Y-88178571D01*
X109957142Y-88178571D01*
X109814285Y-88107142D01*
X109742857Y-87964285D01*
X109742857Y-87821428D01*
X109814285Y-87678571D01*
X109957142Y-87607142D01*
X110314285Y-87607142D01*
X110457142Y-87535714D01*
X111814285Y-88178571D02*
X111814285Y-86678571D01*
X111814285Y-88107142D02*
X111671428Y-88178571D01*
X111385714Y-88178571D01*
X111242857Y-88107142D01*
X111171428Y-88035714D01*
X111100000Y-87892857D01*
X111100000Y-87464285D01*
X111171428Y-87321428D01*
X111242857Y-87250000D01*
X111385714Y-87178571D01*
X111671428Y-87178571D01*
X111814285Y-87250000D01*
X112528571Y-88178571D02*
X112528571Y-87178571D01*
X112528571Y-87464285D02*
X112600000Y-87321428D01*
X112671428Y-87250000D01*
X112814285Y-87178571D01*
X112957142Y-87178571D01*
X113671428Y-88178571D02*
X113528571Y-88107142D01*
X113457142Y-88035714D01*
X113385714Y-87892857D01*
X113385714Y-87464285D01*
X113457142Y-87321428D01*
X113528571Y-87250000D01*
X113671428Y-87178571D01*
X113885714Y-87178571D01*
X114028571Y-87250000D01*
X114100000Y-87321428D01*
X114171428Y-87464285D01*
X114171428Y-87892857D01*
X114100000Y-88035714D01*
X114028571Y-88107142D01*
X113885714Y-88178571D01*
X113671428Y-88178571D01*
X114814285Y-87178571D02*
X114814285Y-88178571D01*
X114814285Y-87321428D02*
X114885714Y-87250000D01*
X115028571Y-87178571D01*
X115242857Y-87178571D01*
X115385714Y-87250000D01*
X115457142Y-87392857D01*
X115457142Y-88178571D01*
X117814285Y-87392857D02*
X118028571Y-87464285D01*
X118100000Y-87535714D01*
X118171428Y-87678571D01*
X118171428Y-87892857D01*
X118100000Y-88035714D01*
X118028571Y-88107142D01*
X117885714Y-88178571D01*
X117314285Y-88178571D01*
X117314285Y-86678571D01*
X117814285Y-86678571D01*
X117957142Y-86750000D01*
X118028571Y-86821428D01*
X118100000Y-86964285D01*
X118100000Y-87107142D01*
X118028571Y-87250000D01*
X117957142Y-87321428D01*
X117814285Y-87392857D01*
X117314285Y-87392857D01*
X119028571Y-88178571D02*
X118885714Y-88107142D01*
X118814285Y-88035714D01*
X118742857Y-87892857D01*
X118742857Y-87464285D01*
X118814285Y-87321428D01*
X118885714Y-87250000D01*
X119028571Y-87178571D01*
X119242857Y-87178571D01*
X119385714Y-87250000D01*
X119457142Y-87321428D01*
X119528571Y-87464285D01*
X119528571Y-87892857D01*
X119457142Y-88035714D01*
X119385714Y-88107142D01*
X119242857Y-88178571D01*
X119028571Y-88178571D01*
X120814285Y-88178571D02*
X120814285Y-87392857D01*
X120742857Y-87250000D01*
X120600000Y-87178571D01*
X120314285Y-87178571D01*
X120171428Y-87250000D01*
X120814285Y-88107142D02*
X120671428Y-88178571D01*
X120314285Y-88178571D01*
X120171428Y-88107142D01*
X120100000Y-87964285D01*
X120100000Y-87821428D01*
X120171428Y-87678571D01*
X120314285Y-87607142D01*
X120671428Y-87607142D01*
X120814285Y-87535714D01*
X121528571Y-88178571D02*
X121528571Y-87178571D01*
X121528571Y-87464285D02*
X121600000Y-87321428D01*
X121671428Y-87250000D01*
X121814285Y-87178571D01*
X121957142Y-87178571D01*
X123100000Y-88178571D02*
X123100000Y-86678571D01*
X123100000Y-88107142D02*
X122957142Y-88178571D01*
X122671428Y-88178571D01*
X122528571Y-88107142D01*
X122457142Y-88035714D01*
X122385714Y-87892857D01*
X122385714Y-87464285D01*
X122457142Y-87321428D01*
X122528571Y-87250000D01*
X122671428Y-87178571D01*
X122957142Y-87178571D01*
X123100000Y-87250000D01*
X124814285Y-87178571D02*
X125171428Y-88178571D01*
X125528571Y-87178571D01*
X126885714Y-88178571D02*
X126028571Y-88178571D01*
X126457142Y-88178571D02*
X126457142Y-86678571D01*
X126314285Y-86892857D01*
X126171428Y-87035714D01*
X126028571Y-87107142D01*
X127528571Y-88035714D02*
X127600000Y-88107142D01*
X127528571Y-88178571D01*
X127457142Y-88107142D01*
X127528571Y-88035714D01*
X127528571Y-88178571D01*
X128528571Y-86678571D02*
X128671428Y-86678571D01*
X128814285Y-86750000D01*
X128885714Y-86821428D01*
X128957142Y-86964285D01*
X129028571Y-87250000D01*
X129028571Y-87607142D01*
X128957142Y-87892857D01*
X128885714Y-88035714D01*
X128814285Y-88107142D01*
X128671428Y-88178571D01*
X128528571Y-88178571D01*
X128385714Y-88107142D01*
X128314285Y-88035714D01*
X128242857Y-87892857D01*
X128171428Y-87607142D01*
X128171428Y-87250000D01*
X128242857Y-86964285D01*
X128314285Y-86821428D01*
X128385714Y-86750000D01*
X128528571Y-86678571D01*
X124264285Y-79403571D02*
X124264285Y-77903571D01*
X124621428Y-77903571D01*
X124835714Y-77975000D01*
X124978571Y-78117857D01*
X125050000Y-78260714D01*
X125121428Y-78546428D01*
X125121428Y-78760714D01*
X125050000Y-79046428D01*
X124978571Y-79189285D01*
X124835714Y-79332142D01*
X124621428Y-79403571D01*
X124264285Y-79403571D01*
X126407142Y-79403571D02*
X126407142Y-78617857D01*
X126335714Y-78475000D01*
X126192857Y-78403571D01*
X125907142Y-78403571D01*
X125764285Y-78475000D01*
X126407142Y-79332142D02*
X126264285Y-79403571D01*
X125907142Y-79403571D01*
X125764285Y-79332142D01*
X125692857Y-79189285D01*
X125692857Y-79046428D01*
X125764285Y-78903571D01*
X125907142Y-78832142D01*
X126264285Y-78832142D01*
X126407142Y-78760714D01*
X127121428Y-78403571D02*
X127121428Y-79403571D01*
X127121428Y-78546428D02*
X127192857Y-78475000D01*
X127335714Y-78403571D01*
X127550000Y-78403571D01*
X127692857Y-78475000D01*
X127764285Y-78617857D01*
X127764285Y-79403571D01*
X128478571Y-79403571D02*
X128478571Y-78403571D01*
X128478571Y-77903571D02*
X128407142Y-77975000D01*
X128478571Y-78046428D01*
X128550000Y-77975000D01*
X128478571Y-77903571D01*
X128478571Y-78046428D01*
X129764285Y-79332142D02*
X129621428Y-79403571D01*
X129335714Y-79403571D01*
X129192857Y-79332142D01*
X129121428Y-79189285D01*
X129121428Y-78617857D01*
X129192857Y-78475000D01*
X129335714Y-78403571D01*
X129621428Y-78403571D01*
X129764285Y-78475000D01*
X129835714Y-78617857D01*
X129835714Y-78760714D01*
X129121428Y-78903571D01*
X130692857Y-79403571D02*
X130550000Y-79332142D01*
X130478571Y-79189285D01*
X130478571Y-77903571D01*
X132407142Y-79403571D02*
X132407142Y-77903571D01*
X132407142Y-78617857D02*
X133264285Y-78617857D01*
X133264285Y-79403571D02*
X133264285Y-77903571D01*
X134550000Y-79332142D02*
X134407142Y-79403571D01*
X134121428Y-79403571D01*
X133978571Y-79332142D01*
X133907142Y-79189285D01*
X133907142Y-78617857D01*
X133978571Y-78475000D01*
X134121428Y-78403571D01*
X134407142Y-78403571D01*
X134550000Y-78475000D01*
X134621428Y-78617857D01*
X134621428Y-78760714D01*
X133907142Y-78903571D01*
X135264285Y-79403571D02*
X135264285Y-78403571D01*
X135264285Y-78689285D02*
X135335714Y-78546428D01*
X135407142Y-78475000D01*
X135550000Y-78403571D01*
X135692857Y-78403571D01*
X135978571Y-78403571D02*
X136550000Y-78403571D01*
X136192857Y-77903571D02*
X136192857Y-79189285D01*
X136264285Y-79332142D01*
X136407142Y-79403571D01*
X136550000Y-79403571D01*
X124907142Y-81953571D02*
X124907142Y-80453571D01*
X125407142Y-81525000D01*
X125907142Y-80453571D01*
X125907142Y-81953571D01*
X127478571Y-81953571D02*
X126978571Y-81239285D01*
X126621428Y-81953571D02*
X126621428Y-80453571D01*
X127192857Y-80453571D01*
X127335714Y-80525000D01*
X127407142Y-80596428D01*
X127478571Y-80739285D01*
X127478571Y-80953571D01*
X127407142Y-81096428D01*
X127335714Y-81167857D01*
X127192857Y-81239285D01*
X126621428Y-81239285D01*
X128050000Y-81882142D02*
X128264285Y-81953571D01*
X128621428Y-81953571D01*
X128764285Y-81882142D01*
X128835714Y-81810714D01*
X128907142Y-81667857D01*
X128907142Y-81525000D01*
X128835714Y-81382142D01*
X128764285Y-81310714D01*
X128621428Y-81239285D01*
X128335714Y-81167857D01*
X128192857Y-81096428D01*
X128121428Y-81025000D01*
X128050000Y-80882142D01*
X128050000Y-80739285D01*
X128121428Y-80596428D01*
X128192857Y-80525000D01*
X128335714Y-80453571D01*
X128692857Y-80453571D01*
X128907142Y-80525000D01*
X130621428Y-80596428D02*
X130692857Y-80525000D01*
X130835714Y-80453571D01*
X131192857Y-80453571D01*
X131335714Y-80525000D01*
X131407142Y-80596428D01*
X131478571Y-80739285D01*
X131478571Y-80882142D01*
X131407142Y-81096428D01*
X130550000Y-81953571D01*
X131478571Y-81953571D01*
X132407142Y-80453571D02*
X132550000Y-80453571D01*
X132692857Y-80525000D01*
X132764285Y-80596428D01*
X132835714Y-80739285D01*
X132907142Y-81025000D01*
X132907142Y-81382142D01*
X132835714Y-81667857D01*
X132764285Y-81810714D01*
X132692857Y-81882142D01*
X132550000Y-81953571D01*
X132407142Y-81953571D01*
X132264285Y-81882142D01*
X132192857Y-81810714D01*
X132121428Y-81667857D01*
X132050000Y-81382142D01*
X132050000Y-81025000D01*
X132121428Y-80739285D01*
X132192857Y-80596428D01*
X132264285Y-80525000D01*
X132407142Y-80453571D01*
X133478571Y-80596428D02*
X133550000Y-80525000D01*
X133692857Y-80453571D01*
X134050000Y-80453571D01*
X134192857Y-80525000D01*
X134264285Y-80596428D01*
X134335714Y-80739285D01*
X134335714Y-80882142D01*
X134264285Y-81096428D01*
X133407142Y-81953571D01*
X134335714Y-81953571D01*
X135764285Y-81953571D02*
X134907142Y-81953571D01*
X135335714Y-81953571D02*
X135335714Y-80453571D01*
X135192857Y-80667857D01*
X135050000Y-80810714D01*
X134907142Y-80882142D01*
D12*
X142360000Y-92410000D02*
X140410000Y-92410000D01*
X138190000Y-92410000D02*
X134960000Y-92410000D01*
X133040000Y-91690000D02*
X133040000Y-90610000D01*
X133040000Y-86390000D02*
X133040000Y-85310000D01*
X138190000Y-84590000D02*
X134960000Y-84590000D01*
X142360000Y-84590000D02*
X140410000Y-84590000D01*
X133040000Y-90610000D02*
X132610000Y-90610000D01*
X142360000Y-84590000D02*
X142360000Y-92410000D01*
D13*
X109400000Y-80250000D02*
X106900000Y-80250000D01*
X106900000Y-80250000D02*
X106900000Y-80950000D01*
X120600000Y-80250000D02*
X123100000Y-80250000D01*
X123100000Y-80250000D02*
X123100000Y-80950000D01*
X123100000Y-82900000D02*
X123100000Y-84300000D01*
X123100000Y-84300000D02*
X106900000Y-84300000D01*
X106900000Y-84300000D02*
X106900000Y-82900000D01*
D11*
X109220709Y-79700000D02*
G75*
G03*
X109220709Y-79700000I-70709J0D01*
G01*
D12*
X100700000Y-94700000D02*
X100700000Y-94600000D01*
X103300000Y-94700000D02*
X100700000Y-94700000D01*
X103300000Y-89500000D02*
X103300000Y-94700000D01*
X100700000Y-89500000D02*
X103300000Y-89500000D01*
X100700000Y-94600000D02*
X100700000Y-89500000D01*
D14*
X109900000Y-96100000D02*
X109900000Y-94100000D01*
X112700000Y-96100000D02*
X109900000Y-96100000D01*
X112700000Y-94100000D02*
X112700000Y-96100000D01*
X109900000Y-94100000D02*
X112700000Y-94100000D01*
D15*
G36*
X122712580Y-95305262D02*
G01*
X122716175Y-95320115D01*
X122720212Y-95349158D01*
X122723999Y-95387072D01*
X122725207Y-95402401D01*
X122730110Y-95452813D01*
X122737247Y-95506487D01*
X122745158Y-95552581D01*
X122745946Y-95556410D01*
X122760484Y-95625517D01*
X122677898Y-95726671D01*
X122647987Y-95764279D01*
X122623852Y-95796500D01*
X122607590Y-95820388D01*
X122601297Y-95832996D01*
X122601515Y-95834028D01*
X122600060Y-95844621D01*
X122587965Y-95861619D01*
X122587457Y-95862173D01*
X122573056Y-95881436D01*
X122553770Y-95912002D01*
X122533462Y-95947700D01*
X122530893Y-95952500D01*
X122510038Y-95990134D01*
X122489132Y-96025168D01*
X122472433Y-96050492D01*
X122471333Y-96051982D01*
X122456552Y-96073159D01*
X122448546Y-96087376D01*
X122448077Y-96089233D01*
X122444213Y-96100474D01*
X122434020Y-96124449D01*
X122419589Y-96156262D01*
X122417513Y-96160711D01*
X122392309Y-96214793D01*
X122374086Y-96254683D01*
X122361447Y-96283839D01*
X122352993Y-96305720D01*
X122347327Y-96323783D01*
X122343050Y-96341488D01*
X122341536Y-96348657D01*
X122326789Y-96418354D01*
X122314111Y-96474911D01*
X122303912Y-96516606D01*
X122296603Y-96541716D01*
X122294046Y-96547706D01*
X122289495Y-96564730D01*
X122285626Y-96597884D01*
X122282534Y-96643767D01*
X122280317Y-96698980D01*
X122279069Y-96760123D01*
X122278887Y-96823796D01*
X122279867Y-96886600D01*
X122282104Y-96945134D01*
X122282583Y-96953846D01*
X122287044Y-97023437D01*
X122292013Y-97079244D01*
X122298438Y-97127015D01*
X122307268Y-97172502D01*
X122319450Y-97221452D01*
X122335934Y-97279615D01*
X122336793Y-97282545D01*
X122347588Y-97321416D01*
X122355741Y-97354757D01*
X122359892Y-97376870D01*
X122360154Y-97380506D01*
X122365575Y-97403207D01*
X122373391Y-97418153D01*
X122382957Y-97436866D01*
X122395525Y-97467743D01*
X122408442Y-97504245D01*
X122408954Y-97505807D01*
X122418152Y-97532835D01*
X122427898Y-97558200D01*
X122439801Y-97585263D01*
X122455470Y-97617386D01*
X122476516Y-97657929D01*
X122504547Y-97710254D01*
X122524338Y-97746770D01*
X122570944Y-97821970D01*
X122632491Y-97904303D01*
X122706945Y-97991229D01*
X122789382Y-98077349D01*
X122854248Y-98139970D01*
X122909279Y-98188972D01*
X122956655Y-98226143D01*
X122998559Y-98253269D01*
X123014692Y-98261917D01*
X123049496Y-98281460D01*
X123083565Y-98303724D01*
X123092846Y-98310602D01*
X123164305Y-98358868D01*
X123231376Y-98389283D01*
X123233704Y-98390039D01*
X123267378Y-98402789D01*
X123299006Y-98417729D01*
X123302089Y-98419441D01*
X123329026Y-98432397D01*
X123364597Y-98446562D01*
X123385247Y-98453704D01*
X123421150Y-98466723D01*
X123454289Y-98481082D01*
X123468286Y-98488378D01*
X123493503Y-98499001D01*
X123529917Y-98509503D01*
X123566654Y-98517067D01*
X123609174Y-98524879D01*
X123651103Y-98534022D01*
X123679000Y-98541290D01*
X123708937Y-98547864D01*
X123751018Y-98554148D01*
X123797861Y-98559107D01*
X123815769Y-98560455D01*
X123865179Y-98562212D01*
X123926271Y-98562113D01*
X123994950Y-98560390D01*
X124067119Y-98557275D01*
X124138685Y-98553000D01*
X124205552Y-98547797D01*
X124263625Y-98541896D01*
X124308809Y-98535531D01*
X124328654Y-98531428D01*
X124378512Y-98517719D01*
X124436205Y-98500243D01*
X124497940Y-98480319D01*
X124559923Y-98459269D01*
X124618360Y-98438411D01*
X124669459Y-98419068D01*
X124709425Y-98402558D01*
X124734467Y-98390203D01*
X124734612Y-98390116D01*
X124764991Y-98373049D01*
X124792463Y-98359829D01*
X124802997Y-98355838D01*
X124827685Y-98345141D01*
X124841538Y-98336028D01*
X124857470Y-98325077D01*
X124884615Y-98308817D01*
X124914206Y-98292345D01*
X124984695Y-98248167D01*
X125061074Y-98188917D01*
X125140653Y-98117079D01*
X125220741Y-98035135D01*
X125298647Y-97945567D01*
X125323347Y-97914851D01*
X125371274Y-97853615D01*
X125408382Y-97805063D01*
X125436310Y-97766828D01*
X125456700Y-97736544D01*
X125471189Y-97711842D01*
X125481418Y-97690356D01*
X125484863Y-97681654D01*
X125499830Y-97648363D01*
X125517608Y-97617305D01*
X125520377Y-97613269D01*
X125532048Y-97592215D01*
X125547613Y-97557700D01*
X125564885Y-97514830D01*
X125578972Y-97476500D01*
X125595040Y-97431945D01*
X125609976Y-97392737D01*
X125621988Y-97363444D01*
X125628718Y-97349500D01*
X125636810Y-97328863D01*
X125644382Y-97297371D01*
X125647795Y-97276427D01*
X125654543Y-97237509D01*
X125663664Y-97199593D01*
X125668264Y-97184834D01*
X125676791Y-97150093D01*
X125681417Y-97110676D01*
X125681692Y-97100614D01*
X125684029Y-97065102D01*
X125689873Y-97032223D01*
X125692311Y-97023992D01*
X125695998Y-97005319D01*
X125697775Y-96974668D01*
X125697638Y-96930153D01*
X125695583Y-96869889D01*
X125691798Y-96795399D01*
X125686497Y-96706930D01*
X125681197Y-96634435D01*
X125675338Y-96574357D01*
X125668362Y-96523139D01*
X125659709Y-96477226D01*
X125648820Y-96433060D01*
X125635137Y-96387086D01*
X125620826Y-96343733D01*
X125605542Y-96297991D01*
X125592702Y-96258111D01*
X125583594Y-96228195D01*
X125579505Y-96212342D01*
X125579438Y-96211849D01*
X125576910Y-96198370D01*
X125571211Y-96181123D01*
X125560840Y-96156464D01*
X125544293Y-96120749D01*
X125526862Y-96084384D01*
X125510178Y-96049799D01*
X125496823Y-96022055D01*
X125489029Y-96005794D01*
X125488082Y-96003788D01*
X125496187Y-96001416D01*
X125520780Y-95999365D01*
X125558811Y-95997767D01*
X125607229Y-95996757D01*
X125654908Y-95996461D01*
X125825138Y-95996461D01*
X125837297Y-96037980D01*
X125847762Y-96068613D01*
X125858916Y-96093991D01*
X125861785Y-96099038D01*
X125872724Y-96121056D01*
X125884203Y-96150830D01*
X125886442Y-96157654D01*
X125896861Y-96184592D01*
X125907647Y-96203621D01*
X125910310Y-96206500D01*
X125920554Y-96222718D01*
X125933247Y-96254064D01*
X125947199Y-96296467D01*
X125961216Y-96345859D01*
X125974106Y-96398170D01*
X125984678Y-96449331D01*
X125989019Y-96475154D01*
X125994411Y-96517723D01*
X125999866Y-96573089D01*
X126005170Y-96637553D01*
X126010110Y-96707412D01*
X126014473Y-96778969D01*
X126018045Y-96848521D01*
X126020614Y-96912370D01*
X126021967Y-96966815D01*
X126021890Y-97008155D01*
X126020838Y-97027659D01*
X126014256Y-97085338D01*
X126006521Y-97142172D01*
X125998369Y-97193529D01*
X125990537Y-97234776D01*
X125983761Y-97261280D01*
X125983659Y-97261577D01*
X125976965Y-97285582D01*
X125968782Y-97321514D01*
X125960772Y-97362018D01*
X125960030Y-97366113D01*
X125951727Y-97405419D01*
X125942278Y-97439631D01*
X125933560Y-97462073D01*
X125932561Y-97463806D01*
X125924182Y-97481338D01*
X125911331Y-97513107D01*
X125895675Y-97554798D01*
X125878879Y-97602099D01*
X125876716Y-97608384D01*
X125859198Y-97656979D01*
X125841660Y-97701297D01*
X125826038Y-97736709D01*
X125814266Y-97758589D01*
X125813409Y-97759807D01*
X125796550Y-97786701D01*
X125784768Y-97812154D01*
X125784316Y-97813538D01*
X125779203Y-97826615D01*
X125770217Y-97843886D01*
X125755760Y-97867945D01*
X125734235Y-97901384D01*
X125704047Y-97946794D01*
X125682496Y-97978813D01*
X125657916Y-98012898D01*
X125623511Y-98057477D01*
X125582580Y-98108569D01*
X125538421Y-98162191D01*
X125494332Y-98214364D01*
X125453611Y-98261105D01*
X125419557Y-98298433D01*
X125406957Y-98311428D01*
X125366878Y-98349527D01*
X125319279Y-98391634D01*
X125267687Y-98434935D01*
X125215632Y-98476618D01*
X125166641Y-98513868D01*
X125124242Y-98543873D01*
X125091965Y-98563817D01*
X125087677Y-98566035D01*
X125052599Y-98585431D01*
X125018412Y-98607431D01*
X125007615Y-98615356D01*
X124980409Y-98633841D01*
X124954765Y-98647135D01*
X124949000Y-98649201D01*
X124928620Y-98657119D01*
X124897264Y-98671352D01*
X124861202Y-98689034D01*
X124855850Y-98691769D01*
X124821912Y-98707207D01*
X124773123Y-98726710D01*
X124713400Y-98748910D01*
X124646660Y-98772438D01*
X124576821Y-98795928D01*
X124507799Y-98818010D01*
X124443511Y-98837318D01*
X124420241Y-98843891D01*
X124376654Y-98853043D01*
X124317199Y-98861352D01*
X124245533Y-98868641D01*
X124165315Y-98874733D01*
X124080202Y-98879448D01*
X123993854Y-98882610D01*
X123909927Y-98884041D01*
X123832081Y-98883563D01*
X123763973Y-98880998D01*
X123723102Y-98877768D01*
X123677272Y-98871927D01*
X123633092Y-98864459D01*
X123598357Y-98856732D01*
X123591218Y-98854655D01*
X123552431Y-98844121D01*
X123511673Y-98835595D01*
X123503154Y-98834230D01*
X123458957Y-98825983D01*
X123412883Y-98814483D01*
X123371147Y-98801537D01*
X123339965Y-98788956D01*
X123331669Y-98784320D01*
X123311647Y-98774057D01*
X123280702Y-98761149D01*
X123254633Y-98751589D01*
X123200855Y-98731272D01*
X123141456Y-98705846D01*
X123081062Y-98677583D01*
X123024301Y-98648754D01*
X122975799Y-98621632D01*
X122940183Y-98598488D01*
X122935395Y-98594838D01*
X122907028Y-98574721D01*
X122870478Y-98551756D01*
X122843189Y-98536168D01*
X122809009Y-98515444D01*
X122767397Y-98486983D01*
X122725667Y-98455866D01*
X122712447Y-98445337D01*
X122663642Y-98403515D01*
X122609668Y-98353659D01*
X122553458Y-98298824D01*
X122497948Y-98242067D01*
X122446072Y-98186446D01*
X122400763Y-98135016D01*
X122364958Y-98090834D01*
X122345059Y-98062654D01*
X122326597Y-98035193D01*
X122304649Y-98004783D01*
X122300392Y-97999154D01*
X122277378Y-97965215D01*
X122249147Y-97917758D01*
X122218016Y-97861294D01*
X122186302Y-97800330D01*
X122156325Y-97739377D01*
X122130400Y-97682944D01*
X122110847Y-97635540D01*
X122104903Y-97618835D01*
X122091045Y-97580004D01*
X122076304Y-97543463D01*
X122065615Y-97520606D01*
X122053784Y-97493963D01*
X122047740Y-97471828D01*
X122047538Y-97468800D01*
X122044851Y-97451606D01*
X122037457Y-97419521D01*
X122026360Y-97376337D01*
X122012563Y-97325850D01*
X121997068Y-97271853D01*
X121983727Y-97227384D01*
X121975178Y-97187834D01*
X121968222Y-97132374D01*
X121962865Y-97064370D01*
X121959112Y-96987191D01*
X121956967Y-96904204D01*
X121956436Y-96818777D01*
X121957522Y-96734277D01*
X121960232Y-96654072D01*
X121964569Y-96581529D01*
X121970538Y-96520015D01*
X121978145Y-96472900D01*
X121982620Y-96455615D01*
X121991580Y-96424116D01*
X122002292Y-96382036D01*
X122012586Y-96337934D01*
X122013562Y-96333500D01*
X122030315Y-96262341D01*
X122046547Y-96203925D01*
X122061550Y-96160609D01*
X122072372Y-96138115D01*
X122083676Y-96115233D01*
X122094707Y-96086262D01*
X122095313Y-96084384D01*
X122106322Y-96055229D01*
X122122045Y-96019667D01*
X122130594Y-96002132D01*
X122144191Y-95973591D01*
X122153094Y-95951521D01*
X122155094Y-95943517D01*
X122160829Y-95930428D01*
X122175433Y-95908275D01*
X122187706Y-95892064D01*
X122209436Y-95861400D01*
X122233754Y-95822124D01*
X122253039Y-95787188D01*
X122266637Y-95764347D01*
X122288594Y-95731663D01*
X122316838Y-95691839D01*
X122349298Y-95647581D01*
X122383902Y-95601592D01*
X122418580Y-95556577D01*
X122451259Y-95515241D01*
X122479868Y-95480286D01*
X122502336Y-95454418D01*
X122516591Y-95440341D01*
X122520065Y-95438578D01*
X122529579Y-95433137D01*
X122550956Y-95417621D01*
X122581017Y-95394422D01*
X122616158Y-95366277D01*
X122659860Y-95331985D01*
X122690239Y-95311154D01*
X122707815Y-95303456D01*
X122712580Y-95305262D01*
G37*
X122712580Y-95305262D02*
X122716175Y-95320115D01*
X122720212Y-95349158D01*
X122723999Y-95387072D01*
X122725207Y-95402401D01*
X122730110Y-95452813D01*
X122737247Y-95506487D01*
X122745158Y-95552581D01*
X122745946Y-95556410D01*
X122760484Y-95625517D01*
X122677898Y-95726671D01*
X122647987Y-95764279D01*
X122623852Y-95796500D01*
X122607590Y-95820388D01*
X122601297Y-95832996D01*
X122601515Y-95834028D01*
X122600060Y-95844621D01*
X122587965Y-95861619D01*
X122587457Y-95862173D01*
X122573056Y-95881436D01*
X122553770Y-95912002D01*
X122533462Y-95947700D01*
X122530893Y-95952500D01*
X122510038Y-95990134D01*
X122489132Y-96025168D01*
X122472433Y-96050492D01*
X122471333Y-96051982D01*
X122456552Y-96073159D01*
X122448546Y-96087376D01*
X122448077Y-96089233D01*
X122444213Y-96100474D01*
X122434020Y-96124449D01*
X122419589Y-96156262D01*
X122417513Y-96160711D01*
X122392309Y-96214793D01*
X122374086Y-96254683D01*
X122361447Y-96283839D01*
X122352993Y-96305720D01*
X122347327Y-96323783D01*
X122343050Y-96341488D01*
X122341536Y-96348657D01*
X122326789Y-96418354D01*
X122314111Y-96474911D01*
X122303912Y-96516606D01*
X122296603Y-96541716D01*
X122294046Y-96547706D01*
X122289495Y-96564730D01*
X122285626Y-96597884D01*
X122282534Y-96643767D01*
X122280317Y-96698980D01*
X122279069Y-96760123D01*
X122278887Y-96823796D01*
X122279867Y-96886600D01*
X122282104Y-96945134D01*
X122282583Y-96953846D01*
X122287044Y-97023437D01*
X122292013Y-97079244D01*
X122298438Y-97127015D01*
X122307268Y-97172502D01*
X122319450Y-97221452D01*
X122335934Y-97279615D01*
X122336793Y-97282545D01*
X122347588Y-97321416D01*
X122355741Y-97354757D01*
X122359892Y-97376870D01*
X122360154Y-97380506D01*
X122365575Y-97403207D01*
X122373391Y-97418153D01*
X122382957Y-97436866D01*
X122395525Y-97467743D01*
X122408442Y-97504245D01*
X122408954Y-97505807D01*
X122418152Y-97532835D01*
X122427898Y-97558200D01*
X122439801Y-97585263D01*
X122455470Y-97617386D01*
X122476516Y-97657929D01*
X122504547Y-97710254D01*
X122524338Y-97746770D01*
X122570944Y-97821970D01*
X122632491Y-97904303D01*
X122706945Y-97991229D01*
X122789382Y-98077349D01*
X122854248Y-98139970D01*
X122909279Y-98188972D01*
X122956655Y-98226143D01*
X122998559Y-98253269D01*
X123014692Y-98261917D01*
X123049496Y-98281460D01*
X123083565Y-98303724D01*
X123092846Y-98310602D01*
X123164305Y-98358868D01*
X123231376Y-98389283D01*
X123233704Y-98390039D01*
X123267378Y-98402789D01*
X123299006Y-98417729D01*
X123302089Y-98419441D01*
X123329026Y-98432397D01*
X123364597Y-98446562D01*
X123385247Y-98453704D01*
X123421150Y-98466723D01*
X123454289Y-98481082D01*
X123468286Y-98488378D01*
X123493503Y-98499001D01*
X123529917Y-98509503D01*
X123566654Y-98517067D01*
X123609174Y-98524879D01*
X123651103Y-98534022D01*
X123679000Y-98541290D01*
X123708937Y-98547864D01*
X123751018Y-98554148D01*
X123797861Y-98559107D01*
X123815769Y-98560455D01*
X123865179Y-98562212D01*
X123926271Y-98562113D01*
X123994950Y-98560390D01*
X124067119Y-98557275D01*
X124138685Y-98553000D01*
X124205552Y-98547797D01*
X124263625Y-98541896D01*
X124308809Y-98535531D01*
X124328654Y-98531428D01*
X124378512Y-98517719D01*
X124436205Y-98500243D01*
X124497940Y-98480319D01*
X124559923Y-98459269D01*
X124618360Y-98438411D01*
X124669459Y-98419068D01*
X124709425Y-98402558D01*
X124734467Y-98390203D01*
X124734612Y-98390116D01*
X124764991Y-98373049D01*
X124792463Y-98359829D01*
X124802997Y-98355838D01*
X124827685Y-98345141D01*
X124841538Y-98336028D01*
X124857470Y-98325077D01*
X124884615Y-98308817D01*
X124914206Y-98292345D01*
X124984695Y-98248167D01*
X125061074Y-98188917D01*
X125140653Y-98117079D01*
X125220741Y-98035135D01*
X125298647Y-97945567D01*
X125323347Y-97914851D01*
X125371274Y-97853615D01*
X125408382Y-97805063D01*
X125436310Y-97766828D01*
X125456700Y-97736544D01*
X125471189Y-97711842D01*
X125481418Y-97690356D01*
X125484863Y-97681654D01*
X125499830Y-97648363D01*
X125517608Y-97617305D01*
X125520377Y-97613269D01*
X125532048Y-97592215D01*
X125547613Y-97557700D01*
X125564885Y-97514830D01*
X125578972Y-97476500D01*
X125595040Y-97431945D01*
X125609976Y-97392737D01*
X125621988Y-97363444D01*
X125628718Y-97349500D01*
X125636810Y-97328863D01*
X125644382Y-97297371D01*
X125647795Y-97276427D01*
X125654543Y-97237509D01*
X125663664Y-97199593D01*
X125668264Y-97184834D01*
X125676791Y-97150093D01*
X125681417Y-97110676D01*
X125681692Y-97100614D01*
X125684029Y-97065102D01*
X125689873Y-97032223D01*
X125692311Y-97023992D01*
X125695998Y-97005319D01*
X125697775Y-96974668D01*
X125697638Y-96930153D01*
X125695583Y-96869889D01*
X125691798Y-96795399D01*
X125686497Y-96706930D01*
X125681197Y-96634435D01*
X125675338Y-96574357D01*
X125668362Y-96523139D01*
X125659709Y-96477226D01*
X125648820Y-96433060D01*
X125635137Y-96387086D01*
X125620826Y-96343733D01*
X125605542Y-96297991D01*
X125592702Y-96258111D01*
X125583594Y-96228195D01*
X125579505Y-96212342D01*
X125579438Y-96211849D01*
X125576910Y-96198370D01*
X125571211Y-96181123D01*
X125560840Y-96156464D01*
X125544293Y-96120749D01*
X125526862Y-96084384D01*
X125510178Y-96049799D01*
X125496823Y-96022055D01*
X125489029Y-96005794D01*
X125488082Y-96003788D01*
X125496187Y-96001416D01*
X125520780Y-95999365D01*
X125558811Y-95997767D01*
X125607229Y-95996757D01*
X125654908Y-95996461D01*
X125825138Y-95996461D01*
X125837297Y-96037980D01*
X125847762Y-96068613D01*
X125858916Y-96093991D01*
X125861785Y-96099038D01*
X125872724Y-96121056D01*
X125884203Y-96150830D01*
X125886442Y-96157654D01*
X125896861Y-96184592D01*
X125907647Y-96203621D01*
X125910310Y-96206500D01*
X125920554Y-96222718D01*
X125933247Y-96254064D01*
X125947199Y-96296467D01*
X125961216Y-96345859D01*
X125974106Y-96398170D01*
X125984678Y-96449331D01*
X125989019Y-96475154D01*
X125994411Y-96517723D01*
X125999866Y-96573089D01*
X126005170Y-96637553D01*
X126010110Y-96707412D01*
X126014473Y-96778969D01*
X126018045Y-96848521D01*
X126020614Y-96912370D01*
X126021967Y-96966815D01*
X126021890Y-97008155D01*
X126020838Y-97027659D01*
X126014256Y-97085338D01*
X126006521Y-97142172D01*
X125998369Y-97193529D01*
X125990537Y-97234776D01*
X125983761Y-97261280D01*
X125983659Y-97261577D01*
X125976965Y-97285582D01*
X125968782Y-97321514D01*
X125960772Y-97362018D01*
X125960030Y-97366113D01*
X125951727Y-97405419D01*
X125942278Y-97439631D01*
X125933560Y-97462073D01*
X125932561Y-97463806D01*
X125924182Y-97481338D01*
X125911331Y-97513107D01*
X125895675Y-97554798D01*
X125878879Y-97602099D01*
X125876716Y-97608384D01*
X125859198Y-97656979D01*
X125841660Y-97701297D01*
X125826038Y-97736709D01*
X125814266Y-97758589D01*
X125813409Y-97759807D01*
X125796550Y-97786701D01*
X125784768Y-97812154D01*
X125784316Y-97813538D01*
X125779203Y-97826615D01*
X125770217Y-97843886D01*
X125755760Y-97867945D01*
X125734235Y-97901384D01*
X125704047Y-97946794D01*
X125682496Y-97978813D01*
X125657916Y-98012898D01*
X125623511Y-98057477D01*
X125582580Y-98108569D01*
X125538421Y-98162191D01*
X125494332Y-98214364D01*
X125453611Y-98261105D01*
X125419557Y-98298433D01*
X125406957Y-98311428D01*
X125366878Y-98349527D01*
X125319279Y-98391634D01*
X125267687Y-98434935D01*
X125215632Y-98476618D01*
X125166641Y-98513868D01*
X125124242Y-98543873D01*
X125091965Y-98563817D01*
X125087677Y-98566035D01*
X125052599Y-98585431D01*
X125018412Y-98607431D01*
X125007615Y-98615356D01*
X124980409Y-98633841D01*
X124954765Y-98647135D01*
X124949000Y-98649201D01*
X124928620Y-98657119D01*
X124897264Y-98671352D01*
X124861202Y-98689034D01*
X124855850Y-98691769D01*
X124821912Y-98707207D01*
X124773123Y-98726710D01*
X124713400Y-98748910D01*
X124646660Y-98772438D01*
X124576821Y-98795928D01*
X124507799Y-98818010D01*
X124443511Y-98837318D01*
X124420241Y-98843891D01*
X124376654Y-98853043D01*
X124317199Y-98861352D01*
X124245533Y-98868641D01*
X124165315Y-98874733D01*
X124080202Y-98879448D01*
X123993854Y-98882610D01*
X123909927Y-98884041D01*
X123832081Y-98883563D01*
X123763973Y-98880998D01*
X123723102Y-98877768D01*
X123677272Y-98871927D01*
X123633092Y-98864459D01*
X123598357Y-98856732D01*
X123591218Y-98854655D01*
X123552431Y-98844121D01*
X123511673Y-98835595D01*
X123503154Y-98834230D01*
X123458957Y-98825983D01*
X123412883Y-98814483D01*
X123371147Y-98801537D01*
X123339965Y-98788956D01*
X123331669Y-98784320D01*
X123311647Y-98774057D01*
X123280702Y-98761149D01*
X123254633Y-98751589D01*
X123200855Y-98731272D01*
X123141456Y-98705846D01*
X123081062Y-98677583D01*
X123024301Y-98648754D01*
X122975799Y-98621632D01*
X122940183Y-98598488D01*
X122935395Y-98594838D01*
X122907028Y-98574721D01*
X122870478Y-98551756D01*
X122843189Y-98536168D01*
X122809009Y-98515444D01*
X122767397Y-98486983D01*
X122725667Y-98455866D01*
X122712447Y-98445337D01*
X122663642Y-98403515D01*
X122609668Y-98353659D01*
X122553458Y-98298824D01*
X122497948Y-98242067D01*
X122446072Y-98186446D01*
X122400763Y-98135016D01*
X122364958Y-98090834D01*
X122345059Y-98062654D01*
X122326597Y-98035193D01*
X122304649Y-98004783D01*
X122300392Y-97999154D01*
X122277378Y-97965215D01*
X122249147Y-97917758D01*
X122218016Y-97861294D01*
X122186302Y-97800330D01*
X122156325Y-97739377D01*
X122130400Y-97682944D01*
X122110847Y-97635540D01*
X122104903Y-97618835D01*
X122091045Y-97580004D01*
X122076304Y-97543463D01*
X122065615Y-97520606D01*
X122053784Y-97493963D01*
X122047740Y-97471828D01*
X122047538Y-97468800D01*
X122044851Y-97451606D01*
X122037457Y-97419521D01*
X122026360Y-97376337D01*
X122012563Y-97325850D01*
X121997068Y-97271853D01*
X121983727Y-97227384D01*
X121975178Y-97187834D01*
X121968222Y-97132374D01*
X121962865Y-97064370D01*
X121959112Y-96987191D01*
X121956967Y-96904204D01*
X121956436Y-96818777D01*
X121957522Y-96734277D01*
X121960232Y-96654072D01*
X121964569Y-96581529D01*
X121970538Y-96520015D01*
X121978145Y-96472900D01*
X121982620Y-96455615D01*
X121991580Y-96424116D01*
X122002292Y-96382036D01*
X122012586Y-96337934D01*
X122013562Y-96333500D01*
X122030315Y-96262341D01*
X122046547Y-96203925D01*
X122061550Y-96160609D01*
X122072372Y-96138115D01*
X122083676Y-96115233D01*
X122094707Y-96086262D01*
X122095313Y-96084384D01*
X122106322Y-96055229D01*
X122122045Y-96019667D01*
X122130594Y-96002132D01*
X122144191Y-95973591D01*
X122153094Y-95951521D01*
X122155094Y-95943517D01*
X122160829Y-95930428D01*
X122175433Y-95908275D01*
X122187706Y-95892064D01*
X122209436Y-95861400D01*
X122233754Y-95822124D01*
X122253039Y-95787188D01*
X122266637Y-95764347D01*
X122288594Y-95731663D01*
X122316838Y-95691839D01*
X122349298Y-95647581D01*
X122383902Y-95601592D01*
X122418580Y-95556577D01*
X122451259Y-95515241D01*
X122479868Y-95480286D01*
X122502336Y-95454418D01*
X122516591Y-95440341D01*
X122520065Y-95438578D01*
X122529579Y-95433137D01*
X122550956Y-95417621D01*
X122581017Y-95394422D01*
X122616158Y-95366277D01*
X122659860Y-95331985D01*
X122690239Y-95311154D01*
X122707815Y-95303456D01*
X122712580Y-95305262D01*
G36*
X130040303Y-95592692D02*
G01*
X130068776Y-95628838D01*
X130095835Y-95664662D01*
X130116517Y-95693561D01*
X130119827Y-95698500D01*
X130145387Y-95736089D01*
X130163432Y-95759112D01*
X130176046Y-95770017D01*
X130182209Y-95771769D01*
X130190506Y-95779937D01*
X130204595Y-95801744D01*
X130221963Y-95833145D01*
X130229262Y-95847480D01*
X130249522Y-95887220D01*
X130269440Y-95924617D01*
X130285361Y-95952846D01*
X130288110Y-95957384D01*
X130305707Y-95990835D01*
X130320477Y-96027026D01*
X130321666Y-96030654D01*
X130332548Y-96060634D01*
X130343857Y-96085430D01*
X130346054Y-96089269D01*
X130358473Y-96114941D01*
X130374093Y-96155397D01*
X130391620Y-96206404D01*
X130409763Y-96263732D01*
X130427229Y-96323148D01*
X130442725Y-96380422D01*
X130454958Y-96431322D01*
X130462435Y-96470269D01*
X130468037Y-96514002D01*
X130473682Y-96570378D01*
X130479154Y-96635703D01*
X130484236Y-96706282D01*
X130488710Y-96778422D01*
X130492360Y-96848430D01*
X130494970Y-96912612D01*
X130496322Y-96967274D01*
X130496200Y-97008721D01*
X130495145Y-97027659D01*
X130488563Y-97085338D01*
X130480828Y-97142172D01*
X130472677Y-97193529D01*
X130464845Y-97234776D01*
X130458068Y-97261280D01*
X130457967Y-97261577D01*
X130451273Y-97285582D01*
X130443090Y-97321514D01*
X130435079Y-97362018D01*
X130434338Y-97366113D01*
X130426035Y-97405419D01*
X130416586Y-97439631D01*
X130407868Y-97462073D01*
X130406869Y-97463806D01*
X130398490Y-97481338D01*
X130385639Y-97513107D01*
X130369982Y-97554798D01*
X130353186Y-97602099D01*
X130351023Y-97608384D01*
X130333505Y-97656979D01*
X130315968Y-97701297D01*
X130300346Y-97736709D01*
X130288573Y-97758589D01*
X130287717Y-97759807D01*
X130270858Y-97786701D01*
X130259076Y-97812154D01*
X130258624Y-97813538D01*
X130253511Y-97826615D01*
X130244524Y-97843886D01*
X130230067Y-97867945D01*
X130208543Y-97901384D01*
X130178354Y-97946794D01*
X130156803Y-97978813D01*
X130132223Y-98012898D01*
X130097819Y-98057477D01*
X130056888Y-98108569D01*
X130012728Y-98162191D01*
X129968639Y-98214364D01*
X129927919Y-98261105D01*
X129893864Y-98298433D01*
X129881264Y-98311428D01*
X129841186Y-98349527D01*
X129793586Y-98391634D01*
X129741995Y-98434935D01*
X129689940Y-98476618D01*
X129640949Y-98513868D01*
X129598550Y-98543873D01*
X129566273Y-98563817D01*
X129561985Y-98566035D01*
X129526906Y-98585431D01*
X129492720Y-98607431D01*
X129481923Y-98615356D01*
X129454717Y-98633841D01*
X129429073Y-98647135D01*
X129423307Y-98649201D01*
X129402927Y-98657119D01*
X129371571Y-98671352D01*
X129335510Y-98689034D01*
X129330157Y-98691769D01*
X129296219Y-98707207D01*
X129247431Y-98726710D01*
X129187708Y-98748910D01*
X129120968Y-98772438D01*
X129051128Y-98795928D01*
X128982106Y-98818010D01*
X128917818Y-98837318D01*
X128894548Y-98843891D01*
X128850962Y-98853043D01*
X128791507Y-98861352D01*
X128719841Y-98868641D01*
X128639623Y-98874733D01*
X128554510Y-98879448D01*
X128468161Y-98882610D01*
X128384235Y-98884041D01*
X128306388Y-98883563D01*
X128238281Y-98880998D01*
X128197410Y-98877768D01*
X128151580Y-98871927D01*
X128107400Y-98864459D01*
X128072665Y-98856732D01*
X128065525Y-98854655D01*
X128026739Y-98844121D01*
X127985981Y-98835595D01*
X127977461Y-98834230D01*
X127933265Y-98825983D01*
X127887191Y-98814483D01*
X127845455Y-98801537D01*
X127814273Y-98788956D01*
X127805977Y-98784320D01*
X127785954Y-98774057D01*
X127755009Y-98761149D01*
X127728941Y-98751589D01*
X127675163Y-98731272D01*
X127615763Y-98705846D01*
X127555370Y-98677583D01*
X127498609Y-98648754D01*
X127450107Y-98621632D01*
X127414491Y-98598488D01*
X127409703Y-98594838D01*
X127381336Y-98574721D01*
X127344785Y-98551756D01*
X127317496Y-98536168D01*
X127283317Y-98515444D01*
X127241705Y-98486983D01*
X127199975Y-98455866D01*
X127186754Y-98445337D01*
X127137950Y-98403515D01*
X127083976Y-98353659D01*
X127027766Y-98298824D01*
X126972256Y-98242067D01*
X126920379Y-98186446D01*
X126875071Y-98135016D01*
X126839265Y-98090834D01*
X126819367Y-98062654D01*
X126800905Y-98035193D01*
X126778957Y-98004783D01*
X126774699Y-97999154D01*
X126751686Y-97965215D01*
X126723455Y-97917758D01*
X126692324Y-97861294D01*
X126660610Y-97800330D01*
X126630632Y-97739377D01*
X126604708Y-97682944D01*
X126585155Y-97635540D01*
X126579210Y-97618835D01*
X126565353Y-97580004D01*
X126550611Y-97543463D01*
X126539923Y-97520606D01*
X126528092Y-97493963D01*
X126522048Y-97471828D01*
X126521846Y-97468800D01*
X126519158Y-97451606D01*
X126511765Y-97419521D01*
X126500668Y-97376337D01*
X126486871Y-97325850D01*
X126471376Y-97271853D01*
X126458034Y-97227384D01*
X126450261Y-97191250D01*
X126443769Y-97139775D01*
X126438574Y-97076096D01*
X126434694Y-97003351D01*
X126432147Y-96924677D01*
X126430949Y-96843212D01*
X126431118Y-96762093D01*
X126432671Y-96684457D01*
X126435625Y-96613443D01*
X126439998Y-96552187D01*
X126445806Y-96503828D01*
X126453068Y-96471502D01*
X126453869Y-96469285D01*
X126463206Y-96440267D01*
X126471900Y-96406353D01*
X126472866Y-96401884D01*
X126488024Y-96331045D01*
X126500094Y-96278008D01*
X126509441Y-96241347D01*
X126516425Y-96219632D01*
X126521129Y-96211592D01*
X126529013Y-96200661D01*
X126541599Y-96177806D01*
X126555945Y-96149085D01*
X126569110Y-96120556D01*
X126578153Y-96098276D01*
X126580461Y-96089396D01*
X126584508Y-96076755D01*
X126594795Y-96053365D01*
X126601731Y-96039050D01*
X126623001Y-95996461D01*
X126792231Y-95996461D01*
X126847277Y-95996811D01*
X126894838Y-95997782D01*
X126931774Y-95999254D01*
X126954940Y-96001108D01*
X126961461Y-96002866D01*
X126956046Y-96013976D01*
X126942518Y-96033943D01*
X126937038Y-96041291D01*
X126921627Y-96063189D01*
X126912969Y-96078764D01*
X126912308Y-96081290D01*
X126908084Y-96093575D01*
X126897354Y-96117821D01*
X126883645Y-96146322D01*
X126869733Y-96177634D01*
X126861370Y-96203130D01*
X126860271Y-96216359D01*
X126859135Y-96233577D01*
X126850701Y-96252114D01*
X126842707Y-96266553D01*
X126835089Y-96285478D01*
X126826825Y-96312307D01*
X126816893Y-96350459D01*
X126804271Y-96403351D01*
X126800080Y-96421423D01*
X126789620Y-96465938D01*
X126778487Y-96512123D01*
X126770707Y-96543538D01*
X126761668Y-96593920D01*
X126755477Y-96660388D01*
X126752242Y-96739682D01*
X126752070Y-96828543D01*
X126755069Y-96923711D01*
X126756937Y-96958730D01*
X126761492Y-97027721D01*
X126766624Y-97083149D01*
X126773332Y-97130985D01*
X126782614Y-97177199D01*
X126795469Y-97227763D01*
X126811100Y-97282545D01*
X126821896Y-97321416D01*
X126830049Y-97354757D01*
X126834199Y-97376870D01*
X126834461Y-97380506D01*
X126839883Y-97403207D01*
X126847699Y-97418153D01*
X126857265Y-97436866D01*
X126869832Y-97467743D01*
X126882750Y-97504245D01*
X126883262Y-97505807D01*
X126892460Y-97532835D01*
X126902206Y-97558200D01*
X126914108Y-97585263D01*
X126929778Y-97617386D01*
X126950823Y-97657929D01*
X126978854Y-97710254D01*
X126998645Y-97746770D01*
X127045251Y-97821970D01*
X127106799Y-97904303D01*
X127181252Y-97991229D01*
X127263689Y-98077349D01*
X127328556Y-98139970D01*
X127383587Y-98188972D01*
X127430963Y-98226143D01*
X127472866Y-98253269D01*
X127489000Y-98261917D01*
X127523804Y-98281460D01*
X127557873Y-98303724D01*
X127567154Y-98310602D01*
X127638613Y-98358868D01*
X127705684Y-98389283D01*
X127708012Y-98390039D01*
X127741686Y-98402789D01*
X127773313Y-98417729D01*
X127776396Y-98419441D01*
X127803334Y-98432397D01*
X127838905Y-98446562D01*
X127859555Y-98453704D01*
X127895457Y-98466723D01*
X127928596Y-98481082D01*
X127942594Y-98488378D01*
X127967810Y-98499001D01*
X128004224Y-98509503D01*
X128040961Y-98517067D01*
X128083481Y-98524879D01*
X128125411Y-98534022D01*
X128153307Y-98541290D01*
X128183245Y-98547864D01*
X128225326Y-98554148D01*
X128272169Y-98559107D01*
X128290077Y-98560455D01*
X128339487Y-98562212D01*
X128400579Y-98562113D01*
X128469257Y-98560390D01*
X128541427Y-98557275D01*
X128612992Y-98553000D01*
X128679859Y-98547797D01*
X128737933Y-98541896D01*
X128783117Y-98535531D01*
X128802961Y-98531428D01*
X128852820Y-98517719D01*
X128910513Y-98500243D01*
X128972248Y-98480319D01*
X129034230Y-98459269D01*
X129092667Y-98438411D01*
X129143766Y-98419068D01*
X129183733Y-98402558D01*
X129208775Y-98390203D01*
X129208920Y-98390116D01*
X129239299Y-98373049D01*
X129266770Y-98359829D01*
X129277305Y-98355838D01*
X129301992Y-98345141D01*
X129315846Y-98336028D01*
X129331778Y-98325077D01*
X129358923Y-98308817D01*
X129388514Y-98292345D01*
X129459003Y-98248167D01*
X129535382Y-98188917D01*
X129614960Y-98117079D01*
X129695048Y-98035135D01*
X129772955Y-97945567D01*
X129797655Y-97914851D01*
X129845581Y-97853615D01*
X129882689Y-97805063D01*
X129910618Y-97766828D01*
X129931007Y-97736544D01*
X129945497Y-97711842D01*
X129955725Y-97690356D01*
X129959171Y-97681654D01*
X129974137Y-97648363D01*
X129991916Y-97617305D01*
X129994685Y-97613269D01*
X130006356Y-97592215D01*
X130021921Y-97557700D01*
X130039193Y-97514830D01*
X130053279Y-97476500D01*
X130069348Y-97431945D01*
X130084283Y-97392737D01*
X130096296Y-97363444D01*
X130103026Y-97349500D01*
X130111118Y-97328863D01*
X130118689Y-97297371D01*
X130122103Y-97276427D01*
X130128851Y-97237509D01*
X130137972Y-97199593D01*
X130142571Y-97184834D01*
X130151099Y-97150093D01*
X130155725Y-97110676D01*
X130156000Y-97100614D01*
X130158337Y-97065102D01*
X130164180Y-97032223D01*
X130166619Y-97023992D01*
X130169411Y-97004454D01*
X130170655Y-96968865D01*
X130170500Y-96920637D01*
X130169096Y-96863184D01*
X130166593Y-96799918D01*
X130163141Y-96734251D01*
X130158888Y-96669598D01*
X130153986Y-96609370D01*
X130148584Y-96556981D01*
X130144895Y-96528884D01*
X130137763Y-96493433D01*
X130125591Y-96445914D01*
X130109959Y-96391393D01*
X130092444Y-96334932D01*
X130074625Y-96281596D01*
X130058080Y-96236447D01*
X130044387Y-96204551D01*
X130042885Y-96201615D01*
X130027353Y-96169724D01*
X130012042Y-96134348D01*
X129999274Y-96101337D01*
X129991367Y-96076542D01*
X129989923Y-96068070D01*
X129984960Y-96050833D01*
X129971858Y-96022165D01*
X129953290Y-95986906D01*
X129931935Y-95949896D01*
X129910467Y-95915976D01*
X129891562Y-95889986D01*
X129891263Y-95889622D01*
X129870828Y-95861930D01*
X129864126Y-95842778D01*
X129870329Y-95827684D01*
X129878374Y-95819953D01*
X129897108Y-95796990D01*
X129917656Y-95759790D01*
X129937903Y-95713256D01*
X129955738Y-95662293D01*
X129969046Y-95611803D01*
X129969937Y-95607509D01*
X129986447Y-95525961D01*
X130040303Y-95592692D01*
G37*
X130040303Y-95592692D02*
X130068776Y-95628838D01*
X130095835Y-95664662D01*
X130116517Y-95693561D01*
X130119827Y-95698500D01*
X130145387Y-95736089D01*
X130163432Y-95759112D01*
X130176046Y-95770017D01*
X130182209Y-95771769D01*
X130190506Y-95779937D01*
X130204595Y-95801744D01*
X130221963Y-95833145D01*
X130229262Y-95847480D01*
X130249522Y-95887220D01*
X130269440Y-95924617D01*
X130285361Y-95952846D01*
X130288110Y-95957384D01*
X130305707Y-95990835D01*
X130320477Y-96027026D01*
X130321666Y-96030654D01*
X130332548Y-96060634D01*
X130343857Y-96085430D01*
X130346054Y-96089269D01*
X130358473Y-96114941D01*
X130374093Y-96155397D01*
X130391620Y-96206404D01*
X130409763Y-96263732D01*
X130427229Y-96323148D01*
X130442725Y-96380422D01*
X130454958Y-96431322D01*
X130462435Y-96470269D01*
X130468037Y-96514002D01*
X130473682Y-96570378D01*
X130479154Y-96635703D01*
X130484236Y-96706282D01*
X130488710Y-96778422D01*
X130492360Y-96848430D01*
X130494970Y-96912612D01*
X130496322Y-96967274D01*
X130496200Y-97008721D01*
X130495145Y-97027659D01*
X130488563Y-97085338D01*
X130480828Y-97142172D01*
X130472677Y-97193529D01*
X130464845Y-97234776D01*
X130458068Y-97261280D01*
X130457967Y-97261577D01*
X130451273Y-97285582D01*
X130443090Y-97321514D01*
X130435079Y-97362018D01*
X130434338Y-97366113D01*
X130426035Y-97405419D01*
X130416586Y-97439631D01*
X130407868Y-97462073D01*
X130406869Y-97463806D01*
X130398490Y-97481338D01*
X130385639Y-97513107D01*
X130369982Y-97554798D01*
X130353186Y-97602099D01*
X130351023Y-97608384D01*
X130333505Y-97656979D01*
X130315968Y-97701297D01*
X130300346Y-97736709D01*
X130288573Y-97758589D01*
X130287717Y-97759807D01*
X130270858Y-97786701D01*
X130259076Y-97812154D01*
X130258624Y-97813538D01*
X130253511Y-97826615D01*
X130244524Y-97843886D01*
X130230067Y-97867945D01*
X130208543Y-97901384D01*
X130178354Y-97946794D01*
X130156803Y-97978813D01*
X130132223Y-98012898D01*
X130097819Y-98057477D01*
X130056888Y-98108569D01*
X130012728Y-98162191D01*
X129968639Y-98214364D01*
X129927919Y-98261105D01*
X129893864Y-98298433D01*
X129881264Y-98311428D01*
X129841186Y-98349527D01*
X129793586Y-98391634D01*
X129741995Y-98434935D01*
X129689940Y-98476618D01*
X129640949Y-98513868D01*
X129598550Y-98543873D01*
X129566273Y-98563817D01*
X129561985Y-98566035D01*
X129526906Y-98585431D01*
X129492720Y-98607431D01*
X129481923Y-98615356D01*
X129454717Y-98633841D01*
X129429073Y-98647135D01*
X129423307Y-98649201D01*
X129402927Y-98657119D01*
X129371571Y-98671352D01*
X129335510Y-98689034D01*
X129330157Y-98691769D01*
X129296219Y-98707207D01*
X129247431Y-98726710D01*
X129187708Y-98748910D01*
X129120968Y-98772438D01*
X129051128Y-98795928D01*
X128982106Y-98818010D01*
X128917818Y-98837318D01*
X128894548Y-98843891D01*
X128850962Y-98853043D01*
X128791507Y-98861352D01*
X128719841Y-98868641D01*
X128639623Y-98874733D01*
X128554510Y-98879448D01*
X128468161Y-98882610D01*
X128384235Y-98884041D01*
X128306388Y-98883563D01*
X128238281Y-98880998D01*
X128197410Y-98877768D01*
X128151580Y-98871927D01*
X128107400Y-98864459D01*
X128072665Y-98856732D01*
X128065525Y-98854655D01*
X128026739Y-98844121D01*
X127985981Y-98835595D01*
X127977461Y-98834230D01*
X127933265Y-98825983D01*
X127887191Y-98814483D01*
X127845455Y-98801537D01*
X127814273Y-98788956D01*
X127805977Y-98784320D01*
X127785954Y-98774057D01*
X127755009Y-98761149D01*
X127728941Y-98751589D01*
X127675163Y-98731272D01*
X127615763Y-98705846D01*
X127555370Y-98677583D01*
X127498609Y-98648754D01*
X127450107Y-98621632D01*
X127414491Y-98598488D01*
X127409703Y-98594838D01*
X127381336Y-98574721D01*
X127344785Y-98551756D01*
X127317496Y-98536168D01*
X127283317Y-98515444D01*
X127241705Y-98486983D01*
X127199975Y-98455866D01*
X127186754Y-98445337D01*
X127137950Y-98403515D01*
X127083976Y-98353659D01*
X127027766Y-98298824D01*
X126972256Y-98242067D01*
X126920379Y-98186446D01*
X126875071Y-98135016D01*
X126839265Y-98090834D01*
X126819367Y-98062654D01*
X126800905Y-98035193D01*
X126778957Y-98004783D01*
X126774699Y-97999154D01*
X126751686Y-97965215D01*
X126723455Y-97917758D01*
X126692324Y-97861294D01*
X126660610Y-97800330D01*
X126630632Y-97739377D01*
X126604708Y-97682944D01*
X126585155Y-97635540D01*
X126579210Y-97618835D01*
X126565353Y-97580004D01*
X126550611Y-97543463D01*
X126539923Y-97520606D01*
X126528092Y-97493963D01*
X126522048Y-97471828D01*
X126521846Y-97468800D01*
X126519158Y-97451606D01*
X126511765Y-97419521D01*
X126500668Y-97376337D01*
X126486871Y-97325850D01*
X126471376Y-97271853D01*
X126458034Y-97227384D01*
X126450261Y-97191250D01*
X126443769Y-97139775D01*
X126438574Y-97076096D01*
X126434694Y-97003351D01*
X126432147Y-96924677D01*
X126430949Y-96843212D01*
X126431118Y-96762093D01*
X126432671Y-96684457D01*
X126435625Y-96613443D01*
X126439998Y-96552187D01*
X126445806Y-96503828D01*
X126453068Y-96471502D01*
X126453869Y-96469285D01*
X126463206Y-96440267D01*
X126471900Y-96406353D01*
X126472866Y-96401884D01*
X126488024Y-96331045D01*
X126500094Y-96278008D01*
X126509441Y-96241347D01*
X126516425Y-96219632D01*
X126521129Y-96211592D01*
X126529013Y-96200661D01*
X126541599Y-96177806D01*
X126555945Y-96149085D01*
X126569110Y-96120556D01*
X126578153Y-96098276D01*
X126580461Y-96089396D01*
X126584508Y-96076755D01*
X126594795Y-96053365D01*
X126601731Y-96039050D01*
X126623001Y-95996461D01*
X126792231Y-95996461D01*
X126847277Y-95996811D01*
X126894838Y-95997782D01*
X126931774Y-95999254D01*
X126954940Y-96001108D01*
X126961461Y-96002866D01*
X126956046Y-96013976D01*
X126942518Y-96033943D01*
X126937038Y-96041291D01*
X126921627Y-96063189D01*
X126912969Y-96078764D01*
X126912308Y-96081290D01*
X126908084Y-96093575D01*
X126897354Y-96117821D01*
X126883645Y-96146322D01*
X126869733Y-96177634D01*
X126861370Y-96203130D01*
X126860271Y-96216359D01*
X126859135Y-96233577D01*
X126850701Y-96252114D01*
X126842707Y-96266553D01*
X126835089Y-96285478D01*
X126826825Y-96312307D01*
X126816893Y-96350459D01*
X126804271Y-96403351D01*
X126800080Y-96421423D01*
X126789620Y-96465938D01*
X126778487Y-96512123D01*
X126770707Y-96543538D01*
X126761668Y-96593920D01*
X126755477Y-96660388D01*
X126752242Y-96739682D01*
X126752070Y-96828543D01*
X126755069Y-96923711D01*
X126756937Y-96958730D01*
X126761492Y-97027721D01*
X126766624Y-97083149D01*
X126773332Y-97130985D01*
X126782614Y-97177199D01*
X126795469Y-97227763D01*
X126811100Y-97282545D01*
X126821896Y-97321416D01*
X126830049Y-97354757D01*
X126834199Y-97376870D01*
X126834461Y-97380506D01*
X126839883Y-97403207D01*
X126847699Y-97418153D01*
X126857265Y-97436866D01*
X126869832Y-97467743D01*
X126882750Y-97504245D01*
X126883262Y-97505807D01*
X126892460Y-97532835D01*
X126902206Y-97558200D01*
X126914108Y-97585263D01*
X126929778Y-97617386D01*
X126950823Y-97657929D01*
X126978854Y-97710254D01*
X126998645Y-97746770D01*
X127045251Y-97821970D01*
X127106799Y-97904303D01*
X127181252Y-97991229D01*
X127263689Y-98077349D01*
X127328556Y-98139970D01*
X127383587Y-98188972D01*
X127430963Y-98226143D01*
X127472866Y-98253269D01*
X127489000Y-98261917D01*
X127523804Y-98281460D01*
X127557873Y-98303724D01*
X127567154Y-98310602D01*
X127638613Y-98358868D01*
X127705684Y-98389283D01*
X127708012Y-98390039D01*
X127741686Y-98402789D01*
X127773313Y-98417729D01*
X127776396Y-98419441D01*
X127803334Y-98432397D01*
X127838905Y-98446562D01*
X127859555Y-98453704D01*
X127895457Y-98466723D01*
X127928596Y-98481082D01*
X127942594Y-98488378D01*
X127967810Y-98499001D01*
X128004224Y-98509503D01*
X128040961Y-98517067D01*
X128083481Y-98524879D01*
X128125411Y-98534022D01*
X128153307Y-98541290D01*
X128183245Y-98547864D01*
X128225326Y-98554148D01*
X128272169Y-98559107D01*
X128290077Y-98560455D01*
X128339487Y-98562212D01*
X128400579Y-98562113D01*
X128469257Y-98560390D01*
X128541427Y-98557275D01*
X128612992Y-98553000D01*
X128679859Y-98547797D01*
X128737933Y-98541896D01*
X128783117Y-98535531D01*
X128802961Y-98531428D01*
X128852820Y-98517719D01*
X128910513Y-98500243D01*
X128972248Y-98480319D01*
X129034230Y-98459269D01*
X129092667Y-98438411D01*
X129143766Y-98419068D01*
X129183733Y-98402558D01*
X129208775Y-98390203D01*
X129208920Y-98390116D01*
X129239299Y-98373049D01*
X129266770Y-98359829D01*
X129277305Y-98355838D01*
X129301992Y-98345141D01*
X129315846Y-98336028D01*
X129331778Y-98325077D01*
X129358923Y-98308817D01*
X129388514Y-98292345D01*
X129459003Y-98248167D01*
X129535382Y-98188917D01*
X129614960Y-98117079D01*
X129695048Y-98035135D01*
X129772955Y-97945567D01*
X129797655Y-97914851D01*
X129845581Y-97853615D01*
X129882689Y-97805063D01*
X129910618Y-97766828D01*
X129931007Y-97736544D01*
X129945497Y-97711842D01*
X129955725Y-97690356D01*
X129959171Y-97681654D01*
X129974137Y-97648363D01*
X129991916Y-97617305D01*
X129994685Y-97613269D01*
X130006356Y-97592215D01*
X130021921Y-97557700D01*
X130039193Y-97514830D01*
X130053279Y-97476500D01*
X130069348Y-97431945D01*
X130084283Y-97392737D01*
X130096296Y-97363444D01*
X130103026Y-97349500D01*
X130111118Y-97328863D01*
X130118689Y-97297371D01*
X130122103Y-97276427D01*
X130128851Y-97237509D01*
X130137972Y-97199593D01*
X130142571Y-97184834D01*
X130151099Y-97150093D01*
X130155725Y-97110676D01*
X130156000Y-97100614D01*
X130158337Y-97065102D01*
X130164180Y-97032223D01*
X130166619Y-97023992D01*
X130169411Y-97004454D01*
X130170655Y-96968865D01*
X130170500Y-96920637D01*
X130169096Y-96863184D01*
X130166593Y-96799918D01*
X130163141Y-96734251D01*
X130158888Y-96669598D01*
X130153986Y-96609370D01*
X130148584Y-96556981D01*
X130144895Y-96528884D01*
X130137763Y-96493433D01*
X130125591Y-96445914D01*
X130109959Y-96391393D01*
X130092444Y-96334932D01*
X130074625Y-96281596D01*
X130058080Y-96236447D01*
X130044387Y-96204551D01*
X130042885Y-96201615D01*
X130027353Y-96169724D01*
X130012042Y-96134348D01*
X129999274Y-96101337D01*
X129991367Y-96076542D01*
X129989923Y-96068070D01*
X129984960Y-96050833D01*
X129971858Y-96022165D01*
X129953290Y-95986906D01*
X129931935Y-95949896D01*
X129910467Y-95915976D01*
X129891562Y-95889986D01*
X129891263Y-95889622D01*
X129870828Y-95861930D01*
X129864126Y-95842778D01*
X129870329Y-95827684D01*
X129878374Y-95819953D01*
X129897108Y-95796990D01*
X129917656Y-95759790D01*
X129937903Y-95713256D01*
X129955738Y-95662293D01*
X129969046Y-95611803D01*
X129969937Y-95607509D01*
X129986447Y-95525961D01*
X130040303Y-95592692D01*
G36*
X128939730Y-93508620D02*
G01*
X129004718Y-93511725D01*
X129072258Y-93516256D01*
X129135948Y-93521699D01*
X129189385Y-93527541D01*
X129208384Y-93530163D01*
X129260985Y-93538719D01*
X129319556Y-93549201D01*
X129380072Y-93560785D01*
X129438506Y-93572646D01*
X129490832Y-93583962D01*
X129533026Y-93593909D01*
X129561061Y-93601663D01*
X129565670Y-93603269D01*
X129589384Y-93612285D01*
X129589384Y-94052099D01*
X129538096Y-94031375D01*
X129404886Y-93982903D01*
X129271940Y-93944796D01*
X129142184Y-93917558D01*
X129018542Y-93901694D01*
X128903940Y-93897710D01*
X128807143Y-93905236D01*
X128729672Y-93920472D01*
X128668884Y-93941959D01*
X128622580Y-93970939D01*
X128588556Y-94008654D01*
X128572310Y-94037730D01*
X128555273Y-94094514D01*
X128556840Y-94148344D01*
X128576121Y-94197574D01*
X128612225Y-94240559D01*
X128664260Y-94275652D01*
X128711682Y-94295304D01*
X128741316Y-94303889D01*
X128785748Y-94315248D01*
X128840614Y-94328337D01*
X128901551Y-94342114D01*
X128959269Y-94354508D01*
X129058206Y-94375773D01*
X129141053Y-94395064D01*
X129211039Y-94413344D01*
X129271390Y-94431574D01*
X129325334Y-94450718D01*
X129376097Y-94471738D01*
X129418423Y-94491441D01*
X129501274Y-94537375D01*
X129567508Y-94587736D01*
X129620000Y-94645669D01*
X129661629Y-94714319D01*
X129693699Y-94792222D01*
X129704251Y-94824661D01*
X129711549Y-94853401D01*
X129716193Y-94883375D01*
X129718785Y-94919516D01*
X129719925Y-94966754D01*
X129720182Y-95009769D01*
X129716737Y-95116047D01*
X129705115Y-95207290D01*
X129684209Y-95286678D01*
X129652912Y-95357392D01*
X129610115Y-95422612D01*
X129554711Y-95485517D01*
X129554365Y-95485867D01*
X129483299Y-95546940D01*
X129401608Y-95596555D01*
X129307517Y-95635459D01*
X129199251Y-95664400D01*
X129086269Y-95682785D01*
X129010503Y-95689202D01*
X128922031Y-95692013D01*
X128827336Y-95691284D01*
X128732903Y-95687080D01*
X128645215Y-95679467D01*
X128634518Y-95678215D01*
X128504390Y-95658035D01*
X128366869Y-95628711D01*
X128230660Y-95592168D01*
X128192608Y-95580482D01*
X128084923Y-95546383D01*
X128084923Y-95089282D01*
X128185057Y-95136485D01*
X128302474Y-95187342D01*
X128417633Y-95228621D01*
X128529355Y-95260474D01*
X128636460Y-95283051D01*
X128737770Y-95296506D01*
X128832105Y-95300988D01*
X128918286Y-95296651D01*
X128995132Y-95283644D01*
X129061465Y-95262119D01*
X129116105Y-95232229D01*
X129157873Y-95194124D01*
X129185590Y-95147956D01*
X129198075Y-95093876D01*
X129194149Y-95032036D01*
X129188416Y-95007630D01*
X129177770Y-94977189D01*
X129162807Y-94950619D01*
X129141781Y-94927089D01*
X129112945Y-94905767D01*
X129074554Y-94885823D01*
X129024861Y-94866424D01*
X128962122Y-94846740D01*
X128884589Y-94825940D01*
X128790517Y-94803192D01*
X128729692Y-94789231D01*
X128663432Y-94773527D01*
X128597908Y-94756737D01*
X128537632Y-94740108D01*
X128487118Y-94724890D01*
X128450880Y-94712332D01*
X128448885Y-94711541D01*
X128344718Y-94661640D01*
X128257527Y-94602229D01*
X128187051Y-94532892D01*
X128133027Y-94453219D01*
X128095196Y-94362795D01*
X128073296Y-94261208D01*
X128067065Y-94148045D01*
X128068297Y-94110103D01*
X128082477Y-93996330D01*
X128112601Y-93893612D01*
X128158485Y-93802237D01*
X128219944Y-93722489D01*
X128296792Y-93654656D01*
X128388846Y-93599024D01*
X128402423Y-93592466D01*
X128481252Y-93559776D01*
X128562434Y-93535409D01*
X128649443Y-93518822D01*
X128745757Y-93509473D01*
X128854851Y-93506819D01*
X128939730Y-93508620D01*
G37*
X128939730Y-93508620D02*
X129004718Y-93511725D01*
X129072258Y-93516256D01*
X129135948Y-93521699D01*
X129189385Y-93527541D01*
X129208384Y-93530163D01*
X129260985Y-93538719D01*
X129319556Y-93549201D01*
X129380072Y-93560785D01*
X129438506Y-93572646D01*
X129490832Y-93583962D01*
X129533026Y-93593909D01*
X129561061Y-93601663D01*
X129565670Y-93603269D01*
X129589384Y-93612285D01*
X129589384Y-94052099D01*
X129538096Y-94031375D01*
X129404886Y-93982903D01*
X129271940Y-93944796D01*
X129142184Y-93917558D01*
X129018542Y-93901694D01*
X128903940Y-93897710D01*
X128807143Y-93905236D01*
X128729672Y-93920472D01*
X128668884Y-93941959D01*
X128622580Y-93970939D01*
X128588556Y-94008654D01*
X128572310Y-94037730D01*
X128555273Y-94094514D01*
X128556840Y-94148344D01*
X128576121Y-94197574D01*
X128612225Y-94240559D01*
X128664260Y-94275652D01*
X128711682Y-94295304D01*
X128741316Y-94303889D01*
X128785748Y-94315248D01*
X128840614Y-94328337D01*
X128901551Y-94342114D01*
X128959269Y-94354508D01*
X129058206Y-94375773D01*
X129141053Y-94395064D01*
X129211039Y-94413344D01*
X129271390Y-94431574D01*
X129325334Y-94450718D01*
X129376097Y-94471738D01*
X129418423Y-94491441D01*
X129501274Y-94537375D01*
X129567508Y-94587736D01*
X129620000Y-94645669D01*
X129661629Y-94714319D01*
X129693699Y-94792222D01*
X129704251Y-94824661D01*
X129711549Y-94853401D01*
X129716193Y-94883375D01*
X129718785Y-94919516D01*
X129719925Y-94966754D01*
X129720182Y-95009769D01*
X129716737Y-95116047D01*
X129705115Y-95207290D01*
X129684209Y-95286678D01*
X129652912Y-95357392D01*
X129610115Y-95422612D01*
X129554711Y-95485517D01*
X129554365Y-95485867D01*
X129483299Y-95546940D01*
X129401608Y-95596555D01*
X129307517Y-95635459D01*
X129199251Y-95664400D01*
X129086269Y-95682785D01*
X129010503Y-95689202D01*
X128922031Y-95692013D01*
X128827336Y-95691284D01*
X128732903Y-95687080D01*
X128645215Y-95679467D01*
X128634518Y-95678215D01*
X128504390Y-95658035D01*
X128366869Y-95628711D01*
X128230660Y-95592168D01*
X128192608Y-95580482D01*
X128084923Y-95546383D01*
X128084923Y-95089282D01*
X128185057Y-95136485D01*
X128302474Y-95187342D01*
X128417633Y-95228621D01*
X128529355Y-95260474D01*
X128636460Y-95283051D01*
X128737770Y-95296506D01*
X128832105Y-95300988D01*
X128918286Y-95296651D01*
X128995132Y-95283644D01*
X129061465Y-95262119D01*
X129116105Y-95232229D01*
X129157873Y-95194124D01*
X129185590Y-95147956D01*
X129198075Y-95093876D01*
X129194149Y-95032036D01*
X129188416Y-95007630D01*
X129177770Y-94977189D01*
X129162807Y-94950619D01*
X129141781Y-94927089D01*
X129112945Y-94905767D01*
X129074554Y-94885823D01*
X129024861Y-94866424D01*
X128962122Y-94846740D01*
X128884589Y-94825940D01*
X128790517Y-94803192D01*
X128729692Y-94789231D01*
X128663432Y-94773527D01*
X128597908Y-94756737D01*
X128537632Y-94740108D01*
X128487118Y-94724890D01*
X128450880Y-94712332D01*
X128448885Y-94711541D01*
X128344718Y-94661640D01*
X128257527Y-94602229D01*
X128187051Y-94532892D01*
X128133027Y-94453219D01*
X128095196Y-94362795D01*
X128073296Y-94261208D01*
X128067065Y-94148045D01*
X128068297Y-94110103D01*
X128082477Y-93996330D01*
X128112601Y-93893612D01*
X128158485Y-93802237D01*
X128219944Y-93722489D01*
X128296792Y-93654656D01*
X128388846Y-93599024D01*
X128402423Y-93592466D01*
X128481252Y-93559776D01*
X128562434Y-93535409D01*
X128649443Y-93518822D01*
X128745757Y-93509473D01*
X128854851Y-93506819D01*
X128939730Y-93508620D01*
G36*
X125359307Y-95654538D02*
G01*
X124841657Y-95654538D01*
X124839155Y-94890287D01*
X124836654Y-94126036D01*
X124359354Y-95254000D01*
X124016038Y-95253678D01*
X123983686Y-95178127D01*
X123973670Y-95154645D01*
X123956874Y-95115162D01*
X123934143Y-95061667D01*
X123906322Y-94996150D01*
X123874255Y-94920599D01*
X123838786Y-94837004D01*
X123800759Y-94747353D01*
X123761020Y-94653637D01*
X123744340Y-94614294D01*
X123537346Y-94126012D01*
X123532342Y-95654538D01*
X123014692Y-95654538D01*
X123014692Y-93544137D01*
X123362860Y-93546703D01*
X123711029Y-93549269D01*
X123946506Y-94108135D01*
X123988074Y-94206435D01*
X124027513Y-94299010D01*
X124064161Y-94384351D01*
X124097357Y-94460951D01*
X124126438Y-94527302D01*
X124150743Y-94581897D01*
X124169612Y-94623227D01*
X124182381Y-94649786D01*
X124188391Y-94660065D01*
X124188682Y-94660097D01*
X124193584Y-94650103D01*
X124205408Y-94623672D01*
X124223481Y-94582368D01*
X124247130Y-94527756D01*
X124275682Y-94461401D01*
X124308464Y-94384867D01*
X124344802Y-94299719D01*
X124384024Y-94207522D01*
X124425457Y-94109839D01*
X124429103Y-94101230D01*
X124662824Y-93549269D01*
X125011066Y-93546703D01*
X125359307Y-93544137D01*
X125359307Y-95654538D01*
G37*
X125359307Y-95654538D02*
X124841657Y-95654538D01*
X124839155Y-94890287D01*
X124836654Y-94126036D01*
X124359354Y-95254000D01*
X124016038Y-95253678D01*
X123983686Y-95178127D01*
X123973670Y-95154645D01*
X123956874Y-95115162D01*
X123934143Y-95061667D01*
X123906322Y-94996150D01*
X123874255Y-94920599D01*
X123838786Y-94837004D01*
X123800759Y-94747353D01*
X123761020Y-94653637D01*
X123744340Y-94614294D01*
X123537346Y-94126012D01*
X123532342Y-95654538D01*
X123014692Y-95654538D01*
X123014692Y-93544137D01*
X123362860Y-93546703D01*
X123711029Y-93549269D01*
X123946506Y-94108135D01*
X123988074Y-94206435D01*
X124027513Y-94299010D01*
X124064161Y-94384351D01*
X124097357Y-94460951D01*
X124126438Y-94527302D01*
X124150743Y-94581897D01*
X124169612Y-94623227D01*
X124182381Y-94649786D01*
X124188391Y-94660065D01*
X124188682Y-94660097D01*
X124193584Y-94650103D01*
X124205408Y-94623672D01*
X124223481Y-94582368D01*
X124247130Y-94527756D01*
X124275682Y-94461401D01*
X124308464Y-94384867D01*
X124344802Y-94299719D01*
X124384024Y-94207522D01*
X124425457Y-94109839D01*
X124429103Y-94101230D01*
X124662824Y-93549269D01*
X125011066Y-93546703D01*
X125359307Y-93544137D01*
X125359307Y-95654538D01*
G36*
X126505423Y-93544601D02*
G01*
X126618359Y-93545330D01*
X126715471Y-93546693D01*
X126798614Y-93548811D01*
X126869643Y-93551803D01*
X126930414Y-93555791D01*
X126982781Y-93560894D01*
X127028600Y-93567235D01*
X127069725Y-93574932D01*
X127108013Y-93584108D01*
X127143629Y-93594359D01*
X127245055Y-93633984D01*
X127330976Y-93685497D01*
X127401388Y-93748893D01*
X127456289Y-93824169D01*
X127495676Y-93911322D01*
X127519546Y-94010348D01*
X127527898Y-94121243D01*
X127527907Y-94127684D01*
X127520406Y-94234434D01*
X127498046Y-94329256D01*
X127460290Y-94413515D01*
X127406596Y-94488575D01*
X127370537Y-94525998D01*
X127336134Y-94555073D01*
X127294993Y-94584749D01*
X127251436Y-94612456D01*
X127209783Y-94635623D01*
X127174356Y-94651680D01*
X127149475Y-94658058D01*
X127148494Y-94658077D01*
X127136999Y-94661725D01*
X127140025Y-94669981D01*
X127154570Y-94678810D01*
X127166688Y-94682516D01*
X127213913Y-94701058D01*
X127265594Y-94735843D01*
X127319479Y-94784762D01*
X127373319Y-94845704D01*
X127424862Y-94916561D01*
X127437705Y-94936500D01*
X127449772Y-94957764D01*
X127469025Y-94994206D01*
X127494247Y-95043365D01*
X127524219Y-95102781D01*
X127557723Y-95169992D01*
X127593541Y-95242538D01*
X127630455Y-95317958D01*
X127667246Y-95393792D01*
X127702698Y-95467579D01*
X127735590Y-95536857D01*
X127748422Y-95564173D01*
X127790713Y-95654538D01*
X127214418Y-95654538D01*
X127064658Y-95349250D01*
X127027752Y-95274852D01*
X126991684Y-95203703D01*
X126957790Y-95138321D01*
X126927405Y-95081229D01*
X126901866Y-95034946D01*
X126882507Y-95001993D01*
X126873347Y-94988205D01*
X126830813Y-94939148D01*
X126784119Y-94902524D01*
X126730087Y-94877031D01*
X126665539Y-94861369D01*
X126587298Y-94854237D01*
X126544216Y-94853461D01*
X126443692Y-94853461D01*
X126443692Y-95654538D01*
X125896615Y-95654538D01*
X125896615Y-93935154D01*
X126443692Y-93935154D01*
X126443692Y-94484409D01*
X126617096Y-94479596D01*
X126684459Y-94477025D01*
X126742825Y-94473417D01*
X126789083Y-94469030D01*
X126820119Y-94464122D01*
X126827378Y-94462139D01*
X126877222Y-94436254D01*
X126920958Y-94397265D01*
X126952653Y-94350800D01*
X126958250Y-94338031D01*
X126969422Y-94297544D01*
X126975084Y-94246146D01*
X126976115Y-94203117D01*
X126975409Y-94158048D01*
X126972370Y-94125611D01*
X126965613Y-94098923D01*
X126953756Y-94071100D01*
X126946781Y-94057144D01*
X126924008Y-94020467D01*
X126895881Y-93991487D01*
X126860117Y-93969437D01*
X126814432Y-93953548D01*
X126756543Y-93943052D01*
X126684167Y-93937183D01*
X126595022Y-93935172D01*
X126584012Y-93935154D01*
X126443692Y-93935154D01*
X125896615Y-93935154D01*
X125896615Y-93544384D01*
X126374807Y-93544384D01*
X126505423Y-93544601D01*
G37*
X126505423Y-93544601D02*
X126618359Y-93545330D01*
X126715471Y-93546693D01*
X126798614Y-93548811D01*
X126869643Y-93551803D01*
X126930414Y-93555791D01*
X126982781Y-93560894D01*
X127028600Y-93567235D01*
X127069725Y-93574932D01*
X127108013Y-93584108D01*
X127143629Y-93594359D01*
X127245055Y-93633984D01*
X127330976Y-93685497D01*
X127401388Y-93748893D01*
X127456289Y-93824169D01*
X127495676Y-93911322D01*
X127519546Y-94010348D01*
X127527898Y-94121243D01*
X127527907Y-94127684D01*
X127520406Y-94234434D01*
X127498046Y-94329256D01*
X127460290Y-94413515D01*
X127406596Y-94488575D01*
X127370537Y-94525998D01*
X127336134Y-94555073D01*
X127294993Y-94584749D01*
X127251436Y-94612456D01*
X127209783Y-94635623D01*
X127174356Y-94651680D01*
X127149475Y-94658058D01*
X127148494Y-94658077D01*
X127136999Y-94661725D01*
X127140025Y-94669981D01*
X127154570Y-94678810D01*
X127166688Y-94682516D01*
X127213913Y-94701058D01*
X127265594Y-94735843D01*
X127319479Y-94784762D01*
X127373319Y-94845704D01*
X127424862Y-94916561D01*
X127437705Y-94936500D01*
X127449772Y-94957764D01*
X127469025Y-94994206D01*
X127494247Y-95043365D01*
X127524219Y-95102781D01*
X127557723Y-95169992D01*
X127593541Y-95242538D01*
X127630455Y-95317958D01*
X127667246Y-95393792D01*
X127702698Y-95467579D01*
X127735590Y-95536857D01*
X127748422Y-95564173D01*
X127790713Y-95654538D01*
X127214418Y-95654538D01*
X127064658Y-95349250D01*
X127027752Y-95274852D01*
X126991684Y-95203703D01*
X126957790Y-95138321D01*
X126927405Y-95081229D01*
X126901866Y-95034946D01*
X126882507Y-95001993D01*
X126873347Y-94988205D01*
X126830813Y-94939148D01*
X126784119Y-94902524D01*
X126730087Y-94877031D01*
X126665539Y-94861369D01*
X126587298Y-94854237D01*
X126544216Y-94853461D01*
X126443692Y-94853461D01*
X126443692Y-95654538D01*
X125896615Y-95654538D01*
X125896615Y-93935154D01*
X126443692Y-93935154D01*
X126443692Y-94484409D01*
X126617096Y-94479596D01*
X126684459Y-94477025D01*
X126742825Y-94473417D01*
X126789083Y-94469030D01*
X126820119Y-94464122D01*
X126827378Y-94462139D01*
X126877222Y-94436254D01*
X126920958Y-94397265D01*
X126952653Y-94350800D01*
X126958250Y-94338031D01*
X126969422Y-94297544D01*
X126975084Y-94246146D01*
X126976115Y-94203117D01*
X126975409Y-94158048D01*
X126972370Y-94125611D01*
X126965613Y-94098923D01*
X126953756Y-94071100D01*
X126946781Y-94057144D01*
X126924008Y-94020467D01*
X126895881Y-93991487D01*
X126860117Y-93969437D01*
X126814432Y-93953548D01*
X126756543Y-93943052D01*
X126684167Y-93937183D01*
X126595022Y-93935172D01*
X126584012Y-93935154D01*
X126443692Y-93935154D01*
X125896615Y-93935154D01*
X125896615Y-93544384D01*
X126374807Y-93544384D01*
X126505423Y-93544601D01*
G36*
X124093330Y-90366354D02*
G01*
X124172642Y-90369781D01*
X124243960Y-90375176D01*
X124303932Y-90382541D01*
X124349205Y-90391882D01*
X124362846Y-90396323D01*
X124383724Y-90402098D01*
X124417629Y-90409164D01*
X124458220Y-90416236D01*
X124470307Y-90418100D01*
X124516381Y-90426928D01*
X124562072Y-90438895D01*
X124598567Y-90451641D01*
X124603023Y-90453623D01*
X124642037Y-90469207D01*
X124683817Y-90482139D01*
X124700716Y-90486053D01*
X124730058Y-90494723D01*
X124770105Y-90510508D01*
X124814603Y-90530815D01*
X124841538Y-90544460D01*
X124891476Y-90570700D01*
X124946002Y-90599070D01*
X124996135Y-90624906D01*
X125014092Y-90634068D01*
X125058030Y-90659097D01*
X125108177Y-90691815D01*
X125156315Y-90726729D01*
X125175284Y-90741818D01*
X125218607Y-90777552D01*
X125269415Y-90819414D01*
X125320092Y-90861130D01*
X125348436Y-90884441D01*
X125392454Y-90924039D01*
X125443384Y-90975313D01*
X125497226Y-91033728D01*
X125549986Y-91094749D01*
X125597663Y-91153843D01*
X125636263Y-91206474D01*
X125647944Y-91224192D01*
X125666412Y-91251604D01*
X125688434Y-91281976D01*
X125692784Y-91287692D01*
X125708267Y-91310720D01*
X125729288Y-91345896D01*
X125752724Y-91387853D01*
X125769341Y-91419249D01*
X125790267Y-91459355D01*
X125808448Y-91493367D01*
X125821726Y-91517302D01*
X125827517Y-91526711D01*
X125835281Y-91541944D01*
X125844873Y-91567492D01*
X125847585Y-91575884D01*
X125858330Y-91605889D01*
X125869569Y-91630691D01*
X125871747Y-91634500D01*
X125884166Y-91660172D01*
X125899785Y-91700627D01*
X125917313Y-91751635D01*
X125935455Y-91808962D01*
X125952921Y-91868379D01*
X125968417Y-91925653D01*
X125980651Y-91976553D01*
X125988127Y-92015500D01*
X125993729Y-92059233D01*
X125999375Y-92115609D01*
X126004847Y-92180933D01*
X126009928Y-92251513D01*
X126014402Y-92323653D01*
X126018053Y-92393661D01*
X126020662Y-92457843D01*
X126022014Y-92512504D01*
X126021892Y-92553952D01*
X126020838Y-92572890D01*
X126012893Y-92641307D01*
X126003526Y-92706488D01*
X125993521Y-92763664D01*
X125983666Y-92808066D01*
X125979854Y-92821461D01*
X125969746Y-92859770D01*
X125961278Y-92902100D01*
X125959430Y-92914269D01*
X125953080Y-92943625D01*
X125942087Y-92978935D01*
X125928563Y-93014882D01*
X125914619Y-93046151D01*
X125902367Y-93067423D01*
X125896217Y-93073412D01*
X125890449Y-93083285D01*
X125880229Y-93107746D01*
X125867145Y-93142800D01*
X125856437Y-93173546D01*
X125823500Y-93270846D01*
X125654904Y-93270846D01*
X125599967Y-93270658D01*
X125552520Y-93270137D01*
X125515711Y-93269347D01*
X125492690Y-93268351D01*
X125486307Y-93267419D01*
X125490752Y-93248480D01*
X125501829Y-93220443D01*
X125516157Y-93190984D01*
X125529994Y-93168269D01*
X125546485Y-93141643D01*
X125559873Y-93112927D01*
X125567860Y-93088046D01*
X125568146Y-93072929D01*
X125567387Y-93071874D01*
X125568137Y-93061004D01*
X125574524Y-93036951D01*
X125584840Y-93004639D01*
X125597377Y-92968991D01*
X125610425Y-92934929D01*
X125622277Y-92907376D01*
X125628866Y-92894730D01*
X125636874Y-92874094D01*
X125644392Y-92842603D01*
X125647795Y-92821658D01*
X125654543Y-92782740D01*
X125663664Y-92744824D01*
X125668264Y-92730065D01*
X125676791Y-92695323D01*
X125681417Y-92655907D01*
X125681692Y-92645845D01*
X125684029Y-92610333D01*
X125689873Y-92577453D01*
X125692311Y-92569222D01*
X125695104Y-92549681D01*
X125696349Y-92514088D01*
X125696193Y-92465859D01*
X125694789Y-92408406D01*
X125692285Y-92345144D01*
X125688831Y-92279485D01*
X125684578Y-92214845D01*
X125679675Y-92154635D01*
X125674271Y-92102271D01*
X125670571Y-92074115D01*
X125657030Y-92008830D01*
X125634647Y-91931399D01*
X125605194Y-91846081D01*
X125570441Y-91757134D01*
X125532157Y-91668818D01*
X125492114Y-91585392D01*
X125452080Y-91511116D01*
X125413828Y-91450248D01*
X125407676Y-91441604D01*
X125334320Y-91344007D01*
X125267273Y-91261927D01*
X125204599Y-91193168D01*
X125144361Y-91135533D01*
X125117753Y-91112822D01*
X125076139Y-91078420D01*
X125035278Y-91044324D01*
X125000118Y-91014680D01*
X124977334Y-90995145D01*
X124940601Y-90967735D01*
X124885923Y-90933810D01*
X124813690Y-90893596D01*
X124724297Y-90847318D01*
X124685230Y-90827854D01*
X124645896Y-90810715D01*
X124604062Y-90795889D01*
X124582654Y-90789935D01*
X124544262Y-90778991D01*
X124506144Y-90765115D01*
X124494730Y-90760108D01*
X124467394Y-90750145D01*
X124427599Y-90739203D01*
X124382227Y-90729090D01*
X124362846Y-90725469D01*
X124314782Y-90717061D01*
X124266892Y-90708663D01*
X124227232Y-90701689D01*
X124216307Y-90699761D01*
X124159723Y-90692385D01*
X124090267Y-90687307D01*
X124014486Y-90684667D01*
X123938927Y-90684609D01*
X123870136Y-90687272D01*
X123825538Y-90691312D01*
X123759530Y-90700222D01*
X123702728Y-90709763D01*
X123647094Y-90721538D01*
X123584586Y-90737152D01*
X123552000Y-90745878D01*
X123507737Y-90757819D01*
X123464755Y-90769279D01*
X123430896Y-90778173D01*
X123425000Y-90779692D01*
X123382422Y-90793483D01*
X123328223Y-90815263D01*
X123267331Y-90842643D01*
X123204678Y-90873232D01*
X123145194Y-90904639D01*
X123093809Y-90934474D01*
X123061159Y-90956101D01*
X122964452Y-91028039D01*
X122882291Y-91093237D01*
X122811965Y-91154116D01*
X122750765Y-91213097D01*
X122695978Y-91272602D01*
X122663918Y-91310976D01*
X122626701Y-91358619D01*
X122590840Y-91407185D01*
X122559656Y-91451995D01*
X122536468Y-91488370D01*
X122530337Y-91499209D01*
X122509507Y-91536545D01*
X122488600Y-91571339D01*
X122471979Y-91596342D01*
X122471333Y-91597213D01*
X122456552Y-91618389D01*
X122448546Y-91632607D01*
X122448077Y-91634463D01*
X122444213Y-91645705D01*
X122434020Y-91669680D01*
X122419589Y-91701492D01*
X122417513Y-91705942D01*
X122392309Y-91760024D01*
X122374086Y-91799913D01*
X122361447Y-91829070D01*
X122352993Y-91850950D01*
X122347327Y-91869014D01*
X122343050Y-91886719D01*
X122341536Y-91893888D01*
X122326789Y-91963585D01*
X122314111Y-92020142D01*
X122303912Y-92061837D01*
X122296603Y-92086947D01*
X122294046Y-92092937D01*
X122289495Y-92109961D01*
X122285626Y-92143114D01*
X122282534Y-92188997D01*
X122280317Y-92244211D01*
X122279069Y-92305354D01*
X122278887Y-92369027D01*
X122279867Y-92431831D01*
X122282104Y-92490364D01*
X122282583Y-92499077D01*
X122287044Y-92568668D01*
X122292013Y-92624474D01*
X122298438Y-92672246D01*
X122307268Y-92717733D01*
X122319450Y-92766683D01*
X122335934Y-92824846D01*
X122336793Y-92827776D01*
X122347588Y-92866646D01*
X122355741Y-92899988D01*
X122359892Y-92922101D01*
X122360154Y-92925737D01*
X122365575Y-92948437D01*
X122373391Y-92963384D01*
X122382957Y-92982097D01*
X122395525Y-93012974D01*
X122408442Y-93049476D01*
X122408954Y-93051038D01*
X122425699Y-93096484D01*
X122446416Y-93144773D01*
X122462774Y-93178038D01*
X122495561Y-93238862D01*
X122520754Y-93285014D01*
X122539871Y-93319107D01*
X122554433Y-93343753D01*
X122565959Y-93361561D01*
X122575968Y-93375145D01*
X122581157Y-93381499D01*
X122596623Y-93403665D01*
X122604223Y-93421971D01*
X122604384Y-93423903D01*
X122610764Y-93438938D01*
X122628372Y-93465109D01*
X122654908Y-93499452D01*
X122688075Y-93539005D01*
X122725575Y-93580802D01*
X122728572Y-93584024D01*
X122748058Y-93607007D01*
X122755540Y-93624134D01*
X122753652Y-93642488D01*
X122752202Y-93647524D01*
X122742459Y-93687467D01*
X122732830Y-93741273D01*
X122724182Y-93803283D01*
X122717380Y-93867835D01*
X122716057Y-93883865D01*
X122712392Y-93920756D01*
X122708074Y-93948769D01*
X122703861Y-93963363D01*
X122702587Y-93964461D01*
X122693111Y-93958045D01*
X122672809Y-93940615D01*
X122644748Y-93914899D01*
X122614752Y-93886305D01*
X122582293Y-93855863D01*
X122554639Y-93831849D01*
X122534854Y-93816795D01*
X122526197Y-93813058D01*
X122517092Y-93808011D01*
X122498485Y-93790446D01*
X122472912Y-93763237D01*
X122442908Y-93729257D01*
X122411005Y-93691380D01*
X122379740Y-93652481D01*
X122351646Y-93615433D01*
X122350384Y-93613700D01*
X122327520Y-93582267D01*
X122305860Y-93552548D01*
X122295539Y-93538417D01*
X122272918Y-93503922D01*
X122245069Y-93456056D01*
X122214349Y-93399451D01*
X122183118Y-93338739D01*
X122153736Y-93278555D01*
X122128561Y-93223531D01*
X122109953Y-93178300D01*
X122104903Y-93164066D01*
X122091045Y-93125235D01*
X122076304Y-93088693D01*
X122065615Y-93065837D01*
X122053784Y-93039194D01*
X122047740Y-93017058D01*
X122047538Y-93014031D01*
X122044851Y-92996837D01*
X122037457Y-92964752D01*
X122026360Y-92921568D01*
X122012563Y-92871081D01*
X121997068Y-92817084D01*
X121983727Y-92772615D01*
X121975178Y-92733065D01*
X121968222Y-92677604D01*
X121962865Y-92609601D01*
X121959112Y-92532422D01*
X121956967Y-92449435D01*
X121956436Y-92364008D01*
X121957522Y-92279508D01*
X121960232Y-92199302D01*
X121964569Y-92126759D01*
X121970538Y-92065246D01*
X121978145Y-92018130D01*
X121982620Y-92000846D01*
X121991580Y-91969347D01*
X122002292Y-91927266D01*
X122012586Y-91883164D01*
X122013562Y-91878730D01*
X122030315Y-91807572D01*
X122046547Y-91749156D01*
X122061550Y-91705840D01*
X122072372Y-91683346D01*
X122083676Y-91660463D01*
X122094707Y-91631493D01*
X122095313Y-91629615D01*
X122106322Y-91600460D01*
X122122045Y-91564898D01*
X122130594Y-91547363D01*
X122144191Y-91518822D01*
X122153094Y-91496752D01*
X122155094Y-91488748D01*
X122160829Y-91475659D01*
X122175433Y-91453506D01*
X122187706Y-91437295D01*
X122209369Y-91406718D01*
X122233678Y-91367456D01*
X122253273Y-91331962D01*
X122269983Y-91303803D01*
X122296562Y-91264276D01*
X122330390Y-91217039D01*
X122368848Y-91165751D01*
X122409315Y-91114069D01*
X122409391Y-91113974D01*
X122455564Y-91057050D01*
X122494073Y-91011698D01*
X122528957Y-90973843D01*
X122564250Y-90939410D01*
X122603992Y-90904324D01*
X122652218Y-90864509D01*
X122673441Y-90847426D01*
X122720392Y-90810057D01*
X122764055Y-90775787D01*
X122801371Y-90746980D01*
X122829282Y-90726000D01*
X122843730Y-90715828D01*
X122871195Y-90697313D01*
X122901609Y-90675336D01*
X122907230Y-90671084D01*
X122933540Y-90653070D01*
X122969480Y-90631096D01*
X123006779Y-90610188D01*
X123041028Y-90591972D01*
X123070313Y-90576387D01*
X123088785Y-90566546D01*
X123089818Y-90565995D01*
X123139863Y-90540850D01*
X123192106Y-90518114D01*
X123250126Y-90496530D01*
X123317502Y-90474838D01*
X123397814Y-90451782D01*
X123468961Y-90432768D01*
X123513502Y-90420899D01*
X123553933Y-90409705D01*
X123584567Y-90400781D01*
X123595961Y-90397151D01*
X123637352Y-90386907D01*
X123694217Y-90378605D01*
X123763205Y-90372249D01*
X123840963Y-90367842D01*
X123924138Y-90365388D01*
X124009378Y-90364891D01*
X124093330Y-90366354D01*
G37*
X124093330Y-90366354D02*
X124172642Y-90369781D01*
X124243960Y-90375176D01*
X124303932Y-90382541D01*
X124349205Y-90391882D01*
X124362846Y-90396323D01*
X124383724Y-90402098D01*
X124417629Y-90409164D01*
X124458220Y-90416236D01*
X124470307Y-90418100D01*
X124516381Y-90426928D01*
X124562072Y-90438895D01*
X124598567Y-90451641D01*
X124603023Y-90453623D01*
X124642037Y-90469207D01*
X124683817Y-90482139D01*
X124700716Y-90486053D01*
X124730058Y-90494723D01*
X124770105Y-90510508D01*
X124814603Y-90530815D01*
X124841538Y-90544460D01*
X124891476Y-90570700D01*
X124946002Y-90599070D01*
X124996135Y-90624906D01*
X125014092Y-90634068D01*
X125058030Y-90659097D01*
X125108177Y-90691815D01*
X125156315Y-90726729D01*
X125175284Y-90741818D01*
X125218607Y-90777552D01*
X125269415Y-90819414D01*
X125320092Y-90861130D01*
X125348436Y-90884441D01*
X125392454Y-90924039D01*
X125443384Y-90975313D01*
X125497226Y-91033728D01*
X125549986Y-91094749D01*
X125597663Y-91153843D01*
X125636263Y-91206474D01*
X125647944Y-91224192D01*
X125666412Y-91251604D01*
X125688434Y-91281976D01*
X125692784Y-91287692D01*
X125708267Y-91310720D01*
X125729288Y-91345896D01*
X125752724Y-91387853D01*
X125769341Y-91419249D01*
X125790267Y-91459355D01*
X125808448Y-91493367D01*
X125821726Y-91517302D01*
X125827517Y-91526711D01*
X125835281Y-91541944D01*
X125844873Y-91567492D01*
X125847585Y-91575884D01*
X125858330Y-91605889D01*
X125869569Y-91630691D01*
X125871747Y-91634500D01*
X125884166Y-91660172D01*
X125899785Y-91700627D01*
X125917313Y-91751635D01*
X125935455Y-91808962D01*
X125952921Y-91868379D01*
X125968417Y-91925653D01*
X125980651Y-91976553D01*
X125988127Y-92015500D01*
X125993729Y-92059233D01*
X125999375Y-92115609D01*
X126004847Y-92180933D01*
X126009928Y-92251513D01*
X126014402Y-92323653D01*
X126018053Y-92393661D01*
X126020662Y-92457843D01*
X126022014Y-92512504D01*
X126021892Y-92553952D01*
X126020838Y-92572890D01*
X126012893Y-92641307D01*
X126003526Y-92706488D01*
X125993521Y-92763664D01*
X125983666Y-92808066D01*
X125979854Y-92821461D01*
X125969746Y-92859770D01*
X125961278Y-92902100D01*
X125959430Y-92914269D01*
X125953080Y-92943625D01*
X125942087Y-92978935D01*
X125928563Y-93014882D01*
X125914619Y-93046151D01*
X125902367Y-93067423D01*
X125896217Y-93073412D01*
X125890449Y-93083285D01*
X125880229Y-93107746D01*
X125867145Y-93142800D01*
X125856437Y-93173546D01*
X125823500Y-93270846D01*
X125654904Y-93270846D01*
X125599967Y-93270658D01*
X125552520Y-93270137D01*
X125515711Y-93269347D01*
X125492690Y-93268351D01*
X125486307Y-93267419D01*
X125490752Y-93248480D01*
X125501829Y-93220443D01*
X125516157Y-93190984D01*
X125529994Y-93168269D01*
X125546485Y-93141643D01*
X125559873Y-93112927D01*
X125567860Y-93088046D01*
X125568146Y-93072929D01*
X125567387Y-93071874D01*
X125568137Y-93061004D01*
X125574524Y-93036951D01*
X125584840Y-93004639D01*
X125597377Y-92968991D01*
X125610425Y-92934929D01*
X125622277Y-92907376D01*
X125628866Y-92894730D01*
X125636874Y-92874094D01*
X125644392Y-92842603D01*
X125647795Y-92821658D01*
X125654543Y-92782740D01*
X125663664Y-92744824D01*
X125668264Y-92730065D01*
X125676791Y-92695323D01*
X125681417Y-92655907D01*
X125681692Y-92645845D01*
X125684029Y-92610333D01*
X125689873Y-92577453D01*
X125692311Y-92569222D01*
X125695104Y-92549681D01*
X125696349Y-92514088D01*
X125696193Y-92465859D01*
X125694789Y-92408406D01*
X125692285Y-92345144D01*
X125688831Y-92279485D01*
X125684578Y-92214845D01*
X125679675Y-92154635D01*
X125674271Y-92102271D01*
X125670571Y-92074115D01*
X125657030Y-92008830D01*
X125634647Y-91931399D01*
X125605194Y-91846081D01*
X125570441Y-91757134D01*
X125532157Y-91668818D01*
X125492114Y-91585392D01*
X125452080Y-91511116D01*
X125413828Y-91450248D01*
X125407676Y-91441604D01*
X125334320Y-91344007D01*
X125267273Y-91261927D01*
X125204599Y-91193168D01*
X125144361Y-91135533D01*
X125117753Y-91112822D01*
X125076139Y-91078420D01*
X125035278Y-91044324D01*
X125000118Y-91014680D01*
X124977334Y-90995145D01*
X124940601Y-90967735D01*
X124885923Y-90933810D01*
X124813690Y-90893596D01*
X124724297Y-90847318D01*
X124685230Y-90827854D01*
X124645896Y-90810715D01*
X124604062Y-90795889D01*
X124582654Y-90789935D01*
X124544262Y-90778991D01*
X124506144Y-90765115D01*
X124494730Y-90760108D01*
X124467394Y-90750145D01*
X124427599Y-90739203D01*
X124382227Y-90729090D01*
X124362846Y-90725469D01*
X124314782Y-90717061D01*
X124266892Y-90708663D01*
X124227232Y-90701689D01*
X124216307Y-90699761D01*
X124159723Y-90692385D01*
X124090267Y-90687307D01*
X124014486Y-90684667D01*
X123938927Y-90684609D01*
X123870136Y-90687272D01*
X123825538Y-90691312D01*
X123759530Y-90700222D01*
X123702728Y-90709763D01*
X123647094Y-90721538D01*
X123584586Y-90737152D01*
X123552000Y-90745878D01*
X123507737Y-90757819D01*
X123464755Y-90769279D01*
X123430896Y-90778173D01*
X123425000Y-90779692D01*
X123382422Y-90793483D01*
X123328223Y-90815263D01*
X123267331Y-90842643D01*
X123204678Y-90873232D01*
X123145194Y-90904639D01*
X123093809Y-90934474D01*
X123061159Y-90956101D01*
X122964452Y-91028039D01*
X122882291Y-91093237D01*
X122811965Y-91154116D01*
X122750765Y-91213097D01*
X122695978Y-91272602D01*
X122663918Y-91310976D01*
X122626701Y-91358619D01*
X122590840Y-91407185D01*
X122559656Y-91451995D01*
X122536468Y-91488370D01*
X122530337Y-91499209D01*
X122509507Y-91536545D01*
X122488600Y-91571339D01*
X122471979Y-91596342D01*
X122471333Y-91597213D01*
X122456552Y-91618389D01*
X122448546Y-91632607D01*
X122448077Y-91634463D01*
X122444213Y-91645705D01*
X122434020Y-91669680D01*
X122419589Y-91701492D01*
X122417513Y-91705942D01*
X122392309Y-91760024D01*
X122374086Y-91799913D01*
X122361447Y-91829070D01*
X122352993Y-91850950D01*
X122347327Y-91869014D01*
X122343050Y-91886719D01*
X122341536Y-91893888D01*
X122326789Y-91963585D01*
X122314111Y-92020142D01*
X122303912Y-92061837D01*
X122296603Y-92086947D01*
X122294046Y-92092937D01*
X122289495Y-92109961D01*
X122285626Y-92143114D01*
X122282534Y-92188997D01*
X122280317Y-92244211D01*
X122279069Y-92305354D01*
X122278887Y-92369027D01*
X122279867Y-92431831D01*
X122282104Y-92490364D01*
X122282583Y-92499077D01*
X122287044Y-92568668D01*
X122292013Y-92624474D01*
X122298438Y-92672246D01*
X122307268Y-92717733D01*
X122319450Y-92766683D01*
X122335934Y-92824846D01*
X122336793Y-92827776D01*
X122347588Y-92866646D01*
X122355741Y-92899988D01*
X122359892Y-92922101D01*
X122360154Y-92925737D01*
X122365575Y-92948437D01*
X122373391Y-92963384D01*
X122382957Y-92982097D01*
X122395525Y-93012974D01*
X122408442Y-93049476D01*
X122408954Y-93051038D01*
X122425699Y-93096484D01*
X122446416Y-93144773D01*
X122462774Y-93178038D01*
X122495561Y-93238862D01*
X122520754Y-93285014D01*
X122539871Y-93319107D01*
X122554433Y-93343753D01*
X122565959Y-93361561D01*
X122575968Y-93375145D01*
X122581157Y-93381499D01*
X122596623Y-93403665D01*
X122604223Y-93421971D01*
X122604384Y-93423903D01*
X122610764Y-93438938D01*
X122628372Y-93465109D01*
X122654908Y-93499452D01*
X122688075Y-93539005D01*
X122725575Y-93580802D01*
X122728572Y-93584024D01*
X122748058Y-93607007D01*
X122755540Y-93624134D01*
X122753652Y-93642488D01*
X122752202Y-93647524D01*
X122742459Y-93687467D01*
X122732830Y-93741273D01*
X122724182Y-93803283D01*
X122717380Y-93867835D01*
X122716057Y-93883865D01*
X122712392Y-93920756D01*
X122708074Y-93948769D01*
X122703861Y-93963363D01*
X122702587Y-93964461D01*
X122693111Y-93958045D01*
X122672809Y-93940615D01*
X122644748Y-93914899D01*
X122614752Y-93886305D01*
X122582293Y-93855863D01*
X122554639Y-93831849D01*
X122534854Y-93816795D01*
X122526197Y-93813058D01*
X122517092Y-93808011D01*
X122498485Y-93790446D01*
X122472912Y-93763237D01*
X122442908Y-93729257D01*
X122411005Y-93691380D01*
X122379740Y-93652481D01*
X122351646Y-93615433D01*
X122350384Y-93613700D01*
X122327520Y-93582267D01*
X122305860Y-93552548D01*
X122295539Y-93538417D01*
X122272918Y-93503922D01*
X122245069Y-93456056D01*
X122214349Y-93399451D01*
X122183118Y-93338739D01*
X122153736Y-93278555D01*
X122128561Y-93223531D01*
X122109953Y-93178300D01*
X122104903Y-93164066D01*
X122091045Y-93125235D01*
X122076304Y-93088693D01*
X122065615Y-93065837D01*
X122053784Y-93039194D01*
X122047740Y-93017058D01*
X122047538Y-93014031D01*
X122044851Y-92996837D01*
X122037457Y-92964752D01*
X122026360Y-92921568D01*
X122012563Y-92871081D01*
X121997068Y-92817084D01*
X121983727Y-92772615D01*
X121975178Y-92733065D01*
X121968222Y-92677604D01*
X121962865Y-92609601D01*
X121959112Y-92532422D01*
X121956967Y-92449435D01*
X121956436Y-92364008D01*
X121957522Y-92279508D01*
X121960232Y-92199302D01*
X121964569Y-92126759D01*
X121970538Y-92065246D01*
X121978145Y-92018130D01*
X121982620Y-92000846D01*
X121991580Y-91969347D01*
X122002292Y-91927266D01*
X122012586Y-91883164D01*
X122013562Y-91878730D01*
X122030315Y-91807572D01*
X122046547Y-91749156D01*
X122061550Y-91705840D01*
X122072372Y-91683346D01*
X122083676Y-91660463D01*
X122094707Y-91631493D01*
X122095313Y-91629615D01*
X122106322Y-91600460D01*
X122122045Y-91564898D01*
X122130594Y-91547363D01*
X122144191Y-91518822D01*
X122153094Y-91496752D01*
X122155094Y-91488748D01*
X122160829Y-91475659D01*
X122175433Y-91453506D01*
X122187706Y-91437295D01*
X122209369Y-91406718D01*
X122233678Y-91367456D01*
X122253273Y-91331962D01*
X122269983Y-91303803D01*
X122296562Y-91264276D01*
X122330390Y-91217039D01*
X122368848Y-91165751D01*
X122409315Y-91114069D01*
X122409391Y-91113974D01*
X122455564Y-91057050D01*
X122494073Y-91011698D01*
X122528957Y-90973843D01*
X122564250Y-90939410D01*
X122603992Y-90904324D01*
X122652218Y-90864509D01*
X122673441Y-90847426D01*
X122720392Y-90810057D01*
X122764055Y-90775787D01*
X122801371Y-90746980D01*
X122829282Y-90726000D01*
X122843730Y-90715828D01*
X122871195Y-90697313D01*
X122901609Y-90675336D01*
X122907230Y-90671084D01*
X122933540Y-90653070D01*
X122969480Y-90631096D01*
X123006779Y-90610188D01*
X123041028Y-90591972D01*
X123070313Y-90576387D01*
X123088785Y-90566546D01*
X123089818Y-90565995D01*
X123139863Y-90540850D01*
X123192106Y-90518114D01*
X123250126Y-90496530D01*
X123317502Y-90474838D01*
X123397814Y-90451782D01*
X123468961Y-90432768D01*
X123513502Y-90420899D01*
X123553933Y-90409705D01*
X123584567Y-90400781D01*
X123595961Y-90397151D01*
X123637352Y-90386907D01*
X123694217Y-90378605D01*
X123763205Y-90372249D01*
X123840963Y-90367842D01*
X123924138Y-90365388D01*
X124009378Y-90364891D01*
X124093330Y-90366354D01*
G36*
X128567638Y-90366354D02*
G01*
X128646949Y-90369781D01*
X128718267Y-90375176D01*
X128778239Y-90382541D01*
X128823513Y-90391882D01*
X128837154Y-90396323D01*
X128858032Y-90402098D01*
X128891937Y-90409164D01*
X128932528Y-90416236D01*
X128944615Y-90418100D01*
X128990689Y-90426928D01*
X129036380Y-90438895D01*
X129072875Y-90451641D01*
X129077331Y-90453623D01*
X129116345Y-90469207D01*
X129158124Y-90482139D01*
X129175023Y-90486053D01*
X129204366Y-90494723D01*
X129244412Y-90510508D01*
X129288911Y-90530815D01*
X129315846Y-90544460D01*
X129365784Y-90570700D01*
X129420310Y-90599070D01*
X129470443Y-90624906D01*
X129488399Y-90634068D01*
X129532338Y-90659097D01*
X129582485Y-90691815D01*
X129630623Y-90726729D01*
X129649592Y-90741818D01*
X129692915Y-90777552D01*
X129743723Y-90819414D01*
X129794400Y-90861130D01*
X129822743Y-90884441D01*
X129866762Y-90924039D01*
X129917691Y-90975313D01*
X129971534Y-91033728D01*
X130024293Y-91094749D01*
X130071971Y-91153843D01*
X130110571Y-91206474D01*
X130122252Y-91224192D01*
X130140720Y-91251604D01*
X130162741Y-91281976D01*
X130167091Y-91287692D01*
X130182574Y-91310720D01*
X130203595Y-91345896D01*
X130227031Y-91387853D01*
X130243648Y-91419249D01*
X130264575Y-91459355D01*
X130282755Y-91493367D01*
X130296033Y-91517302D01*
X130301824Y-91526711D01*
X130309588Y-91541944D01*
X130319181Y-91567492D01*
X130321892Y-91575884D01*
X130332638Y-91605889D01*
X130343877Y-91630691D01*
X130346054Y-91634500D01*
X130358473Y-91660172D01*
X130374093Y-91700627D01*
X130391620Y-91751635D01*
X130409763Y-91808962D01*
X130427229Y-91868379D01*
X130442725Y-91925653D01*
X130454958Y-91976553D01*
X130462435Y-92015500D01*
X130468037Y-92059233D01*
X130473682Y-92115609D01*
X130479154Y-92180933D01*
X130484236Y-92251513D01*
X130488710Y-92323653D01*
X130492360Y-92393661D01*
X130494970Y-92457843D01*
X130496322Y-92512504D01*
X130496200Y-92553952D01*
X130495145Y-92572890D01*
X130488563Y-92630568D01*
X130480828Y-92687403D01*
X130472677Y-92738760D01*
X130464845Y-92780007D01*
X130458068Y-92806511D01*
X130457967Y-92806807D01*
X130451273Y-92830812D01*
X130443090Y-92866745D01*
X130435079Y-92907249D01*
X130434338Y-92911344D01*
X130426035Y-92950650D01*
X130416586Y-92984862D01*
X130407868Y-93007304D01*
X130406869Y-93009036D01*
X130398490Y-93026569D01*
X130385639Y-93058338D01*
X130369982Y-93100029D01*
X130353186Y-93147330D01*
X130351023Y-93153615D01*
X130333505Y-93202210D01*
X130315968Y-93246528D01*
X130300346Y-93281940D01*
X130288573Y-93303819D01*
X130287717Y-93305038D01*
X130270858Y-93331932D01*
X130259076Y-93357384D01*
X130258624Y-93358769D01*
X130248397Y-93382912D01*
X130232540Y-93411564D01*
X130214151Y-93440149D01*
X130196331Y-93464094D01*
X130182179Y-93478822D01*
X130175777Y-93481032D01*
X130165565Y-93484646D01*
X130153277Y-93501130D01*
X130152527Y-93502546D01*
X130142209Y-93518536D01*
X130122703Y-93545693D01*
X130097100Y-93579988D01*
X130068496Y-93617394D01*
X130039982Y-93653882D01*
X130014652Y-93685423D01*
X129995600Y-93707989D01*
X129990610Y-93713414D01*
X129985045Y-93708835D01*
X129977798Y-93689263D01*
X129970601Y-93659683D01*
X129957387Y-93612966D01*
X129937061Y-93562616D01*
X129912557Y-93514472D01*
X129886812Y-93474376D01*
X129865332Y-93450275D01*
X129840454Y-93428898D01*
X129861743Y-93401160D01*
X129907774Y-93339451D01*
X129941161Y-93290494D01*
X129962710Y-93252866D01*
X129973226Y-93225146D01*
X129973514Y-93205912D01*
X129973081Y-93204588D01*
X129975597Y-93189405D01*
X129987467Y-93167138D01*
X129992058Y-93160627D01*
X130004834Y-93138626D01*
X130021315Y-93103266D01*
X130039194Y-93059781D01*
X130053279Y-93021730D01*
X130069348Y-92977176D01*
X130084283Y-92937968D01*
X130096296Y-92908675D01*
X130103026Y-92894730D01*
X130111118Y-92874093D01*
X130118689Y-92842601D01*
X130122103Y-92821658D01*
X130128851Y-92782740D01*
X130137972Y-92744824D01*
X130142571Y-92730065D01*
X130151099Y-92695323D01*
X130155725Y-92655907D01*
X130156000Y-92645845D01*
X130158337Y-92610333D01*
X130164180Y-92577453D01*
X130166619Y-92569222D01*
X130169412Y-92549681D01*
X130170656Y-92514088D01*
X130170501Y-92465859D01*
X130169097Y-92408406D01*
X130166593Y-92345144D01*
X130163139Y-92279485D01*
X130158885Y-92214845D01*
X130153982Y-92154635D01*
X130148579Y-92102271D01*
X130144878Y-92074115D01*
X130131337Y-92008830D01*
X130108955Y-91931399D01*
X130079502Y-91846081D01*
X130044749Y-91757134D01*
X130006465Y-91668818D01*
X129966421Y-91585392D01*
X129926388Y-91511116D01*
X129888135Y-91450248D01*
X129881984Y-91441604D01*
X129808628Y-91344007D01*
X129741581Y-91261927D01*
X129678907Y-91193168D01*
X129618669Y-91135533D01*
X129592060Y-91112822D01*
X129550447Y-91078420D01*
X129509585Y-91044324D01*
X129474425Y-91014680D01*
X129451642Y-90995145D01*
X129414909Y-90967735D01*
X129360230Y-90933810D01*
X129287998Y-90893596D01*
X129198604Y-90847318D01*
X129159538Y-90827854D01*
X129120204Y-90810715D01*
X129078370Y-90795889D01*
X129056961Y-90789935D01*
X129018570Y-90778991D01*
X128980452Y-90765115D01*
X128969038Y-90760108D01*
X128941702Y-90750145D01*
X128901907Y-90739203D01*
X128856535Y-90729090D01*
X128837154Y-90725469D01*
X128789089Y-90717061D01*
X128741200Y-90708663D01*
X128701539Y-90701689D01*
X128690615Y-90699761D01*
X128634031Y-90692385D01*
X128564575Y-90687307D01*
X128488794Y-90684667D01*
X128413234Y-90684609D01*
X128344443Y-90687272D01*
X128299846Y-90691312D01*
X128233837Y-90700222D01*
X128177036Y-90709763D01*
X128121402Y-90721538D01*
X128058894Y-90737152D01*
X128026307Y-90745878D01*
X127982045Y-90757819D01*
X127939063Y-90769279D01*
X127905204Y-90778173D01*
X127899307Y-90779692D01*
X127856730Y-90793483D01*
X127802530Y-90815263D01*
X127741639Y-90842643D01*
X127678986Y-90873232D01*
X127619502Y-90904639D01*
X127568117Y-90934474D01*
X127535467Y-90956101D01*
X127438760Y-91028039D01*
X127356599Y-91093237D01*
X127286273Y-91154116D01*
X127225072Y-91213097D01*
X127170286Y-91272602D01*
X127138226Y-91310976D01*
X127101009Y-91358619D01*
X127065148Y-91407185D01*
X127033963Y-91451995D01*
X127010776Y-91488370D01*
X127004644Y-91499209D01*
X126983815Y-91536545D01*
X126962908Y-91571339D01*
X126946287Y-91596342D01*
X126945641Y-91597213D01*
X126930860Y-91618389D01*
X126922854Y-91632607D01*
X126922384Y-91634463D01*
X126918521Y-91645705D01*
X126908327Y-91669680D01*
X126893896Y-91701492D01*
X126891821Y-91705942D01*
X126866617Y-91760024D01*
X126848394Y-91799913D01*
X126835754Y-91829070D01*
X126827301Y-91850950D01*
X126821634Y-91869014D01*
X126817358Y-91886719D01*
X126815844Y-91893888D01*
X126801097Y-91963585D01*
X126788418Y-92020142D01*
X126778219Y-92061837D01*
X126770911Y-92086947D01*
X126768353Y-92092937D01*
X126763802Y-92109961D01*
X126759933Y-92143114D01*
X126756842Y-92188997D01*
X126754624Y-92244211D01*
X126753377Y-92305354D01*
X126753195Y-92369027D01*
X126754174Y-92431831D01*
X126756412Y-92490364D01*
X126756891Y-92499077D01*
X126761352Y-92568668D01*
X126766320Y-92624474D01*
X126772746Y-92672246D01*
X126781575Y-92717733D01*
X126793758Y-92766683D01*
X126810241Y-92824846D01*
X126811100Y-92827776D01*
X126821896Y-92866646D01*
X126830049Y-92899988D01*
X126834199Y-92922101D01*
X126834461Y-92925737D01*
X126839890Y-92948427D01*
X126847725Y-92963384D01*
X126863907Y-92995202D01*
X126877946Y-93037198D01*
X126886846Y-93080031D01*
X126887788Y-93088321D01*
X126893824Y-93112018D01*
X126907199Y-93146248D01*
X126925358Y-93184690D01*
X126931239Y-93195880D01*
X126971661Y-93270846D01*
X126806492Y-93270846D01*
X126743529Y-93270922D01*
X126696999Y-93270078D01*
X126663806Y-93266703D01*
X126640856Y-93259188D01*
X126625055Y-93245922D01*
X126613309Y-93225295D01*
X126602523Y-93195698D01*
X126590574Y-93158500D01*
X126577222Y-93122688D01*
X126563098Y-93093136D01*
X126551141Y-93075945D01*
X126550583Y-93075461D01*
X126535588Y-93055241D01*
X126526796Y-93031500D01*
X126520586Y-93004550D01*
X126510510Y-92964360D01*
X126498041Y-92916481D01*
X126484652Y-92866466D01*
X126471817Y-92819869D01*
X126461010Y-92782243D01*
X126458100Y-92772615D01*
X126449536Y-92733152D01*
X126442566Y-92677758D01*
X126437196Y-92609801D01*
X126433430Y-92532651D01*
X126431275Y-92449677D01*
X126430735Y-92364248D01*
X126431814Y-92279733D01*
X126434519Y-92199501D01*
X126438855Y-92126921D01*
X126444826Y-92065363D01*
X126452437Y-92018196D01*
X126456927Y-92000846D01*
X126465888Y-91969347D01*
X126476599Y-91927266D01*
X126486894Y-91883164D01*
X126487869Y-91878730D01*
X126504622Y-91807572D01*
X126520855Y-91749156D01*
X126535857Y-91705840D01*
X126546680Y-91683346D01*
X126557984Y-91660463D01*
X126569015Y-91631493D01*
X126569621Y-91629615D01*
X126580630Y-91600460D01*
X126596353Y-91564898D01*
X126604902Y-91547363D01*
X126618499Y-91518822D01*
X126627401Y-91496752D01*
X126629402Y-91488748D01*
X126635137Y-91475659D01*
X126649741Y-91453506D01*
X126662014Y-91437295D01*
X126683677Y-91406718D01*
X126707985Y-91367456D01*
X126727580Y-91331962D01*
X126744290Y-91303803D01*
X126770869Y-91264276D01*
X126804698Y-91217039D01*
X126843156Y-91165751D01*
X126883623Y-91114069D01*
X126883699Y-91113974D01*
X126929872Y-91057050D01*
X126968381Y-91011698D01*
X127003264Y-90973843D01*
X127038558Y-90939410D01*
X127078300Y-90904324D01*
X127126526Y-90864509D01*
X127147749Y-90847426D01*
X127194699Y-90810057D01*
X127238362Y-90775787D01*
X127275679Y-90746980D01*
X127303590Y-90726000D01*
X127318038Y-90715828D01*
X127345503Y-90697313D01*
X127375917Y-90675336D01*
X127381538Y-90671084D01*
X127407848Y-90653070D01*
X127443788Y-90631096D01*
X127481087Y-90610188D01*
X127515336Y-90591972D01*
X127544621Y-90576387D01*
X127563093Y-90566546D01*
X127564126Y-90565995D01*
X127614171Y-90540850D01*
X127666414Y-90518114D01*
X127724433Y-90496530D01*
X127791810Y-90474838D01*
X127872122Y-90451782D01*
X127943269Y-90432768D01*
X127987810Y-90420899D01*
X128028241Y-90409705D01*
X128058875Y-90400781D01*
X128070269Y-90397151D01*
X128111659Y-90386907D01*
X128168525Y-90378605D01*
X128237513Y-90372249D01*
X128315271Y-90367842D01*
X128398446Y-90365388D01*
X128483686Y-90364891D01*
X128567638Y-90366354D01*
G37*
X128567638Y-90366354D02*
X128646949Y-90369781D01*
X128718267Y-90375176D01*
X128778239Y-90382541D01*
X128823513Y-90391882D01*
X128837154Y-90396323D01*
X128858032Y-90402098D01*
X128891937Y-90409164D01*
X128932528Y-90416236D01*
X128944615Y-90418100D01*
X128990689Y-90426928D01*
X129036380Y-90438895D01*
X129072875Y-90451641D01*
X129077331Y-90453623D01*
X129116345Y-90469207D01*
X129158124Y-90482139D01*
X129175023Y-90486053D01*
X129204366Y-90494723D01*
X129244412Y-90510508D01*
X129288911Y-90530815D01*
X129315846Y-90544460D01*
X129365784Y-90570700D01*
X129420310Y-90599070D01*
X129470443Y-90624906D01*
X129488399Y-90634068D01*
X129532338Y-90659097D01*
X129582485Y-90691815D01*
X129630623Y-90726729D01*
X129649592Y-90741818D01*
X129692915Y-90777552D01*
X129743723Y-90819414D01*
X129794400Y-90861130D01*
X129822743Y-90884441D01*
X129866762Y-90924039D01*
X129917691Y-90975313D01*
X129971534Y-91033728D01*
X130024293Y-91094749D01*
X130071971Y-91153843D01*
X130110571Y-91206474D01*
X130122252Y-91224192D01*
X130140720Y-91251604D01*
X130162741Y-91281976D01*
X130167091Y-91287692D01*
X130182574Y-91310720D01*
X130203595Y-91345896D01*
X130227031Y-91387853D01*
X130243648Y-91419249D01*
X130264575Y-91459355D01*
X130282755Y-91493367D01*
X130296033Y-91517302D01*
X130301824Y-91526711D01*
X130309588Y-91541944D01*
X130319181Y-91567492D01*
X130321892Y-91575884D01*
X130332638Y-91605889D01*
X130343877Y-91630691D01*
X130346054Y-91634500D01*
X130358473Y-91660172D01*
X130374093Y-91700627D01*
X130391620Y-91751635D01*
X130409763Y-91808962D01*
X130427229Y-91868379D01*
X130442725Y-91925653D01*
X130454958Y-91976553D01*
X130462435Y-92015500D01*
X130468037Y-92059233D01*
X130473682Y-92115609D01*
X130479154Y-92180933D01*
X130484236Y-92251513D01*
X130488710Y-92323653D01*
X130492360Y-92393661D01*
X130494970Y-92457843D01*
X130496322Y-92512504D01*
X130496200Y-92553952D01*
X130495145Y-92572890D01*
X130488563Y-92630568D01*
X130480828Y-92687403D01*
X130472677Y-92738760D01*
X130464845Y-92780007D01*
X130458068Y-92806511D01*
X130457967Y-92806807D01*
X130451273Y-92830812D01*
X130443090Y-92866745D01*
X130435079Y-92907249D01*
X130434338Y-92911344D01*
X130426035Y-92950650D01*
X130416586Y-92984862D01*
X130407868Y-93007304D01*
X130406869Y-93009036D01*
X130398490Y-93026569D01*
X130385639Y-93058338D01*
X130369982Y-93100029D01*
X130353186Y-93147330D01*
X130351023Y-93153615D01*
X130333505Y-93202210D01*
X130315968Y-93246528D01*
X130300346Y-93281940D01*
X130288573Y-93303819D01*
X130287717Y-93305038D01*
X130270858Y-93331932D01*
X130259076Y-93357384D01*
X130258624Y-93358769D01*
X130248397Y-93382912D01*
X130232540Y-93411564D01*
X130214151Y-93440149D01*
X130196331Y-93464094D01*
X130182179Y-93478822D01*
X130175777Y-93481032D01*
X130165565Y-93484646D01*
X130153277Y-93501130D01*
X130152527Y-93502546D01*
X130142209Y-93518536D01*
X130122703Y-93545693D01*
X130097100Y-93579988D01*
X130068496Y-93617394D01*
X130039982Y-93653882D01*
X130014652Y-93685423D01*
X129995600Y-93707989D01*
X129990610Y-93713414D01*
X129985045Y-93708835D01*
X129977798Y-93689263D01*
X129970601Y-93659683D01*
X129957387Y-93612966D01*
X129937061Y-93562616D01*
X129912557Y-93514472D01*
X129886812Y-93474376D01*
X129865332Y-93450275D01*
X129840454Y-93428898D01*
X129861743Y-93401160D01*
X129907774Y-93339451D01*
X129941161Y-93290494D01*
X129962710Y-93252866D01*
X129973226Y-93225146D01*
X129973514Y-93205912D01*
X129973081Y-93204588D01*
X129975597Y-93189405D01*
X129987467Y-93167138D01*
X129992058Y-93160627D01*
X130004834Y-93138626D01*
X130021315Y-93103266D01*
X130039194Y-93059781D01*
X130053279Y-93021730D01*
X130069348Y-92977176D01*
X130084283Y-92937968D01*
X130096296Y-92908675D01*
X130103026Y-92894730D01*
X130111118Y-92874093D01*
X130118689Y-92842601D01*
X130122103Y-92821658D01*
X130128851Y-92782740D01*
X130137972Y-92744824D01*
X130142571Y-92730065D01*
X130151099Y-92695323D01*
X130155725Y-92655907D01*
X130156000Y-92645845D01*
X130158337Y-92610333D01*
X130164180Y-92577453D01*
X130166619Y-92569222D01*
X130169412Y-92549681D01*
X130170656Y-92514088D01*
X130170501Y-92465859D01*
X130169097Y-92408406D01*
X130166593Y-92345144D01*
X130163139Y-92279485D01*
X130158885Y-92214845D01*
X130153982Y-92154635D01*
X130148579Y-92102271D01*
X130144878Y-92074115D01*
X130131337Y-92008830D01*
X130108955Y-91931399D01*
X130079502Y-91846081D01*
X130044749Y-91757134D01*
X130006465Y-91668818D01*
X129966421Y-91585392D01*
X129926388Y-91511116D01*
X129888135Y-91450248D01*
X129881984Y-91441604D01*
X129808628Y-91344007D01*
X129741581Y-91261927D01*
X129678907Y-91193168D01*
X129618669Y-91135533D01*
X129592060Y-91112822D01*
X129550447Y-91078420D01*
X129509585Y-91044324D01*
X129474425Y-91014680D01*
X129451642Y-90995145D01*
X129414909Y-90967735D01*
X129360230Y-90933810D01*
X129287998Y-90893596D01*
X129198604Y-90847318D01*
X129159538Y-90827854D01*
X129120204Y-90810715D01*
X129078370Y-90795889D01*
X129056961Y-90789935D01*
X129018570Y-90778991D01*
X128980452Y-90765115D01*
X128969038Y-90760108D01*
X128941702Y-90750145D01*
X128901907Y-90739203D01*
X128856535Y-90729090D01*
X128837154Y-90725469D01*
X128789089Y-90717061D01*
X128741200Y-90708663D01*
X128701539Y-90701689D01*
X128690615Y-90699761D01*
X128634031Y-90692385D01*
X128564575Y-90687307D01*
X128488794Y-90684667D01*
X128413234Y-90684609D01*
X128344443Y-90687272D01*
X128299846Y-90691312D01*
X128233837Y-90700222D01*
X128177036Y-90709763D01*
X128121402Y-90721538D01*
X128058894Y-90737152D01*
X128026307Y-90745878D01*
X127982045Y-90757819D01*
X127939063Y-90769279D01*
X127905204Y-90778173D01*
X127899307Y-90779692D01*
X127856730Y-90793483D01*
X127802530Y-90815263D01*
X127741639Y-90842643D01*
X127678986Y-90873232D01*
X127619502Y-90904639D01*
X127568117Y-90934474D01*
X127535467Y-90956101D01*
X127438760Y-91028039D01*
X127356599Y-91093237D01*
X127286273Y-91154116D01*
X127225072Y-91213097D01*
X127170286Y-91272602D01*
X127138226Y-91310976D01*
X127101009Y-91358619D01*
X127065148Y-91407185D01*
X127033963Y-91451995D01*
X127010776Y-91488370D01*
X127004644Y-91499209D01*
X126983815Y-91536545D01*
X126962908Y-91571339D01*
X126946287Y-91596342D01*
X126945641Y-91597213D01*
X126930860Y-91618389D01*
X126922854Y-91632607D01*
X126922384Y-91634463D01*
X126918521Y-91645705D01*
X126908327Y-91669680D01*
X126893896Y-91701492D01*
X126891821Y-91705942D01*
X126866617Y-91760024D01*
X126848394Y-91799913D01*
X126835754Y-91829070D01*
X126827301Y-91850950D01*
X126821634Y-91869014D01*
X126817358Y-91886719D01*
X126815844Y-91893888D01*
X126801097Y-91963585D01*
X126788418Y-92020142D01*
X126778219Y-92061837D01*
X126770911Y-92086947D01*
X126768353Y-92092937D01*
X126763802Y-92109961D01*
X126759933Y-92143114D01*
X126756842Y-92188997D01*
X126754624Y-92244211D01*
X126753377Y-92305354D01*
X126753195Y-92369027D01*
X126754174Y-92431831D01*
X126756412Y-92490364D01*
X126756891Y-92499077D01*
X126761352Y-92568668D01*
X126766320Y-92624474D01*
X126772746Y-92672246D01*
X126781575Y-92717733D01*
X126793758Y-92766683D01*
X126810241Y-92824846D01*
X126811100Y-92827776D01*
X126821896Y-92866646D01*
X126830049Y-92899988D01*
X126834199Y-92922101D01*
X126834461Y-92925737D01*
X126839890Y-92948427D01*
X126847725Y-92963384D01*
X126863907Y-92995202D01*
X126877946Y-93037198D01*
X126886846Y-93080031D01*
X126887788Y-93088321D01*
X126893824Y-93112018D01*
X126907199Y-93146248D01*
X126925358Y-93184690D01*
X126931239Y-93195880D01*
X126971661Y-93270846D01*
X126806492Y-93270846D01*
X126743529Y-93270922D01*
X126696999Y-93270078D01*
X126663806Y-93266703D01*
X126640856Y-93259188D01*
X126625055Y-93245922D01*
X126613309Y-93225295D01*
X126602523Y-93195698D01*
X126590574Y-93158500D01*
X126577222Y-93122688D01*
X126563098Y-93093136D01*
X126551141Y-93075945D01*
X126550583Y-93075461D01*
X126535588Y-93055241D01*
X126526796Y-93031500D01*
X126520586Y-93004550D01*
X126510510Y-92964360D01*
X126498041Y-92916481D01*
X126484652Y-92866466D01*
X126471817Y-92819869D01*
X126461010Y-92782243D01*
X126458100Y-92772615D01*
X126449536Y-92733152D01*
X126442566Y-92677758D01*
X126437196Y-92609801D01*
X126433430Y-92532651D01*
X126431275Y-92449677D01*
X126430735Y-92364248D01*
X126431814Y-92279733D01*
X126434519Y-92199501D01*
X126438855Y-92126921D01*
X126444826Y-92065363D01*
X126452437Y-92018196D01*
X126456927Y-92000846D01*
X126465888Y-91969347D01*
X126476599Y-91927266D01*
X126486894Y-91883164D01*
X126487869Y-91878730D01*
X126504622Y-91807572D01*
X126520855Y-91749156D01*
X126535857Y-91705840D01*
X126546680Y-91683346D01*
X126557984Y-91660463D01*
X126569015Y-91631493D01*
X126569621Y-91629615D01*
X126580630Y-91600460D01*
X126596353Y-91564898D01*
X126604902Y-91547363D01*
X126618499Y-91518822D01*
X126627401Y-91496752D01*
X126629402Y-91488748D01*
X126635137Y-91475659D01*
X126649741Y-91453506D01*
X126662014Y-91437295D01*
X126683677Y-91406718D01*
X126707985Y-91367456D01*
X126727580Y-91331962D01*
X126744290Y-91303803D01*
X126770869Y-91264276D01*
X126804698Y-91217039D01*
X126843156Y-91165751D01*
X126883623Y-91114069D01*
X126883699Y-91113974D01*
X126929872Y-91057050D01*
X126968381Y-91011698D01*
X127003264Y-90973843D01*
X127038558Y-90939410D01*
X127078300Y-90904324D01*
X127126526Y-90864509D01*
X127147749Y-90847426D01*
X127194699Y-90810057D01*
X127238362Y-90775787D01*
X127275679Y-90746980D01*
X127303590Y-90726000D01*
X127318038Y-90715828D01*
X127345503Y-90697313D01*
X127375917Y-90675336D01*
X127381538Y-90671084D01*
X127407848Y-90653070D01*
X127443788Y-90631096D01*
X127481087Y-90610188D01*
X127515336Y-90591972D01*
X127544621Y-90576387D01*
X127563093Y-90566546D01*
X127564126Y-90565995D01*
X127614171Y-90540850D01*
X127666414Y-90518114D01*
X127724433Y-90496530D01*
X127791810Y-90474838D01*
X127872122Y-90451782D01*
X127943269Y-90432768D01*
X127987810Y-90420899D01*
X128028241Y-90409705D01*
X128058875Y-90400781D01*
X128070269Y-90397151D01*
X128111659Y-90386907D01*
X128168525Y-90378605D01*
X128237513Y-90372249D01*
X128315271Y-90367842D01*
X128398446Y-90365388D01*
X128483686Y-90364891D01*
X128567638Y-90366354D01*
D16*
X127200000Y-84200000D02*
G75*
G03*
X127200000Y-84200000I-1000000J0D01*
G01*
X126200000Y-84600000D02*
X126200000Y-85199999D01*
X126482842Y-84482842D02*
X126907106Y-84907106D01*
X126200000Y-84599999D02*
G75*
G02*
X126482842Y-84482842I0J399999D01*
G01*
D12*
X110966666Y-96652380D02*
X110966666Y-97366666D01*
X110919047Y-97509523D01*
X110823809Y-97604761D01*
X110680952Y-97652380D01*
X110585714Y-97652380D01*
X111442857Y-97652380D02*
X111442857Y-96652380D01*
X111823809Y-96652380D01*
X111919047Y-96700000D01*
X111966666Y-96747619D01*
X112014285Y-96842857D01*
X112014285Y-96985714D01*
X111966666Y-97080952D01*
X111919047Y-97128571D01*
X111823809Y-97176190D01*
X111442857Y-97176190D01*
X112966666Y-97652380D02*
X112395238Y-97652380D01*
X112680952Y-97652380D02*
X112680952Y-96652380D01*
X112585714Y-96795238D01*
X112490476Y-96890476D01*
X112395238Y-96938095D01*
M02*
