G04 #@! TF.GenerationSoftware,KiCad,Pcbnew,5.1.10-88a1d61d58~88~ubuntu20.04.1*
G04 #@! TF.CreationDate,2021-06-30T14:36:37+02:00*
G04 #@! TF.ProjectId,hadron_board,68616472-6f6e-45f6-926f-6172642e6b69,rev?*
G04 #@! TF.SameCoordinates,Original*
G04 #@! TF.FileFunction,Copper,L1,Top*
G04 #@! TF.FilePolarity,Positive*
%FSLAX46Y46*%
G04 Gerber Fmt 4.6, Leading zero omitted, Abs format (unit mm)*
G04 Created by KiCad (PCBNEW 5.1.10-88a1d61d58~88~ubuntu20.04.1) date 2021-06-30 14:36:37*
%MOMM*%
%LPD*%
G01*
G04 APERTURE LIST*
G04 #@! TA.AperFunction,SMDPad,CuDef*
%ADD10R,1.700000X2.000000*%
G04 #@! TD*
G04 #@! TA.AperFunction,SMDPad,CuDef*
%ADD11R,2.000000X0.500000*%
G04 #@! TD*
G04 #@! TA.AperFunction,SMDPad,CuDef*
%ADD12R,0.300000X1.000000*%
G04 #@! TD*
G04 #@! TA.AperFunction,SMDPad,CuDef*
%ADD13R,1.650000X1.300000*%
G04 #@! TD*
G04 #@! TA.AperFunction,ComponentPad*
%ADD14O,1.700000X1.700000*%
G04 #@! TD*
G04 #@! TA.AperFunction,ComponentPad*
%ADD15R,1.700000X1.700000*%
G04 #@! TD*
G04 #@! TA.AperFunction,SMDPad,CuDef*
%ADD16C,0.100000*%
G04 #@! TD*
G04 #@! TA.AperFunction,ComponentPad*
%ADD17C,3.000000*%
G04 #@! TD*
G04 #@! TA.AperFunction,ViaPad*
%ADD18C,0.600000*%
G04 #@! TD*
G04 #@! TA.AperFunction,Conductor*
%ADD19C,0.609600*%
G04 #@! TD*
G04 #@! TA.AperFunction,Conductor*
%ADD20C,0.304800*%
G04 #@! TD*
G04 #@! TA.AperFunction,Conductor*
%ADD21C,0.254000*%
G04 #@! TD*
G04 #@! TA.AperFunction,Conductor*
%ADD22C,0.228600*%
G04 #@! TD*
G04 #@! TA.AperFunction,Conductor*
%ADD23C,0.203200*%
G04 #@! TD*
G04 #@! TA.AperFunction,Conductor*
%ADD24C,0.200000*%
G04 #@! TD*
G04 #@! TA.AperFunction,Conductor*
%ADD25C,0.152400*%
G04 #@! TD*
G04 #@! TA.AperFunction,Conductor*
%ADD26C,0.100000*%
G04 #@! TD*
G04 APERTURE END LIST*
D10*
X139300000Y-84050000D03*
X133850000Y-84050000D03*
X139300000Y-92950000D03*
X133850000Y-92950000D03*
D11*
X133750000Y-86900000D03*
X133750000Y-87700000D03*
X133750000Y-88500000D03*
X133750000Y-89300000D03*
X133750000Y-90100000D03*
D12*
X109750000Y-80000000D03*
D13*
X107475000Y-81900000D03*
X122525000Y-81900000D03*
D12*
X110250000Y-80000000D03*
X110750000Y-80000000D03*
X111250000Y-80000000D03*
X111750000Y-80000000D03*
X112250000Y-80000000D03*
X112750000Y-80000000D03*
X113250000Y-80000000D03*
X113750000Y-80000000D03*
X114250000Y-80000000D03*
X114750000Y-80000000D03*
X115250000Y-80000000D03*
X115750000Y-80000000D03*
X116250000Y-80000000D03*
X116750000Y-80000000D03*
X117250000Y-80000000D03*
X117750000Y-80000000D03*
X118250000Y-80000000D03*
X118750000Y-80000000D03*
X119250000Y-80000000D03*
X119750000Y-80000000D03*
X120250000Y-80000000D03*
D14*
X102000000Y-93340000D03*
D15*
X102000000Y-90800000D03*
G04 #@! TA.AperFunction,SMDPad,CuDef*
D16*
G36*
X111575000Y-95100000D02*
G01*
X111075000Y-95850000D01*
X110075000Y-95850000D01*
X110075000Y-94350000D01*
X111075000Y-94350000D01*
X111575000Y-95100000D01*
G37*
G04 #@! TD.AperFunction*
G04 #@! TA.AperFunction,SMDPad,CuDef*
G36*
X112525000Y-95850000D02*
G01*
X111375000Y-95850000D01*
X111875000Y-95100000D01*
X111375000Y-94350000D01*
X112525000Y-94350000D01*
X112525000Y-95850000D01*
G37*
G04 #@! TD.AperFunction*
D17*
X102500000Y-79500000D03*
X141500000Y-79500000D03*
X102500000Y-97500000D03*
X141500000Y-97500000D03*
D18*
X112100000Y-93500000D03*
X110100000Y-92276200D03*
X110100000Y-91523800D03*
X109200000Y-92900000D03*
X114700000Y-82000000D03*
X106600000Y-92000000D03*
X106700000Y-89500000D03*
X104200000Y-90800000D03*
X104200000Y-88200000D03*
X106700000Y-87000000D03*
X106900000Y-83100000D03*
X102900000Y-84100000D03*
X104900000Y-81900000D03*
X107700000Y-80600000D03*
X112100000Y-81700000D03*
X111300000Y-85200000D03*
X110600000Y-88800000D03*
X112700000Y-86700000D03*
X117400000Y-81400000D03*
X115400000Y-78400000D03*
X105400000Y-78500000D03*
X109200000Y-79400000D03*
X117300000Y-78900000D03*
X111300000Y-91000000D03*
X139000000Y-84000000D03*
X139000000Y-93000000D03*
X101600000Y-88900000D03*
X110800000Y-92900000D03*
X107500000Y-94100000D03*
X108200000Y-96200000D03*
X126000000Y-89900000D03*
X133600000Y-86000000D03*
X131800000Y-86900000D03*
X120000000Y-81300000D03*
X119200000Y-81700000D03*
X104248465Y-85175738D03*
X103716437Y-85707766D03*
X103983937Y-86723800D03*
X103983937Y-87476200D03*
X106500000Y-87900000D03*
X106500000Y-88652403D03*
X103700000Y-89123800D03*
X103700000Y-89876200D03*
X106500000Y-90300000D03*
X106500000Y-91052403D03*
X105400000Y-94100000D03*
D19*
X118000000Y-91000000D02*
X113900000Y-95100000D01*
D20*
X112025000Y-95100000D02*
X112500000Y-95100000D01*
D19*
X113900000Y-95100000D02*
X112500000Y-95100000D01*
D21*
X112100000Y-95025000D02*
X112025000Y-95100000D01*
X112100000Y-93500000D02*
X112100000Y-95025000D01*
D19*
X132200000Y-91000000D02*
X118000000Y-91000000D01*
X133100000Y-90100000D02*
X132200000Y-91000000D01*
X133750000Y-90100000D02*
X133100000Y-90100000D01*
D22*
X110285700Y-92090500D02*
X110100000Y-92276200D01*
X113978908Y-92090500D02*
X110285700Y-92090500D01*
X116978908Y-89090500D02*
X113978908Y-92090500D01*
X132249999Y-89300000D02*
X133750000Y-89300000D01*
X116978908Y-89090500D02*
X132040499Y-89090500D01*
X132040499Y-89090500D02*
X132249999Y-89300000D01*
X110285700Y-91709500D02*
X110100000Y-91523800D01*
X113821092Y-91709500D02*
X110285700Y-91709500D01*
X116821092Y-88709500D02*
X113821092Y-91709500D01*
X132249999Y-88500000D02*
X133750000Y-88500000D01*
X132040499Y-88709500D02*
X132249999Y-88500000D01*
X116821092Y-88709500D02*
X132040499Y-88709500D01*
D23*
X115800000Y-87700000D02*
X113400000Y-90100000D01*
X113400000Y-90100000D02*
X109500000Y-90100000D01*
X109500000Y-90100000D02*
X108700000Y-90900000D01*
X108700000Y-92400000D02*
X109200000Y-92900000D01*
X108700000Y-90900000D02*
X108700000Y-92400000D01*
X132700000Y-87700000D02*
X133750000Y-87700000D01*
X115800000Y-87700000D02*
X132700000Y-87700000D01*
D22*
X109750000Y-79950000D02*
X109200000Y-79400000D01*
X109750000Y-80000000D02*
X109750000Y-79950000D01*
X109366701Y-79233299D02*
X109200000Y-79400000D01*
X111113361Y-79233299D02*
X109366701Y-79233299D01*
X111250000Y-79369938D02*
X111113361Y-79233299D01*
X111250000Y-80000000D02*
X111250000Y-79369938D01*
X112711899Y-79233299D02*
X111113361Y-79233299D01*
X112750000Y-79271400D02*
X112711899Y-79233299D01*
X112750000Y-80000000D02*
X112750000Y-79271400D01*
X114113361Y-79233299D02*
X112711899Y-79233299D01*
X114250000Y-79369938D02*
X114113361Y-79233299D01*
X114250000Y-80000000D02*
X114250000Y-79369938D01*
X114250000Y-81550000D02*
X114700000Y-82000000D01*
X114250000Y-80000000D02*
X114250000Y-81550000D01*
X115750000Y-80950000D02*
X114700000Y-82000000D01*
X115750000Y-80000000D02*
X115750000Y-80950000D01*
X112750000Y-81050000D02*
X112750000Y-80000000D01*
X112100000Y-81700000D02*
X112750000Y-81050000D01*
X115750000Y-78750000D02*
X115400000Y-78400000D01*
X115750000Y-80000000D02*
X115750000Y-78750000D01*
X117250000Y-78950000D02*
X117300000Y-78900000D01*
X117250000Y-80000000D02*
X117250000Y-78950000D01*
X117250000Y-81250000D02*
X117400000Y-81400000D01*
X117250000Y-80000000D02*
X117250000Y-81250000D01*
X118750000Y-80000000D02*
X118750000Y-81050000D01*
X118400000Y-81400000D02*
X117400000Y-81400000D01*
X118750000Y-81050000D02*
X118400000Y-81400000D01*
X118750000Y-80000000D02*
X118750000Y-79250000D01*
X118400000Y-78900000D02*
X117300000Y-78900000D01*
X118750000Y-79250000D02*
X118400000Y-78900000D01*
D23*
X119750000Y-81050000D02*
X120000000Y-81300000D01*
X119750000Y-80000000D02*
X119750000Y-81050000D01*
X119250000Y-81650000D02*
X119200000Y-81700000D01*
X119250000Y-80000000D02*
X119250000Y-81650000D01*
D22*
X104248465Y-85175738D02*
X104097437Y-85024710D01*
X104097437Y-85024710D02*
X104097437Y-81771971D01*
X107078908Y-78790500D02*
X114221092Y-78790500D01*
X104097437Y-81771971D02*
X107078908Y-78790500D01*
X114221092Y-78790500D02*
X114809500Y-79378908D01*
X114809500Y-79378908D02*
X114809500Y-79590500D01*
X114809500Y-79590500D02*
X114750000Y-79650000D01*
X114750000Y-79650000D02*
X114750000Y-80000000D01*
X115250000Y-79650000D02*
X115250000Y-80000000D01*
X103681764Y-84903721D02*
X103716437Y-84869048D01*
X103716437Y-81614155D02*
X106921092Y-78409500D01*
X103716437Y-85707766D02*
X103716437Y-85482428D01*
X103681764Y-85447755D02*
X103681764Y-84903721D01*
X103716437Y-85482428D02*
X103681764Y-85447755D01*
X106921092Y-78409500D02*
X114378908Y-78409500D01*
X103716437Y-84869048D02*
X103716437Y-81614155D01*
X114378908Y-78409500D02*
X115190500Y-79221092D01*
X115190500Y-79221092D02*
X115190500Y-79590500D01*
X115190500Y-79590500D02*
X115250000Y-79650000D01*
D24*
X110250000Y-80000000D02*
X110250000Y-80350000D01*
X110250000Y-80350000D02*
X110275000Y-80375000D01*
D22*
X110250000Y-80750001D02*
X110250000Y-80000000D01*
X110309500Y-80809501D02*
X110250000Y-80750001D01*
X110309500Y-80821092D02*
X110309500Y-80809501D01*
X110121092Y-81009500D02*
X110309500Y-80821092D01*
X105809500Y-80921092D02*
X107421092Y-79309500D01*
X105759627Y-82739750D02*
X105786862Y-82696406D01*
X105631769Y-82820089D02*
X105680086Y-82803182D01*
X105580900Y-82825821D02*
X105631769Y-82820089D01*
X104944164Y-82882702D02*
X105065565Y-82840221D01*
X104619000Y-83400196D02*
X104633401Y-83272385D01*
X104619000Y-83470645D02*
X104619000Y-83400196D01*
X104675882Y-83719857D02*
X104633401Y-83598456D01*
X104744311Y-83828762D02*
X104675882Y-83719857D01*
X104944164Y-83988139D02*
X104835259Y-83919710D01*
X105065565Y-84030620D02*
X104944164Y-83988139D01*
X104633401Y-83598456D02*
X104619000Y-83470645D01*
X106621400Y-84045021D02*
X105193376Y-84045021D01*
X106800126Y-84131091D02*
X106763929Y-84094894D01*
X106850000Y-84273621D02*
X106844268Y-84222752D01*
X105786862Y-82696406D02*
X105803769Y-82648089D01*
X106844268Y-84324489D02*
X106850000Y-84273621D01*
X106827361Y-84372806D02*
X106844268Y-84324489D01*
X106672268Y-84496489D02*
X106720585Y-84479582D01*
X106621400Y-84502221D02*
X106672268Y-84496489D01*
X106383875Y-84502221D02*
X106621400Y-84502221D01*
X105809500Y-82597221D02*
X105809500Y-80921092D01*
X104675882Y-83150984D02*
X104744311Y-83042079D01*
X106256064Y-84516621D02*
X106383875Y-84502221D01*
X106134663Y-84559102D02*
X106256064Y-84516621D01*
X105934810Y-84718479D02*
X106025758Y-84627531D01*
X105065565Y-82840221D02*
X105193376Y-82825821D01*
X106800126Y-84416150D02*
X106827361Y-84372806D01*
X106827361Y-84174435D02*
X106800126Y-84131091D01*
X106763929Y-84094894D02*
X106720585Y-84067659D01*
X105680086Y-82803182D02*
X105723430Y-82775947D01*
X105193376Y-84045021D02*
X105065565Y-84030620D01*
X106672268Y-84050752D02*
X106621400Y-84045021D01*
X105823900Y-84948785D02*
X105866381Y-84827384D01*
X106720585Y-84479582D02*
X106763929Y-84452347D01*
X105193376Y-82825821D02*
X105580900Y-82825821D01*
X104197521Y-86723800D02*
X105809500Y-85111821D01*
X105803769Y-82648089D02*
X105809500Y-82597221D01*
X106844268Y-84222752D02*
X106827361Y-84174435D01*
X106720585Y-84067659D02*
X106672268Y-84050752D01*
X104835259Y-82951131D02*
X104944164Y-82882702D01*
X105723430Y-82775947D02*
X105759627Y-82739750D01*
X106025758Y-84627531D02*
X106134663Y-84559102D01*
X107421092Y-79309500D02*
X108278908Y-79309500D01*
X104744311Y-83042079D02*
X104835259Y-82951131D01*
X105866381Y-84827384D02*
X105934810Y-84718479D01*
X104633401Y-83272385D02*
X104675882Y-83150984D01*
X106763929Y-84452347D02*
X106800126Y-84416150D01*
X105809500Y-85076596D02*
X105823900Y-84948785D01*
X103983937Y-86723800D02*
X104197521Y-86723800D01*
X104835259Y-83919710D02*
X104744311Y-83828762D01*
X105809500Y-85111821D02*
X105809500Y-85076596D01*
X108278908Y-79309500D02*
X108890500Y-79921092D01*
X108890500Y-79921092D02*
X108890500Y-80721092D01*
X109178908Y-81009500D02*
X110121092Y-81009500D01*
X108890500Y-80721092D02*
X109178908Y-81009500D01*
D24*
X110750000Y-80000000D02*
X110750000Y-80350000D01*
X110750000Y-80350000D02*
X110725000Y-80375000D01*
D22*
X110750000Y-80750001D02*
X110750000Y-80000000D01*
X110690500Y-80809501D02*
X110750000Y-80750001D01*
X110278908Y-81390500D02*
X110690500Y-80978908D01*
X110690500Y-80978908D02*
X110690500Y-80809501D01*
X107105689Y-83880279D02*
X107014741Y-83789331D01*
X106905836Y-83720902D02*
X106784435Y-83678421D01*
X107174118Y-83989184D02*
X107105689Y-83880279D01*
X106784435Y-83678421D02*
X106656624Y-83664021D01*
X107231000Y-84308845D02*
X107231000Y-84238396D01*
X107216599Y-84436656D02*
X107231000Y-84308845D01*
X106905836Y-84826339D02*
X107014741Y-84757910D01*
X107105689Y-84666962D02*
X107174118Y-84558057D01*
X103983937Y-87476200D02*
X104169636Y-87290501D01*
X106784435Y-84868820D02*
X106905836Y-84826339D01*
X106656624Y-84883221D02*
X106784435Y-84868820D01*
X106419100Y-84883221D02*
X106656624Y-84883221D01*
X105177732Y-83212552D02*
X105228600Y-83206821D01*
X106190500Y-81078908D02*
X107578908Y-79690500D01*
X105228600Y-83664021D02*
X105177732Y-83658289D01*
X107014741Y-84757910D02*
X107105689Y-84666962D01*
X104255954Y-87290501D02*
X104550638Y-86995817D01*
X105005732Y-83486289D02*
X105000000Y-83435421D01*
X104550638Y-86909499D02*
X106190500Y-85269637D01*
X106196231Y-85060952D02*
X106213138Y-85012635D01*
X107014741Y-83789331D02*
X106905836Y-83720902D01*
X105129415Y-83229459D02*
X105177732Y-83212552D01*
X105616125Y-83206821D02*
X105743936Y-83192420D01*
X106190500Y-85111821D02*
X106196231Y-85060952D01*
X104169636Y-87290501D02*
X104255954Y-87290501D01*
X106213138Y-85012635D02*
X106240373Y-84969291D01*
X105005732Y-83384552D02*
X105022639Y-83336235D01*
X107216599Y-84110585D02*
X107174118Y-83989184D01*
X107231000Y-84238396D02*
X107216599Y-84110585D01*
X104550638Y-86995817D02*
X104550638Y-86909499D01*
X106276570Y-84933094D02*
X106319914Y-84905859D01*
X106319914Y-84905859D02*
X106368231Y-84888952D01*
X106656624Y-83664021D02*
X105228600Y-83664021D01*
X105086071Y-83256694D02*
X105129415Y-83229459D01*
X105743936Y-83192420D02*
X105865337Y-83149939D01*
X106065190Y-82990562D02*
X106133619Y-82881657D01*
X106368231Y-84888952D02*
X106419100Y-84883221D01*
X105177732Y-83658289D02*
X105129415Y-83641382D01*
X105129415Y-83641382D02*
X105086071Y-83614147D01*
X105022639Y-83534606D02*
X105005732Y-83486289D01*
X106190500Y-85269637D02*
X106190500Y-85111821D01*
X105049874Y-83577950D02*
X105022639Y-83534606D01*
X105000000Y-83435421D02*
X105005732Y-83384552D01*
X105022639Y-83336235D02*
X105049874Y-83292891D01*
X106240373Y-84969291D02*
X106276570Y-84933094D01*
X106190500Y-82632445D02*
X106190500Y-81078908D01*
X105049874Y-83292891D02*
X105086071Y-83256694D01*
X105228600Y-83206821D02*
X105616125Y-83206821D01*
X105865337Y-83149939D02*
X105974242Y-83081510D01*
X105086071Y-83614147D02*
X105049874Y-83577950D01*
X105974242Y-83081510D02*
X106065190Y-82990562D01*
X106133619Y-82881657D02*
X106176100Y-82760256D01*
X106176100Y-82760256D02*
X106190500Y-82632445D01*
X107174118Y-84558057D02*
X107216599Y-84436656D01*
X107578908Y-79690500D02*
X108121092Y-79690500D01*
X108121092Y-79690500D02*
X108509500Y-80078908D01*
X108509500Y-80078908D02*
X108509500Y-80878908D01*
X109021092Y-81390500D02*
X110278908Y-81390500D01*
X108509500Y-80878908D02*
X109021092Y-81390500D01*
X106713587Y-87900000D02*
X106500000Y-87900000D01*
X107636009Y-86977581D02*
X106713587Y-87900000D01*
X107877357Y-86816675D02*
X107761474Y-86872481D01*
X108002752Y-86788054D02*
X107877357Y-86816675D01*
X108131370Y-86788055D02*
X108002752Y-86788054D01*
X108256765Y-86816676D02*
X108131370Y-86788055D01*
X108473205Y-86952674D02*
X108372648Y-86872480D01*
X108787249Y-87258611D02*
X108747226Y-87226695D01*
X107761474Y-86872481D02*
X107660917Y-86952673D01*
X108833370Y-87280822D02*
X108787249Y-87258611D01*
X108934467Y-87292213D02*
X108883277Y-87292213D01*
X110255910Y-86041300D02*
X110215887Y-86073218D01*
X108747226Y-87226695D02*
X108473205Y-86952674D01*
X108024470Y-85789335D02*
X108071661Y-85887329D01*
X108883277Y-87292213D02*
X108833370Y-87280822D01*
X108293616Y-85131324D02*
X108139475Y-85285464D01*
X109070516Y-87226694D02*
X109030493Y-87258612D01*
X108000267Y-85683297D02*
X108024470Y-85789335D01*
X108497709Y-84995256D02*
X108399715Y-85042447D01*
X109845889Y-84848141D02*
X109817269Y-84973535D01*
X110119861Y-86106819D02*
X110068671Y-86106819D01*
X108984374Y-87280822D02*
X108934467Y-87292213D01*
X109136034Y-87090644D02*
X109124643Y-87140551D01*
X108818550Y-84995256D02*
X108712512Y-84971053D01*
X110321427Y-85905252D02*
X110310036Y-85955159D01*
X109124643Y-86989547D02*
X109136034Y-87039454D01*
X109001580Y-85110261D02*
X108916544Y-85042447D01*
X110310036Y-85955159D02*
X110287826Y-86001279D01*
X110310036Y-85804155D02*
X110321427Y-85854062D01*
X109972643Y-86073217D02*
X109932620Y-86041301D01*
X110321427Y-85854062D02*
X110321427Y-85905252D01*
X109981888Y-84631700D02*
X109901695Y-84732259D01*
X109817269Y-85102155D02*
X109845889Y-85227549D01*
X110006795Y-85468898D02*
X110255909Y-85718012D01*
X113250000Y-80000000D02*
X113250000Y-80750001D01*
X113250000Y-80750001D02*
X113309500Y-80809501D01*
X113309500Y-80809501D02*
X113309500Y-81304087D01*
X113309500Y-81304087D02*
X109981888Y-84631700D01*
X109901695Y-84732259D02*
X109845889Y-84848141D01*
X108372648Y-86872480D02*
X108256765Y-86816676D01*
X108712512Y-84971053D02*
X108603747Y-84971053D01*
X110255909Y-85718012D02*
X110287827Y-85758033D01*
X109817269Y-84973535D02*
X109817269Y-85102155D01*
X109845889Y-85227549D02*
X109901695Y-85343431D01*
X109124643Y-87140551D02*
X109102432Y-87186672D01*
X109981888Y-85443990D02*
X110006795Y-85468898D01*
X110287827Y-85758033D02*
X110310036Y-85804155D01*
X108000267Y-85574532D02*
X108000267Y-85683297D01*
X110287826Y-86001279D02*
X110255910Y-86041300D01*
X110215887Y-86073218D02*
X110169768Y-86095428D01*
X107660917Y-86952673D02*
X107636009Y-86977581D01*
X109030493Y-87258612D02*
X108984374Y-87280822D01*
X109901695Y-85343431D02*
X109981888Y-85443990D01*
X110169768Y-86095428D02*
X110119861Y-86106819D01*
X110018764Y-86095428D02*
X109972643Y-86073217D01*
X109932620Y-86041301D02*
X109001580Y-85110261D01*
X108603747Y-84971053D02*
X108497709Y-84995256D01*
X108399715Y-85042447D02*
X108314678Y-85110261D01*
X108314678Y-85110261D02*
X108293616Y-85131324D01*
X108139475Y-85285464D02*
X108071661Y-85370500D01*
X108071661Y-85370500D02*
X108024470Y-85468494D01*
X108024470Y-85468494D02*
X108000267Y-85574532D01*
X108071661Y-85887329D02*
X108139475Y-85972365D01*
X110068671Y-86106819D02*
X110018764Y-86095428D01*
X108139475Y-85972365D02*
X109070515Y-86903406D01*
X109070515Y-86903406D02*
X109102431Y-86943428D01*
X109102431Y-86943428D02*
X109124643Y-86989547D01*
X108916544Y-85042447D02*
X108818550Y-84995256D01*
X109136034Y-87039454D02*
X109136034Y-87090644D01*
X109102432Y-87186672D02*
X109070516Y-87226694D01*
X106685702Y-88466701D02*
X106500000Y-88652403D01*
X108973182Y-87685628D02*
X108844562Y-87685629D01*
X109098576Y-87657008D02*
X108973182Y-87685628D01*
X109214458Y-87601202D02*
X109098576Y-87657008D01*
X109315017Y-87521009D02*
X109214458Y-87601202D01*
X109529449Y-87129360D02*
X109500829Y-87254754D01*
X109364830Y-86658905D02*
X109445023Y-86759464D01*
X108702552Y-85368885D02*
X108673188Y-85362183D01*
X108429945Y-85724021D02*
X109364830Y-86658905D01*
X108411166Y-85557357D02*
X108398099Y-85584492D01*
X108563023Y-85400732D02*
X108429945Y-85533809D01*
X113690500Y-80809501D02*
X113690500Y-81461903D01*
X109500829Y-87254754D02*
X109445023Y-87370636D01*
X110550225Y-86285801D02*
X110500409Y-86335618D01*
X108643070Y-85362183D02*
X108613707Y-85368885D01*
X108719168Y-87657008D02*
X108603286Y-87601202D01*
X110244287Y-85159467D02*
X110276202Y-85199491D01*
X110686222Y-85689953D02*
X110714843Y-85815348D01*
X108391397Y-85613856D02*
X108391397Y-85643974D01*
X110276202Y-84876201D02*
X110244286Y-84916223D01*
X109445023Y-86759464D02*
X109500829Y-86875346D01*
X110399850Y-86415811D02*
X110283968Y-86471617D01*
X109445023Y-87370636D02*
X109364830Y-87471195D01*
X109904560Y-86471617D02*
X109788678Y-86415811D01*
X109788678Y-86415811D02*
X109688121Y-86335617D01*
X108586571Y-85381953D02*
X108563023Y-85400732D01*
X113750000Y-80750001D02*
X113690500Y-80809501D01*
X110210684Y-85012251D02*
X110210684Y-85063441D01*
X109529449Y-87000740D02*
X109529449Y-87129360D01*
X110276202Y-85199491D02*
X110550224Y-85473513D01*
X108429945Y-85533809D02*
X108411166Y-85557357D01*
X110222075Y-85113348D02*
X110244287Y-85159467D01*
X113690500Y-81461903D02*
X110276202Y-84876201D01*
X108729688Y-85381953D02*
X108702552Y-85368885D01*
X110500409Y-86335618D02*
X110399850Y-86415811D01*
X108398099Y-85584492D02*
X108391397Y-85613856D01*
X110686223Y-86069361D02*
X110630417Y-86185244D01*
X108753235Y-85400732D02*
X108729688Y-85381953D01*
X113750000Y-80000000D02*
X113750000Y-80750001D01*
X108613707Y-85368885D02*
X108586571Y-85381953D01*
X110630417Y-86185244D02*
X110550225Y-86285801D01*
X108673188Y-85362183D02*
X108643070Y-85362183D01*
X110029956Y-86500236D02*
X109904560Y-86471617D01*
X110222075Y-84962344D02*
X110210684Y-85012251D01*
X110158574Y-86500237D02*
X110029956Y-86500236D01*
X106772017Y-88466701D02*
X106685702Y-88466701D01*
X110714844Y-85943966D02*
X110686223Y-86069361D01*
X109364830Y-87471195D02*
X109315017Y-87521009D01*
X110210684Y-85063441D02*
X110222075Y-85113348D01*
X110244286Y-84916223D02*
X110222075Y-84962344D01*
X108844562Y-87685629D02*
X108719168Y-87657008D01*
X110714843Y-85815348D02*
X110714844Y-85943966D01*
X108502727Y-87521010D02*
X108228706Y-87246989D01*
X108228706Y-87246989D02*
X108188685Y-87215071D01*
X108188685Y-87215071D02*
X108142563Y-87192862D01*
X108142563Y-87192862D02*
X108092656Y-87181471D01*
X108092656Y-87181471D02*
X108041466Y-87181471D01*
X108603286Y-87601202D02*
X108502727Y-87521010D01*
X107991559Y-87192862D02*
X107945439Y-87215072D01*
X107905418Y-87246988D02*
X107066701Y-88085702D01*
X107066701Y-88172017D02*
X106772017Y-88466701D01*
X107945439Y-87215072D02*
X107905418Y-87246988D01*
X108398099Y-85673337D02*
X108411166Y-85700473D01*
X110550224Y-85473513D02*
X110630418Y-85574070D01*
X107066701Y-88085702D02*
X107066701Y-88172017D01*
X108041466Y-87181471D02*
X107991559Y-87192862D01*
X108391397Y-85643974D02*
X108398099Y-85673337D01*
X109688121Y-86335617D02*
X108753235Y-85400732D01*
X108411166Y-85700473D02*
X108429945Y-85724021D01*
X110283968Y-86471617D02*
X110158574Y-86500237D01*
X110630418Y-85574070D02*
X110686222Y-85689953D01*
X109500829Y-86875346D02*
X109529449Y-87000740D01*
X103885700Y-89309500D02*
X103700000Y-89123800D01*
X104521092Y-89309500D02*
X103885700Y-89309500D01*
X105109500Y-87121092D02*
X105109500Y-88721092D01*
X106521092Y-85709500D02*
X105109500Y-87121092D01*
X107956018Y-84366464D02*
X107924101Y-84406486D01*
X107989619Y-84270437D02*
X107978228Y-84320344D01*
X107989619Y-84219247D02*
X107989619Y-84270437D01*
X107978228Y-84320344D02*
X107956018Y-84366464D01*
X107978228Y-84169340D02*
X107989619Y-84219247D01*
X107956018Y-84123219D02*
X107978228Y-84169340D01*
X107924101Y-84083197D02*
X107956018Y-84123219D01*
X107549437Y-83628091D02*
X107605243Y-83743973D01*
X107520816Y-83502696D02*
X107549437Y-83628091D01*
X105109500Y-88721092D02*
X104521092Y-89309500D01*
X107520816Y-83374076D02*
X107520816Y-83502696D01*
X107605243Y-83132799D02*
X107549437Y-83248681D01*
X107735252Y-82982425D02*
X107685436Y-83032240D01*
X107951693Y-82846426D02*
X107835811Y-82902232D01*
X108446985Y-82902232D02*
X108331103Y-82846426D01*
X108547544Y-82982425D02*
X108446985Y-82902232D01*
X108786210Y-83221091D02*
X108547544Y-82982425D01*
X111809500Y-80621092D02*
X110521092Y-81909500D01*
X109109499Y-83221091D02*
X109069477Y-83253007D01*
X106621092Y-85709500D02*
X106521092Y-85709500D01*
X107685436Y-83844532D02*
X107924101Y-84083197D01*
X107685436Y-83032240D02*
X107605243Y-83132799D01*
X108205708Y-82817806D02*
X108077088Y-82817806D01*
X109421092Y-81909500D02*
X109109500Y-82221092D01*
X109023356Y-83275218D02*
X108973449Y-83286609D01*
X108077088Y-82817806D02*
X107951693Y-82846426D01*
X108826232Y-83253007D02*
X108786210Y-83221091D01*
X111750000Y-80350000D02*
X111809500Y-80409500D01*
X109069477Y-83253007D02*
X109023356Y-83275218D01*
X107549437Y-83248681D02*
X107520816Y-83374076D01*
X107605243Y-83743973D02*
X107685436Y-83844532D01*
X110521092Y-81909500D02*
X109421092Y-81909500D01*
X107835811Y-82902232D02*
X107735252Y-82982425D01*
X108872353Y-83275218D02*
X108826232Y-83253007D01*
X108331103Y-82846426D02*
X108205708Y-82817806D01*
X111750000Y-80000000D02*
X111750000Y-80350000D01*
X111809500Y-80409500D02*
X111809500Y-80621092D01*
X108922259Y-83286609D02*
X108872353Y-83275218D01*
X109109500Y-82221092D02*
X109109499Y-83221091D01*
X108973449Y-83286609D02*
X108922259Y-83286609D01*
X107973962Y-84346437D02*
X107933875Y-84396704D01*
X107978228Y-84337578D02*
X107973962Y-84346437D01*
X107978228Y-84320344D02*
X107978228Y-84337578D01*
X106621092Y-85709487D02*
X106621092Y-85709500D01*
X107933875Y-84396704D02*
X106621092Y-85709487D01*
X107947837Y-83316764D02*
X107925626Y-83362884D01*
X107979754Y-83276742D02*
X107947837Y-83316764D01*
X108303043Y-83276742D02*
X108263021Y-83244825D01*
X108166993Y-83211224D02*
X108115803Y-83211224D01*
X108541708Y-83515408D02*
X108516801Y-83490500D01*
X108758150Y-83651407D02*
X108642267Y-83595601D01*
X112250000Y-80350000D02*
X112190500Y-80409500D01*
X107914235Y-83463981D02*
X107925626Y-83513888D01*
X109012164Y-83680027D02*
X108883544Y-83680027D01*
X108883544Y-83680027D02*
X108758150Y-83651407D01*
X112190500Y-80778908D02*
X110678908Y-82290500D01*
X108115803Y-83211224D02*
X108065896Y-83222615D01*
X109137559Y-83651407D02*
X109012164Y-83680027D01*
X108263021Y-83244825D02*
X108216900Y-83222615D01*
X109490500Y-83378908D02*
X109354000Y-83515408D01*
X108516801Y-83490500D02*
X108303043Y-83276742D01*
X108019776Y-83244825D02*
X107979754Y-83276742D01*
X108354418Y-84434547D02*
X108298612Y-84550429D01*
X108642267Y-83595601D02*
X108541708Y-83515408D01*
X112190500Y-80409500D02*
X112190500Y-80778908D01*
X110678908Y-82290500D02*
X109578908Y-82290500D01*
X107925626Y-83362884D02*
X107914235Y-83412791D01*
X109490500Y-82378908D02*
X109490500Y-83378908D01*
X109354000Y-83515408D02*
X109253441Y-83595601D01*
X109253441Y-83595601D02*
X109137559Y-83651407D01*
X112250000Y-80000000D02*
X112250000Y-80350000D01*
X108218419Y-84650988D02*
X106778908Y-86090500D01*
X107925626Y-83513888D02*
X107947837Y-83560009D01*
X107979754Y-83600031D02*
X108218419Y-83838696D01*
X108218419Y-83838696D02*
X108298612Y-83939255D01*
X109578908Y-82290500D02*
X109490500Y-82378908D01*
X108354418Y-84055137D02*
X108383038Y-84180532D01*
X108383038Y-84180532D02*
X108383038Y-84309152D01*
X108383038Y-84309152D02*
X108354418Y-84434547D01*
X108298612Y-84550429D02*
X108218419Y-84650988D01*
X106778908Y-86090500D02*
X106678908Y-86090500D01*
X107947837Y-83560009D02*
X107979754Y-83600031D01*
X106678908Y-86090500D02*
X105490500Y-87278908D01*
X107914235Y-83412791D02*
X107914235Y-83463981D01*
X108216900Y-83222615D02*
X108166993Y-83211224D01*
X105490500Y-87278908D02*
X105490500Y-88878908D01*
X105490500Y-88878908D02*
X104678908Y-89690500D01*
X104678908Y-89690500D02*
X103885700Y-89690500D01*
X108298612Y-83939255D02*
X108354418Y-84055137D01*
X103885700Y-89690500D02*
X103700000Y-89876200D01*
X108065896Y-83222615D02*
X108019776Y-83244825D01*
X106685702Y-90485702D02*
X106500000Y-90300000D01*
X110204810Y-87625782D02*
X107344890Y-90485702D01*
X110546648Y-87461163D02*
X110421253Y-87489784D01*
X110800661Y-87489785D02*
X110675266Y-87461164D01*
X111291122Y-87899804D02*
X111017101Y-87625783D01*
X111260197Y-87201934D02*
X111340390Y-87302493D01*
X111574389Y-87931721D02*
X111528270Y-87953931D01*
X111175771Y-86960658D02*
X111204391Y-87086052D01*
X111679929Y-87712565D02*
X111679929Y-87763755D01*
X111427173Y-87965322D02*
X111377266Y-87953931D01*
X110675266Y-87461164D02*
X110546648Y-87461163D01*
X111260197Y-86590762D02*
X111204391Y-86706644D01*
X116309500Y-81521092D02*
X111340390Y-86490203D01*
X116250000Y-80750001D02*
X116309500Y-80809501D01*
X111204391Y-86706644D02*
X111175771Y-86832038D01*
X116309500Y-80809501D02*
X116309500Y-81521092D01*
X111331145Y-87931720D02*
X111291122Y-87899804D01*
X111017101Y-87625783D02*
X110916544Y-87545589D01*
X116250000Y-80000000D02*
X116250000Y-80750001D01*
X110916544Y-87545589D02*
X110800661Y-87489785D01*
X111365297Y-87327401D02*
X111614411Y-87576515D01*
X110305370Y-87545590D02*
X110204810Y-87625782D01*
X111679929Y-87763755D02*
X111668538Y-87813662D01*
X107344890Y-90485702D02*
X106685702Y-90485702D01*
X111175771Y-86832038D02*
X111175771Y-86960658D01*
X111340390Y-87302493D02*
X111365297Y-87327401D01*
X111614411Y-87576515D02*
X111646329Y-87616536D01*
X110421253Y-87489784D02*
X110305370Y-87545590D01*
X111668538Y-87662658D02*
X111679929Y-87712565D01*
X111646329Y-87616536D02*
X111668538Y-87662658D01*
X111668538Y-87813662D02*
X111646328Y-87859782D01*
X111377266Y-87953931D02*
X111331145Y-87931720D01*
X111340390Y-86490203D02*
X111260197Y-86590762D01*
X111204391Y-87086052D02*
X111260197Y-87201934D01*
X111646328Y-87859782D02*
X111614412Y-87899803D01*
X111478363Y-87965322D02*
X111427173Y-87965322D01*
X111614412Y-87899803D02*
X111574389Y-87931721D01*
X111528270Y-87953931D02*
X111478363Y-87965322D01*
X110772602Y-87920099D02*
X110732579Y-87888183D01*
X111517076Y-88358740D02*
X111388458Y-88358739D01*
X116690500Y-80809501D02*
X116690500Y-81678908D01*
X111147180Y-88274314D02*
X111046623Y-88194120D01*
X111758352Y-88274314D02*
X111642470Y-88330120D01*
X111858911Y-88194121D02*
X111758352Y-88274314D01*
X112044725Y-87927864D02*
X111988919Y-88043747D01*
X112073346Y-87802469D02*
X112044725Y-87927864D01*
X111046623Y-88194120D02*
X110772602Y-87920099D01*
X112073345Y-87673851D02*
X112073346Y-87802469D01*
X111908727Y-88144304D02*
X111858911Y-88194121D01*
X116750000Y-80000000D02*
X116750000Y-80750001D01*
X110535455Y-87865972D02*
X110489335Y-87888182D01*
X111634704Y-86734704D02*
X111602788Y-86774726D01*
X111263062Y-88330120D02*
X111147180Y-88274314D01*
X116750000Y-80750001D02*
X116690500Y-80809501D01*
X111908726Y-87332016D02*
X111988920Y-87432573D01*
X112044724Y-87548456D02*
X112073345Y-87673851D01*
X116690500Y-81678908D02*
X111634704Y-86734704D01*
X111580577Y-86820847D02*
X111569186Y-86870754D01*
X111580577Y-86971851D02*
X111602789Y-87017970D01*
X111569186Y-86921944D02*
X111580577Y-86971851D01*
X111988919Y-88043747D02*
X111908727Y-88144304D01*
X111634704Y-87057994D02*
X111908726Y-87332016D01*
X110489335Y-87888182D02*
X110449312Y-87920100D01*
X110732579Y-87888183D02*
X110686459Y-87865972D01*
X110686459Y-87865972D02*
X110636552Y-87854581D01*
X111569186Y-86870754D02*
X111569186Y-86921944D01*
X110585362Y-87854581D02*
X110535455Y-87865972D01*
X107502706Y-90866702D02*
X106685701Y-90866702D01*
X111602789Y-87017970D02*
X111634704Y-87057994D01*
X106685701Y-90866702D02*
X106500000Y-91052403D01*
X111388458Y-88358739D02*
X111263062Y-88330120D01*
X110636552Y-87854581D02*
X110585362Y-87854581D01*
X111642470Y-88330120D02*
X111517076Y-88358740D01*
X111602788Y-86774726D02*
X111580577Y-86820847D01*
X111988920Y-87432573D02*
X112044724Y-87548456D01*
X110449308Y-87920100D02*
X107502706Y-90866702D01*
X110449312Y-87920100D02*
X110449308Y-87920100D01*
D19*
X106400000Y-95100000D02*
X105400000Y-94100000D01*
X110575000Y-95100000D02*
X106400000Y-95100000D01*
D25*
X152524912Y-77569152D02*
X152645066Y-77605428D01*
X152755885Y-77664351D01*
X152853146Y-77743676D01*
X152933152Y-77840386D01*
X152992847Y-77950790D01*
X153029961Y-78070688D01*
X153044800Y-78211862D01*
X153044801Y-82144800D01*
X143817443Y-82144800D01*
X143800000Y-82143082D01*
X143782557Y-82144800D01*
X143730369Y-82149940D01*
X143663413Y-82170251D01*
X143601707Y-82203234D01*
X143547621Y-82247621D01*
X143503234Y-82301707D01*
X143470251Y-82363413D01*
X143449940Y-82430369D01*
X143443082Y-82500000D01*
X143444800Y-82517443D01*
X143444801Y-94482547D01*
X143443082Y-94500000D01*
X143449940Y-94569631D01*
X143470251Y-94636587D01*
X143503234Y-94698293D01*
X143547621Y-94752379D01*
X143601707Y-94796766D01*
X143663413Y-94829749D01*
X143730369Y-94850060D01*
X143782557Y-94855200D01*
X143800000Y-94856918D01*
X143817443Y-94855200D01*
X153044800Y-94855200D01*
X153044801Y-98782616D01*
X153030849Y-98924912D01*
X152994572Y-99045066D01*
X152935649Y-99155885D01*
X152856324Y-99253146D01*
X152759611Y-99333154D01*
X152649213Y-99392846D01*
X152529312Y-99429961D01*
X152388137Y-99444800D01*
X102517374Y-99444800D01*
X102122583Y-99406091D01*
X101759544Y-99296483D01*
X101424706Y-99118447D01*
X101130830Y-98878767D01*
X100889098Y-98586562D01*
X100708731Y-98252981D01*
X100596590Y-97890712D01*
X100555200Y-97496910D01*
X100555200Y-93698128D01*
X100875448Y-93698128D01*
X100951581Y-93881949D01*
X101077455Y-94076072D01*
X101238782Y-94241908D01*
X101429362Y-94373084D01*
X101641871Y-94464560D01*
X101822200Y-94424189D01*
X101822200Y-93517800D01*
X102177800Y-93517800D01*
X102177800Y-94424189D01*
X102358129Y-94464560D01*
X102570638Y-94373084D01*
X102761218Y-94241908D01*
X102922545Y-94076072D01*
X103048419Y-93881949D01*
X103124552Y-93698128D01*
X103083154Y-93517800D01*
X102177800Y-93517800D01*
X101822200Y-93517800D01*
X100916846Y-93517800D01*
X100875448Y-93698128D01*
X100555200Y-93698128D01*
X100555200Y-92981872D01*
X100875448Y-92981872D01*
X100916846Y-93162200D01*
X101822200Y-93162200D01*
X101822200Y-92255811D01*
X102177800Y-92255811D01*
X102177800Y-93162200D01*
X103083154Y-93162200D01*
X103124552Y-92981872D01*
X103048419Y-92798051D01*
X102922545Y-92603928D01*
X102761218Y-92438092D01*
X102570638Y-92306916D01*
X102358129Y-92215440D01*
X102177800Y-92255811D01*
X101822200Y-92255811D01*
X101641871Y-92215440D01*
X101429362Y-92306916D01*
X101238782Y-92438092D01*
X101077455Y-92603928D01*
X100951581Y-92798051D01*
X100875448Y-92981872D01*
X100555200Y-92981872D01*
X100555200Y-89950000D01*
X100818203Y-89950000D01*
X100818203Y-91650000D01*
X100824578Y-91714730D01*
X100843460Y-91776973D01*
X100874121Y-91834337D01*
X100915384Y-91884616D01*
X100965663Y-91925879D01*
X101023027Y-91956540D01*
X101085270Y-91975422D01*
X101150000Y-91981797D01*
X102850000Y-91981797D01*
X102914730Y-91975422D01*
X102976973Y-91956540D01*
X103034337Y-91925879D01*
X103084616Y-91884616D01*
X103125879Y-91834337D01*
X103156540Y-91776973D01*
X103175422Y-91714730D01*
X103181797Y-91650000D01*
X103181797Y-90234984D01*
X103210492Y-90277929D01*
X103298271Y-90365708D01*
X103401488Y-90434676D01*
X103516178Y-90482182D01*
X103637931Y-90506400D01*
X103762069Y-90506400D01*
X103883822Y-90482182D01*
X103998512Y-90434676D01*
X104101729Y-90365708D01*
X104189508Y-90277929D01*
X104258476Y-90174712D01*
X104274925Y-90135000D01*
X104657088Y-90135000D01*
X104678908Y-90137149D01*
X104700728Y-90135000D01*
X104700738Y-90135000D01*
X104766045Y-90128568D01*
X104849834Y-90103151D01*
X104927053Y-90061876D01*
X104994737Y-90006329D01*
X105008654Y-89989371D01*
X105789376Y-89208650D01*
X105806329Y-89194737D01*
X105828484Y-89167742D01*
X105861875Y-89127054D01*
X105861876Y-89127053D01*
X105903151Y-89049834D01*
X105928568Y-88966045D01*
X105932261Y-88928551D01*
X105941524Y-88950915D01*
X106010492Y-89054132D01*
X106098271Y-89141911D01*
X106201488Y-89210879D01*
X106316178Y-89258385D01*
X106437931Y-89282603D01*
X106562069Y-89282603D01*
X106683822Y-89258385D01*
X106798512Y-89210879D01*
X106901729Y-89141911D01*
X106989508Y-89054132D01*
X107058476Y-88950915D01*
X107105982Y-88836225D01*
X107124573Y-88742762D01*
X107365571Y-88501764D01*
X107382530Y-88487846D01*
X107438077Y-88420162D01*
X107461260Y-88376789D01*
X107479352Y-88342943D01*
X107493402Y-88296626D01*
X107497324Y-88283697D01*
X108067062Y-87713961D01*
X108159687Y-87806586D01*
X108161472Y-87809178D01*
X108190632Y-87837531D01*
X108203855Y-87850754D01*
X108206268Y-87852734D01*
X108208521Y-87854925D01*
X108223217Y-87866645D01*
X108254581Y-87892385D01*
X108257354Y-87893867D01*
X108313966Y-87939013D01*
X108334708Y-87958079D01*
X108366768Y-87977602D01*
X108398285Y-87998027D01*
X108424467Y-88008444D01*
X108512258Y-88050722D01*
X108536735Y-88064702D01*
X108572361Y-88076610D01*
X108607604Y-88089500D01*
X108635446Y-88093830D01*
X108730460Y-88115516D01*
X108757429Y-88123697D01*
X108794794Y-88127377D01*
X108832032Y-88132103D01*
X108860142Y-88130129D01*
X108957595Y-88130127D01*
X108985707Y-88132102D01*
X109022961Y-88127375D01*
X109060322Y-88123695D01*
X109086099Y-88115875D01*
X107160773Y-90041202D01*
X107074926Y-90041202D01*
X107058476Y-90001488D01*
X106989508Y-89898271D01*
X106901729Y-89810492D01*
X106798512Y-89741524D01*
X106683822Y-89694018D01*
X106562069Y-89669800D01*
X106437931Y-89669800D01*
X106316178Y-89694018D01*
X106201488Y-89741524D01*
X106098271Y-89810492D01*
X106010492Y-89898271D01*
X105941524Y-90001488D01*
X105894018Y-90116178D01*
X105869800Y-90237931D01*
X105869800Y-90362069D01*
X105894018Y-90483822D01*
X105941524Y-90598512D01*
X105993435Y-90676202D01*
X105941524Y-90753891D01*
X105894018Y-90868581D01*
X105869800Y-90990334D01*
X105869800Y-91114472D01*
X105894018Y-91236225D01*
X105941524Y-91350915D01*
X106010492Y-91454132D01*
X106098271Y-91541911D01*
X106201488Y-91610879D01*
X106316178Y-91658385D01*
X106437931Y-91682603D01*
X106562069Y-91682603D01*
X106683822Y-91658385D01*
X106798512Y-91610879D01*
X106901729Y-91541911D01*
X106989508Y-91454132D01*
X107058476Y-91350915D01*
X107074926Y-91311202D01*
X107480886Y-91311202D01*
X107502706Y-91313351D01*
X107524526Y-91311202D01*
X107524536Y-91311202D01*
X107589843Y-91304770D01*
X107673632Y-91279353D01*
X107750851Y-91238078D01*
X107818535Y-91182531D01*
X107832453Y-91165572D01*
X108339938Y-90658087D01*
X108339234Y-90658945D01*
X108299139Y-90733959D01*
X108284636Y-90781768D01*
X108274448Y-90815353D01*
X108266111Y-90900000D01*
X108268200Y-90921210D01*
X108268201Y-92378780D01*
X108266111Y-92400000D01*
X108274448Y-92484647D01*
X108286491Y-92524345D01*
X108299140Y-92566042D01*
X108339235Y-92641056D01*
X108393195Y-92706806D01*
X108409674Y-92720330D01*
X108569800Y-92880456D01*
X108569800Y-92962069D01*
X108594018Y-93083822D01*
X108641524Y-93198512D01*
X108710492Y-93301729D01*
X108798271Y-93389508D01*
X108901488Y-93458476D01*
X109016178Y-93505982D01*
X109137931Y-93530200D01*
X109262069Y-93530200D01*
X109383822Y-93505982D01*
X109498512Y-93458476D01*
X109601729Y-93389508D01*
X109689508Y-93301729D01*
X109758476Y-93198512D01*
X109805982Y-93083822D01*
X109830200Y-92962069D01*
X109830200Y-92846569D01*
X109916178Y-92882182D01*
X110037931Y-92906400D01*
X110162069Y-92906400D01*
X110283822Y-92882182D01*
X110398512Y-92834676D01*
X110501729Y-92765708D01*
X110589508Y-92677929D01*
X110658476Y-92574712D01*
X110674925Y-92535000D01*
X113957088Y-92535000D01*
X113978908Y-92537149D01*
X114000728Y-92535000D01*
X114000738Y-92535000D01*
X114066045Y-92528568D01*
X114149834Y-92503151D01*
X114227053Y-92461876D01*
X114294737Y-92406329D01*
X114308655Y-92389370D01*
X117163026Y-89535000D01*
X131856382Y-89535000D01*
X131920252Y-89598870D01*
X131934170Y-89615829D01*
X132001854Y-89671376D01*
X132079073Y-89712651D01*
X132162862Y-89738068D01*
X132228169Y-89744500D01*
X132228179Y-89744500D01*
X132249999Y-89746649D01*
X132271819Y-89744500D01*
X132436946Y-89744500D01*
X132424578Y-89785270D01*
X132418203Y-89850000D01*
X132418203Y-89883772D01*
X131936976Y-90365000D01*
X118031189Y-90365000D01*
X118000000Y-90361928D01*
X117968811Y-90365000D01*
X117968808Y-90365000D01*
X117875518Y-90374188D01*
X117767991Y-90406806D01*
X117755820Y-90410498D01*
X117645506Y-90469462D01*
X117573043Y-90528931D01*
X117573039Y-90528935D01*
X117548815Y-90548815D01*
X117528935Y-90573039D01*
X113636976Y-94465000D01*
X112856798Y-94465000D01*
X112856798Y-94350000D01*
X112850423Y-94285269D01*
X112831541Y-94223026D01*
X112800880Y-94165663D01*
X112759617Y-94115383D01*
X112709337Y-94074120D01*
X112651974Y-94043459D01*
X112589731Y-94024577D01*
X112557200Y-94021373D01*
X112557200Y-93934037D01*
X112589508Y-93901729D01*
X112658476Y-93798512D01*
X112705982Y-93683822D01*
X112730200Y-93562069D01*
X112730200Y-93437931D01*
X112705982Y-93316178D01*
X112658476Y-93201488D01*
X112589508Y-93098271D01*
X112501729Y-93010492D01*
X112398512Y-92941524D01*
X112283822Y-92894018D01*
X112162069Y-92869800D01*
X112037931Y-92869800D01*
X111916178Y-92894018D01*
X111801488Y-92941524D01*
X111698271Y-93010492D01*
X111610492Y-93098271D01*
X111541524Y-93201488D01*
X111494018Y-93316178D01*
X111469800Y-93437931D01*
X111469800Y-93562069D01*
X111494018Y-93683822D01*
X111541524Y-93798512D01*
X111610492Y-93901729D01*
X111642800Y-93934037D01*
X111642800Y-94018202D01*
X111375000Y-94018202D01*
X111310610Y-94024510D01*
X111248347Y-94043326D01*
X111225007Y-94055770D01*
X111201974Y-94043459D01*
X111139731Y-94024577D01*
X111075000Y-94018202D01*
X110075000Y-94018202D01*
X110010269Y-94024577D01*
X109948026Y-94043459D01*
X109890663Y-94074120D01*
X109840383Y-94115383D01*
X109799120Y-94165663D01*
X109768459Y-94223026D01*
X109749577Y-94285269D01*
X109743202Y-94350000D01*
X109743202Y-94465000D01*
X106663026Y-94465000D01*
X105826956Y-93628932D01*
X105754493Y-93569463D01*
X105644179Y-93510498D01*
X105524481Y-93474189D01*
X105400000Y-93461929D01*
X105275519Y-93474189D01*
X105155821Y-93510498D01*
X105045507Y-93569463D01*
X104948815Y-93648815D01*
X104869463Y-93745507D01*
X104810498Y-93855821D01*
X104774189Y-93975519D01*
X104761929Y-94100000D01*
X104774189Y-94224481D01*
X104810498Y-94344179D01*
X104869463Y-94454493D01*
X104928932Y-94526956D01*
X105928934Y-95526960D01*
X105948815Y-95551185D01*
X105973039Y-95571065D01*
X105973043Y-95571069D01*
X106045506Y-95630538D01*
X106119804Y-95670251D01*
X106155820Y-95689502D01*
X106275518Y-95725812D01*
X106368808Y-95735000D01*
X106368811Y-95735000D01*
X106400000Y-95738072D01*
X106431189Y-95735000D01*
X109743202Y-95735000D01*
X109743202Y-95850000D01*
X109749577Y-95914731D01*
X109768459Y-95976974D01*
X109799120Y-96034337D01*
X109840383Y-96084617D01*
X109890663Y-96125880D01*
X109948026Y-96156541D01*
X110010269Y-96175423D01*
X110075000Y-96181798D01*
X111075000Y-96181798D01*
X111140071Y-96175355D01*
X111202294Y-96156408D01*
X111225007Y-96144237D01*
X111248026Y-96156541D01*
X111310269Y-96175423D01*
X111375000Y-96181798D01*
X112525000Y-96181798D01*
X112589731Y-96175423D01*
X112651974Y-96156541D01*
X112709337Y-96125880D01*
X112759617Y-96084617D01*
X112800880Y-96034337D01*
X112819233Y-96000000D01*
X146543082Y-96000000D01*
X146544800Y-96017444D01*
X146544801Y-97482547D01*
X146543082Y-97500000D01*
X146549940Y-97569631D01*
X146570251Y-97636587D01*
X146603234Y-97698293D01*
X146647621Y-97752379D01*
X146701707Y-97796766D01*
X146763413Y-97829749D01*
X146830369Y-97850060D01*
X146882557Y-97855200D01*
X146900000Y-97856918D01*
X146917443Y-97855200D01*
X151882557Y-97855200D01*
X151900000Y-97856918D01*
X151917443Y-97855200D01*
X151969631Y-97850060D01*
X152036587Y-97829749D01*
X152098293Y-97796766D01*
X152152379Y-97752379D01*
X152196766Y-97698293D01*
X152229749Y-97636587D01*
X152250060Y-97569631D01*
X152256918Y-97500000D01*
X152255200Y-97482557D01*
X152255200Y-96017443D01*
X152256918Y-96000000D01*
X152250060Y-95930369D01*
X152229749Y-95863413D01*
X152196766Y-95801707D01*
X152152379Y-95747621D01*
X152098293Y-95703234D01*
X152036587Y-95670251D01*
X151969631Y-95649940D01*
X151917443Y-95644800D01*
X151900000Y-95643082D01*
X151882557Y-95644800D01*
X146917443Y-95644800D01*
X146900000Y-95643082D01*
X146882557Y-95644800D01*
X146830369Y-95649940D01*
X146763413Y-95670251D01*
X146701707Y-95703234D01*
X146647621Y-95747621D01*
X146603234Y-95801707D01*
X146570251Y-95863413D01*
X146549940Y-95930369D01*
X146543082Y-96000000D01*
X112819233Y-96000000D01*
X112831541Y-95976974D01*
X112850423Y-95914731D01*
X112856798Y-95850000D01*
X112856798Y-95735000D01*
X113868819Y-95735000D01*
X113900000Y-95738071D01*
X113931181Y-95735000D01*
X113931192Y-95735000D01*
X114024482Y-95725812D01*
X114144180Y-95689502D01*
X114254494Y-95630537D01*
X114351185Y-95551185D01*
X114371074Y-95526950D01*
X115948024Y-93950000D01*
X132668202Y-93950000D01*
X132674577Y-94014731D01*
X132693459Y-94076974D01*
X132724120Y-94134337D01*
X132765383Y-94184617D01*
X132815663Y-94225880D01*
X132873026Y-94256541D01*
X132935269Y-94275423D01*
X133000000Y-94281798D01*
X133589650Y-94280200D01*
X133672200Y-94197650D01*
X133672200Y-93127800D01*
X134027800Y-93127800D01*
X134027800Y-94197650D01*
X134110350Y-94280200D01*
X134700000Y-94281798D01*
X134764731Y-94275423D01*
X134826974Y-94256541D01*
X134884337Y-94225880D01*
X134934617Y-94184617D01*
X134975880Y-94134337D01*
X135006541Y-94076974D01*
X135025423Y-94014731D01*
X135031798Y-93950000D01*
X138118202Y-93950000D01*
X138124577Y-94014731D01*
X138143459Y-94076974D01*
X138174120Y-94134337D01*
X138215383Y-94184617D01*
X138265663Y-94225880D01*
X138323026Y-94256541D01*
X138385269Y-94275423D01*
X138450000Y-94281798D01*
X139039650Y-94280200D01*
X139122200Y-94197650D01*
X139122200Y-93127800D01*
X139477800Y-93127800D01*
X139477800Y-94197650D01*
X139560350Y-94280200D01*
X140150000Y-94281798D01*
X140214731Y-94275423D01*
X140276974Y-94256541D01*
X140334337Y-94225880D01*
X140384617Y-94184617D01*
X140425880Y-94134337D01*
X140456541Y-94076974D01*
X140475423Y-94014731D01*
X140481798Y-93950000D01*
X140480200Y-93210350D01*
X140397650Y-93127800D01*
X139477800Y-93127800D01*
X139122200Y-93127800D01*
X138202350Y-93127800D01*
X138119800Y-93210350D01*
X138118202Y-93950000D01*
X135031798Y-93950000D01*
X135030200Y-93210350D01*
X134947650Y-93127800D01*
X134027800Y-93127800D01*
X133672200Y-93127800D01*
X132752350Y-93127800D01*
X132669800Y-93210350D01*
X132668202Y-93950000D01*
X115948024Y-93950000D01*
X117948025Y-91950000D01*
X132668202Y-91950000D01*
X132669800Y-92689650D01*
X132752350Y-92772200D01*
X133672200Y-92772200D01*
X133672200Y-91702350D01*
X134027800Y-91702350D01*
X134027800Y-92772200D01*
X134947650Y-92772200D01*
X135030200Y-92689650D01*
X135031798Y-91950000D01*
X138118202Y-91950000D01*
X138119800Y-92689650D01*
X138202350Y-92772200D01*
X139122200Y-92772200D01*
X139122200Y-91702350D01*
X139477800Y-91702350D01*
X139477800Y-92772200D01*
X140397650Y-92772200D01*
X140480200Y-92689650D01*
X140481798Y-91950000D01*
X140475423Y-91885269D01*
X140456541Y-91823026D01*
X140425880Y-91765663D01*
X140384617Y-91715383D01*
X140334337Y-91674120D01*
X140276974Y-91643459D01*
X140214731Y-91624577D01*
X140150000Y-91618202D01*
X139560350Y-91619800D01*
X139477800Y-91702350D01*
X139122200Y-91702350D01*
X139039650Y-91619800D01*
X138450000Y-91618202D01*
X138385269Y-91624577D01*
X138323026Y-91643459D01*
X138265663Y-91674120D01*
X138215383Y-91715383D01*
X138174120Y-91765663D01*
X138143459Y-91823026D01*
X138124577Y-91885269D01*
X138118202Y-91950000D01*
X135031798Y-91950000D01*
X135025423Y-91885269D01*
X135006541Y-91823026D01*
X134975880Y-91765663D01*
X134934617Y-91715383D01*
X134884337Y-91674120D01*
X134826974Y-91643459D01*
X134764731Y-91624577D01*
X134700000Y-91618202D01*
X134110350Y-91619800D01*
X134027800Y-91702350D01*
X133672200Y-91702350D01*
X133589650Y-91619800D01*
X133000000Y-91618202D01*
X132935269Y-91624577D01*
X132873026Y-91643459D01*
X132815663Y-91674120D01*
X132765383Y-91715383D01*
X132724120Y-91765663D01*
X132693459Y-91823026D01*
X132674577Y-91885269D01*
X132668202Y-91950000D01*
X117948025Y-91950000D01*
X118263026Y-91635000D01*
X132168819Y-91635000D01*
X132200000Y-91638071D01*
X132231181Y-91635000D01*
X132231192Y-91635000D01*
X132324482Y-91625812D01*
X132444180Y-91589502D01*
X132554494Y-91530537D01*
X132651185Y-91451185D01*
X132671074Y-91426950D01*
X133363025Y-90735000D01*
X133781192Y-90735000D01*
X133874482Y-90725812D01*
X133994180Y-90689502D01*
X134008595Y-90681797D01*
X134750000Y-90681797D01*
X134814730Y-90675422D01*
X134876973Y-90656540D01*
X134934337Y-90625879D01*
X134943654Y-90618232D01*
X135619800Y-90618232D01*
X135619800Y-90781768D01*
X135651704Y-90942160D01*
X135714286Y-91093247D01*
X135805142Y-91229222D01*
X135920778Y-91344858D01*
X136056753Y-91435714D01*
X136207840Y-91498296D01*
X136368232Y-91530200D01*
X136531768Y-91530200D01*
X136692160Y-91498296D01*
X136843247Y-91435714D01*
X136979222Y-91344858D01*
X137094858Y-91229222D01*
X137185714Y-91093247D01*
X137248296Y-90942160D01*
X137280200Y-90781768D01*
X137280200Y-90618232D01*
X137248296Y-90457840D01*
X137185714Y-90306753D01*
X137094858Y-90170778D01*
X136979222Y-90055142D01*
X136843247Y-89964286D01*
X136692160Y-89901704D01*
X136531768Y-89869800D01*
X136368232Y-89869800D01*
X136207840Y-89901704D01*
X136056753Y-89964286D01*
X135920778Y-90055142D01*
X135805142Y-90170778D01*
X135714286Y-90306753D01*
X135651704Y-90457840D01*
X135619800Y-90618232D01*
X134943654Y-90618232D01*
X134984616Y-90584616D01*
X135025879Y-90534337D01*
X135056540Y-90476973D01*
X135075422Y-90414730D01*
X135081797Y-90350000D01*
X135081797Y-89850000D01*
X135075422Y-89785270D01*
X135056540Y-89723027D01*
X135044232Y-89700000D01*
X135056540Y-89676973D01*
X135075422Y-89614730D01*
X135081797Y-89550000D01*
X135081797Y-89050000D01*
X135075422Y-88985270D01*
X135056540Y-88923027D01*
X135044232Y-88900000D01*
X135056540Y-88876973D01*
X135075422Y-88814730D01*
X135081797Y-88750000D01*
X135081797Y-88250000D01*
X135075422Y-88185270D01*
X135056540Y-88123027D01*
X135044232Y-88100000D01*
X135056540Y-88076973D01*
X135075422Y-88014730D01*
X135081797Y-87950000D01*
X135081797Y-87450000D01*
X135075422Y-87385270D01*
X135056540Y-87323027D01*
X135044243Y-87300021D01*
X135056194Y-87277808D01*
X135075245Y-87215617D01*
X135080200Y-87156350D01*
X134997650Y-87073800D01*
X133927800Y-87073800D01*
X133927800Y-87097800D01*
X133572200Y-87097800D01*
X133572200Y-87073800D01*
X132502350Y-87073800D01*
X132419800Y-87156350D01*
X132424755Y-87215617D01*
X132440863Y-87268200D01*
X115821210Y-87268200D01*
X115800000Y-87266111D01*
X115731435Y-87272864D01*
X115715352Y-87274448D01*
X115633958Y-87299139D01*
X115558944Y-87339234D01*
X115493194Y-87393194D01*
X115479670Y-87409673D01*
X113221144Y-89668200D01*
X109521210Y-89668200D01*
X109500000Y-89666111D01*
X109415352Y-89674448D01*
X109333957Y-89699139D01*
X109322478Y-89705275D01*
X109258944Y-89739234D01*
X109258093Y-89739932D01*
X110610956Y-88387070D01*
X110703580Y-88479693D01*
X110705362Y-88482281D01*
X110734508Y-88510621D01*
X110747751Y-88523864D01*
X110750166Y-88525846D01*
X110752410Y-88528028D01*
X110767082Y-88539729D01*
X110798477Y-88565495D01*
X110801246Y-88566975D01*
X110857860Y-88612125D01*
X110878602Y-88631191D01*
X110910640Y-88650700D01*
X110942170Y-88671135D01*
X110968364Y-88681557D01*
X111056163Y-88723840D01*
X111080637Y-88737817D01*
X111116247Y-88749719D01*
X111151498Y-88762612D01*
X111179345Y-88766943D01*
X111274361Y-88788629D01*
X111301318Y-88796806D01*
X111338672Y-88800485D01*
X111375936Y-88805213D01*
X111404043Y-88803238D01*
X111501491Y-88803240D01*
X111529601Y-88805214D01*
X111566845Y-88800488D01*
X111604209Y-88796808D01*
X111631173Y-88788629D01*
X111726194Y-88766941D01*
X111754033Y-88762612D01*
X111789284Y-88749720D01*
X111824900Y-88737815D01*
X111849370Y-88723839D01*
X111937166Y-88681559D01*
X111963356Y-88671138D01*
X111994873Y-88650712D01*
X112026930Y-88631192D01*
X112047676Y-88612122D01*
X112104287Y-88566976D01*
X112107060Y-88565494D01*
X112138471Y-88539716D01*
X112153119Y-88528034D01*
X112155361Y-88525854D01*
X112157787Y-88523863D01*
X112171061Y-88510589D01*
X112196576Y-88485780D01*
X112196892Y-88485562D01*
X112198489Y-88483919D01*
X112200168Y-88482287D01*
X112200390Y-88481964D01*
X112225229Y-88456418D01*
X112238474Y-88443173D01*
X112240455Y-88440759D01*
X112242639Y-88438513D01*
X112254342Y-88423837D01*
X112280105Y-88392446D01*
X112281586Y-88389676D01*
X112326728Y-88333069D01*
X112345797Y-88312324D01*
X112365316Y-88280271D01*
X112385743Y-88248752D01*
X112396165Y-88222559D01*
X112438443Y-88134767D01*
X112452419Y-88110296D01*
X112464318Y-88074695D01*
X112477218Y-88039427D01*
X112481549Y-88011576D01*
X112503233Y-87916571D01*
X112511414Y-87889602D01*
X112515094Y-87852235D01*
X112519820Y-87814998D01*
X112517846Y-87786888D01*
X112517844Y-87689434D01*
X112519819Y-87661322D01*
X112515092Y-87624074D01*
X112511412Y-87586711D01*
X112503231Y-87559743D01*
X112481547Y-87464740D01*
X112477218Y-87436899D01*
X112464324Y-87401644D01*
X112452418Y-87366024D01*
X112438441Y-87341551D01*
X112396163Y-87253755D01*
X112385741Y-87227563D01*
X112365319Y-87196052D01*
X112345802Y-87164001D01*
X112326731Y-87143252D01*
X112281584Y-87086643D01*
X112280102Y-87083870D01*
X112254301Y-87052432D01*
X112242634Y-87037803D01*
X112240458Y-87035565D01*
X112238471Y-87033144D01*
X112225193Y-87019866D01*
X112196887Y-86990755D01*
X112194302Y-86988975D01*
X112101676Y-86896349D01*
X112354375Y-86643650D01*
X132419800Y-86643650D01*
X132502350Y-86726200D01*
X133572200Y-86726200D01*
X133572200Y-86402350D01*
X133927800Y-86402350D01*
X133927800Y-86726200D01*
X134997650Y-86726200D01*
X135080200Y-86643650D01*
X135075245Y-86584383D01*
X135056194Y-86522192D01*
X135025377Y-86464912D01*
X134983976Y-86414745D01*
X134933585Y-86373619D01*
X134876138Y-86343114D01*
X134813844Y-86324402D01*
X134749096Y-86318203D01*
X134010350Y-86319800D01*
X133927800Y-86402350D01*
X133572200Y-86402350D01*
X133489650Y-86319800D01*
X132750904Y-86318203D01*
X132686156Y-86324402D01*
X132623862Y-86343114D01*
X132566415Y-86373619D01*
X132516024Y-86414745D01*
X132474623Y-86464912D01*
X132443806Y-86522192D01*
X132424755Y-86584383D01*
X132419800Y-86643650D01*
X112354375Y-86643650D01*
X112779793Y-86218232D01*
X135619800Y-86218232D01*
X135619800Y-86381768D01*
X135651704Y-86542160D01*
X135714286Y-86693247D01*
X135805142Y-86829222D01*
X135920778Y-86944858D01*
X136056753Y-87035714D01*
X136207840Y-87098296D01*
X136368232Y-87130200D01*
X136531768Y-87130200D01*
X136692160Y-87098296D01*
X136843247Y-87035714D01*
X136979222Y-86944858D01*
X137094858Y-86829222D01*
X137185714Y-86693247D01*
X137248296Y-86542160D01*
X137280200Y-86381768D01*
X137280200Y-86218232D01*
X137248296Y-86057840D01*
X137185714Y-85906753D01*
X137094858Y-85770778D01*
X136979222Y-85655142D01*
X136843247Y-85564286D01*
X136692160Y-85501704D01*
X136531768Y-85469800D01*
X136368232Y-85469800D01*
X136207840Y-85501704D01*
X136056753Y-85564286D01*
X135920778Y-85655142D01*
X135805142Y-85770778D01*
X135714286Y-85906753D01*
X135651704Y-86057840D01*
X135619800Y-86218232D01*
X112779793Y-86218232D01*
X113948025Y-85050000D01*
X132668202Y-85050000D01*
X132674577Y-85114731D01*
X132693459Y-85176974D01*
X132724120Y-85234337D01*
X132765383Y-85284617D01*
X132815663Y-85325880D01*
X132873026Y-85356541D01*
X132935269Y-85375423D01*
X133000000Y-85381798D01*
X133589650Y-85380200D01*
X133672200Y-85297650D01*
X133672200Y-84227800D01*
X134027800Y-84227800D01*
X134027800Y-85297650D01*
X134110350Y-85380200D01*
X134700000Y-85381798D01*
X134764731Y-85375423D01*
X134826974Y-85356541D01*
X134884337Y-85325880D01*
X134934617Y-85284617D01*
X134975880Y-85234337D01*
X135006541Y-85176974D01*
X135025423Y-85114731D01*
X135031798Y-85050000D01*
X138118202Y-85050000D01*
X138124577Y-85114731D01*
X138143459Y-85176974D01*
X138174120Y-85234337D01*
X138215383Y-85284617D01*
X138265663Y-85325880D01*
X138323026Y-85356541D01*
X138385269Y-85375423D01*
X138450000Y-85381798D01*
X139039650Y-85380200D01*
X139122200Y-85297650D01*
X139122200Y-84227800D01*
X139477800Y-84227800D01*
X139477800Y-85297650D01*
X139560350Y-85380200D01*
X140150000Y-85381798D01*
X140214731Y-85375423D01*
X140276974Y-85356541D01*
X140334337Y-85325880D01*
X140384617Y-85284617D01*
X140425880Y-85234337D01*
X140456541Y-85176974D01*
X140475423Y-85114731D01*
X140481798Y-85050000D01*
X140480200Y-84310350D01*
X140397650Y-84227800D01*
X139477800Y-84227800D01*
X139122200Y-84227800D01*
X138202350Y-84227800D01*
X138119800Y-84310350D01*
X138118202Y-85050000D01*
X135031798Y-85050000D01*
X135030200Y-84310350D01*
X134947650Y-84227800D01*
X134027800Y-84227800D01*
X133672200Y-84227800D01*
X132752350Y-84227800D01*
X132669800Y-84310350D01*
X132668202Y-85050000D01*
X113948025Y-85050000D01*
X115948025Y-83050000D01*
X132668202Y-83050000D01*
X132669800Y-83789650D01*
X132752350Y-83872200D01*
X133672200Y-83872200D01*
X133672200Y-82802350D01*
X134027800Y-82802350D01*
X134027800Y-83872200D01*
X134947650Y-83872200D01*
X135030200Y-83789650D01*
X135031798Y-83050000D01*
X138118202Y-83050000D01*
X138119800Y-83789650D01*
X138202350Y-83872200D01*
X139122200Y-83872200D01*
X139122200Y-82802350D01*
X139477800Y-82802350D01*
X139477800Y-83872200D01*
X140397650Y-83872200D01*
X140480200Y-83789650D01*
X140481798Y-83050000D01*
X140475423Y-82985269D01*
X140456541Y-82923026D01*
X140425880Y-82865663D01*
X140384617Y-82815383D01*
X140334337Y-82774120D01*
X140276974Y-82743459D01*
X140214731Y-82724577D01*
X140150000Y-82718202D01*
X139560350Y-82719800D01*
X139477800Y-82802350D01*
X139122200Y-82802350D01*
X139039650Y-82719800D01*
X138450000Y-82718202D01*
X138385269Y-82724577D01*
X138323026Y-82743459D01*
X138265663Y-82774120D01*
X138215383Y-82815383D01*
X138174120Y-82865663D01*
X138143459Y-82923026D01*
X138124577Y-82985269D01*
X138118202Y-83050000D01*
X135031798Y-83050000D01*
X135025423Y-82985269D01*
X135006541Y-82923026D01*
X134975880Y-82865663D01*
X134934617Y-82815383D01*
X134884337Y-82774120D01*
X134826974Y-82743459D01*
X134764731Y-82724577D01*
X134700000Y-82718202D01*
X134110350Y-82719800D01*
X134027800Y-82802350D01*
X133672200Y-82802350D01*
X133589650Y-82719800D01*
X133000000Y-82718202D01*
X132935269Y-82724577D01*
X132873026Y-82743459D01*
X132815663Y-82774120D01*
X132765383Y-82815383D01*
X132724120Y-82865663D01*
X132693459Y-82923026D01*
X132674577Y-82985269D01*
X132668202Y-83050000D01*
X115948025Y-83050000D01*
X116448025Y-82550000D01*
X121368202Y-82550000D01*
X121374577Y-82614731D01*
X121393459Y-82676974D01*
X121424120Y-82734337D01*
X121465383Y-82784617D01*
X121515663Y-82825880D01*
X121573026Y-82856541D01*
X121635269Y-82875423D01*
X121700000Y-82881798D01*
X122264650Y-82880200D01*
X122347200Y-82797650D01*
X122347200Y-82077800D01*
X122702800Y-82077800D01*
X122702800Y-82797650D01*
X122785350Y-82880200D01*
X123350000Y-82881798D01*
X123414731Y-82875423D01*
X123476974Y-82856541D01*
X123534337Y-82825880D01*
X123584617Y-82784617D01*
X123625880Y-82734337D01*
X123656541Y-82676974D01*
X123675423Y-82614731D01*
X123681798Y-82550000D01*
X123680200Y-82160350D01*
X123597650Y-82077800D01*
X122702800Y-82077800D01*
X122347200Y-82077800D01*
X121452350Y-82077800D01*
X121369800Y-82160350D01*
X121368202Y-82550000D01*
X116448025Y-82550000D01*
X116989376Y-82008650D01*
X117006329Y-81994737D01*
X117028484Y-81967742D01*
X117059293Y-81930200D01*
X117061876Y-81927053D01*
X117103151Y-81849834D01*
X117128568Y-81766045D01*
X117135000Y-81700738D01*
X117135000Y-81700729D01*
X117137149Y-81678909D01*
X117135000Y-81657089D01*
X117135000Y-81637931D01*
X118569800Y-81637931D01*
X118569800Y-81762069D01*
X118594018Y-81883822D01*
X118641524Y-81998512D01*
X118710492Y-82101729D01*
X118798271Y-82189508D01*
X118901488Y-82258476D01*
X119016178Y-82305982D01*
X119137931Y-82330200D01*
X119262069Y-82330200D01*
X119383822Y-82305982D01*
X119498512Y-82258476D01*
X119601729Y-82189508D01*
X119689508Y-82101729D01*
X119758476Y-81998512D01*
X119799640Y-81899132D01*
X119816178Y-81905982D01*
X119937931Y-81930200D01*
X120062069Y-81930200D01*
X120183822Y-81905982D01*
X120298512Y-81858476D01*
X120401729Y-81789508D01*
X120489508Y-81701729D01*
X120558476Y-81598512D01*
X120605982Y-81483822D01*
X120630200Y-81362069D01*
X120630200Y-81250000D01*
X121368202Y-81250000D01*
X121369800Y-81639650D01*
X121452350Y-81722200D01*
X122347200Y-81722200D01*
X122347200Y-81002350D01*
X122702800Y-81002350D01*
X122702800Y-81722200D01*
X123597650Y-81722200D01*
X123680200Y-81639650D01*
X123681798Y-81250000D01*
X123675423Y-81185269D01*
X123656541Y-81123026D01*
X123625880Y-81065663D01*
X123584617Y-81015383D01*
X123534337Y-80974120D01*
X123476974Y-80943459D01*
X123414731Y-80924577D01*
X123350000Y-80918202D01*
X122785350Y-80919800D01*
X122702800Y-81002350D01*
X122347200Y-81002350D01*
X122264650Y-80919800D01*
X121700000Y-80918202D01*
X121635269Y-80924577D01*
X121573026Y-80943459D01*
X121515663Y-80974120D01*
X121465383Y-81015383D01*
X121424120Y-81065663D01*
X121393459Y-81123026D01*
X121374577Y-81185269D01*
X121368202Y-81250000D01*
X120630200Y-81250000D01*
X120630200Y-81237931D01*
X120605982Y-81116178D01*
X120558476Y-81001488D01*
X120489508Y-80898271D01*
X120420969Y-80829732D01*
X120464730Y-80825422D01*
X120526973Y-80806540D01*
X120584337Y-80775879D01*
X120634616Y-80734616D01*
X120675879Y-80684337D01*
X120706540Y-80626973D01*
X120725422Y-80564730D01*
X120731797Y-80500000D01*
X120731797Y-79500000D01*
X146543082Y-79500000D01*
X146544800Y-79517444D01*
X146544801Y-80982547D01*
X146543082Y-81000000D01*
X146549940Y-81069631D01*
X146570251Y-81136587D01*
X146603234Y-81198293D01*
X146647621Y-81252379D01*
X146701707Y-81296766D01*
X146763413Y-81329749D01*
X146830369Y-81350060D01*
X146882557Y-81355200D01*
X146900000Y-81356918D01*
X146917443Y-81355200D01*
X151882557Y-81355200D01*
X151900000Y-81356918D01*
X151917443Y-81355200D01*
X151969631Y-81350060D01*
X152036587Y-81329749D01*
X152098293Y-81296766D01*
X152152379Y-81252379D01*
X152196766Y-81198293D01*
X152229749Y-81136587D01*
X152250060Y-81069631D01*
X152256918Y-81000000D01*
X152255200Y-80982557D01*
X152255200Y-79517443D01*
X152256918Y-79500000D01*
X152250060Y-79430369D01*
X152229749Y-79363413D01*
X152196766Y-79301707D01*
X152152379Y-79247621D01*
X152098293Y-79203234D01*
X152036587Y-79170251D01*
X151969631Y-79149940D01*
X151917443Y-79144800D01*
X151900000Y-79143082D01*
X151882557Y-79144800D01*
X146917443Y-79144800D01*
X146900000Y-79143082D01*
X146882557Y-79144800D01*
X146830369Y-79149940D01*
X146763413Y-79170251D01*
X146701707Y-79203234D01*
X146647621Y-79247621D01*
X146603234Y-79301707D01*
X146570251Y-79363413D01*
X146549940Y-79430369D01*
X146543082Y-79500000D01*
X120731797Y-79500000D01*
X120725422Y-79435270D01*
X120706540Y-79373027D01*
X120675879Y-79315663D01*
X120634616Y-79265384D01*
X120584337Y-79224121D01*
X120526973Y-79193460D01*
X120464730Y-79174578D01*
X120400000Y-79168203D01*
X120100000Y-79168203D01*
X120035270Y-79174578D01*
X120000000Y-79185277D01*
X119964730Y-79174578D01*
X119900000Y-79168203D01*
X119600000Y-79168203D01*
X119535270Y-79174578D01*
X119500000Y-79185277D01*
X119464730Y-79174578D01*
X119400000Y-79168203D01*
X119100000Y-79168203D01*
X119035270Y-79174578D01*
X118999973Y-79185286D01*
X118966283Y-79174890D01*
X118906350Y-79169800D01*
X118823800Y-79252350D01*
X118823800Y-79316264D01*
X118793460Y-79373027D01*
X118774578Y-79435270D01*
X118768203Y-79500000D01*
X118768203Y-80500000D01*
X118774578Y-80564730D01*
X118793460Y-80626973D01*
X118818200Y-80673260D01*
X118818201Y-81197175D01*
X118798271Y-81210492D01*
X118710492Y-81298271D01*
X118641524Y-81401488D01*
X118594018Y-81516178D01*
X118569800Y-81637931D01*
X117135000Y-81637931D01*
X117135000Y-80972658D01*
X117162651Y-80920927D01*
X117188068Y-80837138D01*
X117194500Y-80771831D01*
X117194500Y-80771821D01*
X117196649Y-80750001D01*
X117194500Y-80728181D01*
X117194500Y-80649499D01*
X117206540Y-80626973D01*
X117225422Y-80564730D01*
X117231797Y-80500000D01*
X117231797Y-79500000D01*
X117268203Y-79500000D01*
X117268203Y-80500000D01*
X117274578Y-80564730D01*
X117293460Y-80626973D01*
X117323800Y-80683736D01*
X117323800Y-80747650D01*
X117406350Y-80830200D01*
X117466283Y-80825110D01*
X117499973Y-80814714D01*
X117535270Y-80825422D01*
X117600000Y-80831797D01*
X117900000Y-80831797D01*
X117964730Y-80825422D01*
X118000000Y-80814723D01*
X118035270Y-80825422D01*
X118100000Y-80831797D01*
X118400000Y-80831797D01*
X118464730Y-80825422D01*
X118500027Y-80814714D01*
X118533717Y-80825110D01*
X118593650Y-80830200D01*
X118676200Y-80747650D01*
X118676200Y-80683736D01*
X118706540Y-80626973D01*
X118725422Y-80564730D01*
X118731797Y-80500000D01*
X118731797Y-79500000D01*
X118725422Y-79435270D01*
X118706540Y-79373027D01*
X118676200Y-79316264D01*
X118676200Y-79252350D01*
X118593650Y-79169800D01*
X118533717Y-79174890D01*
X118500027Y-79185286D01*
X118464730Y-79174578D01*
X118400000Y-79168203D01*
X118100000Y-79168203D01*
X118035270Y-79174578D01*
X118000000Y-79185277D01*
X117964730Y-79174578D01*
X117900000Y-79168203D01*
X117600000Y-79168203D01*
X117535270Y-79174578D01*
X117499973Y-79185286D01*
X117466283Y-79174890D01*
X117406350Y-79169800D01*
X117323800Y-79252350D01*
X117323800Y-79316264D01*
X117293460Y-79373027D01*
X117274578Y-79435270D01*
X117268203Y-79500000D01*
X117231797Y-79500000D01*
X117225422Y-79435270D01*
X117206540Y-79373027D01*
X117176200Y-79316264D01*
X117176200Y-79252350D01*
X117093650Y-79169800D01*
X117033717Y-79174890D01*
X117000027Y-79185286D01*
X116964730Y-79174578D01*
X116900000Y-79168203D01*
X116600000Y-79168203D01*
X116535270Y-79174578D01*
X116500000Y-79185277D01*
X116464730Y-79174578D01*
X116400000Y-79168203D01*
X116100000Y-79168203D01*
X116035270Y-79174578D01*
X115999973Y-79185286D01*
X115966283Y-79174890D01*
X115906350Y-79169800D01*
X115823800Y-79252350D01*
X115823800Y-79316264D01*
X115793460Y-79373027D01*
X115774578Y-79435270D01*
X115768203Y-79500000D01*
X115768203Y-80500000D01*
X115774578Y-80564730D01*
X115793460Y-80626973D01*
X115805501Y-80649500D01*
X115805501Y-80728172D01*
X115803351Y-80750001D01*
X115811933Y-80837138D01*
X115837349Y-80920926D01*
X115865000Y-80972658D01*
X115865001Y-81336973D01*
X111145090Y-86056886D01*
X111152912Y-86031099D01*
X111156592Y-85993732D01*
X111161318Y-85956495D01*
X111159344Y-85928385D01*
X111159342Y-85830931D01*
X111161317Y-85802819D01*
X111156590Y-85765571D01*
X111152910Y-85728208D01*
X111144729Y-85701240D01*
X111123045Y-85606237D01*
X111118716Y-85578396D01*
X111105822Y-85543141D01*
X111093916Y-85507521D01*
X111079939Y-85483048D01*
X111037661Y-85395252D01*
X111027239Y-85369060D01*
X111006817Y-85337549D01*
X110987300Y-85305498D01*
X110968229Y-85284749D01*
X110923082Y-85228140D01*
X110921600Y-85225367D01*
X110895799Y-85193929D01*
X110884132Y-85179300D01*
X110881956Y-85177062D01*
X110879969Y-85174641D01*
X110866691Y-85161363D01*
X110838385Y-85132252D01*
X110835800Y-85130472D01*
X110743174Y-85037846D01*
X113989376Y-81791645D01*
X114006329Y-81777732D01*
X114020242Y-81760779D01*
X114020245Y-81760776D01*
X114061876Y-81710049D01*
X114103151Y-81632829D01*
X114108816Y-81614155D01*
X114128568Y-81549040D01*
X114135000Y-81483733D01*
X114135000Y-81483723D01*
X114137149Y-81461903D01*
X114135000Y-81440083D01*
X114135000Y-80972658D01*
X114162651Y-80920927D01*
X114188068Y-80837138D01*
X114194500Y-80771831D01*
X114194500Y-80771821D01*
X114196649Y-80750001D01*
X114194500Y-80728181D01*
X114194500Y-80649499D01*
X114206540Y-80626973D01*
X114225422Y-80564730D01*
X114231797Y-80500000D01*
X114231797Y-79802200D01*
X114268203Y-79802200D01*
X114268203Y-80500000D01*
X114274578Y-80564730D01*
X114293460Y-80626973D01*
X114323800Y-80683736D01*
X114323800Y-80747650D01*
X114406350Y-80830200D01*
X114466283Y-80825110D01*
X114499973Y-80814714D01*
X114535270Y-80825422D01*
X114600000Y-80831797D01*
X114900000Y-80831797D01*
X114964730Y-80825422D01*
X115000000Y-80814723D01*
X115035270Y-80825422D01*
X115100000Y-80831797D01*
X115400000Y-80831797D01*
X115464730Y-80825422D01*
X115500027Y-80814714D01*
X115533717Y-80825110D01*
X115593650Y-80830200D01*
X115676200Y-80747650D01*
X115676200Y-80683736D01*
X115706540Y-80626973D01*
X115725422Y-80564730D01*
X115731797Y-80500000D01*
X115731797Y-79500000D01*
X115725422Y-79435270D01*
X115706540Y-79373027D01*
X115676200Y-79316264D01*
X115676200Y-79252350D01*
X115636298Y-79212448D01*
X115635000Y-79199271D01*
X115635000Y-79199262D01*
X115628568Y-79133955D01*
X115603151Y-79050166D01*
X115561876Y-78972947D01*
X115539646Y-78945860D01*
X115520244Y-78922218D01*
X115520242Y-78922216D01*
X115506329Y-78905263D01*
X115489377Y-78891351D01*
X114708654Y-78110629D01*
X114694737Y-78093671D01*
X114627053Y-78038124D01*
X114549834Y-77996849D01*
X114466045Y-77971432D01*
X114400738Y-77965000D01*
X114400728Y-77965000D01*
X114378908Y-77962851D01*
X114357088Y-77965000D01*
X106942912Y-77965000D01*
X106921092Y-77962851D01*
X106899272Y-77965000D01*
X106899262Y-77965000D01*
X106833955Y-77971432D01*
X106750166Y-77996849D01*
X106672946Y-78038124D01*
X106622219Y-78079755D01*
X106622216Y-78079758D01*
X106605263Y-78093671D01*
X106591350Y-78110624D01*
X103417562Y-81284413D01*
X103400609Y-81298326D01*
X103386696Y-81315279D01*
X103386692Y-81315283D01*
X103345061Y-81366010D01*
X103303786Y-81443230D01*
X103278370Y-81527018D01*
X103269788Y-81614155D01*
X103271938Y-81635985D01*
X103271937Y-84727513D01*
X103269113Y-84732796D01*
X103246080Y-84808728D01*
X103243697Y-84816584D01*
X103239214Y-84862107D01*
X103235115Y-84903721D01*
X103237265Y-84925550D01*
X103237264Y-85295702D01*
X103226929Y-85306037D01*
X103157961Y-85409254D01*
X103110455Y-85523944D01*
X103086237Y-85645697D01*
X103086237Y-85769835D01*
X103110455Y-85891588D01*
X103157961Y-86006278D01*
X103226929Y-86109495D01*
X103314708Y-86197274D01*
X103417925Y-86266242D01*
X103511499Y-86305001D01*
X103494429Y-86322071D01*
X103425461Y-86425288D01*
X103377955Y-86539978D01*
X103353737Y-86661731D01*
X103353737Y-86785869D01*
X103377955Y-86907622D01*
X103425461Y-87022312D01*
X103477371Y-87100000D01*
X103425461Y-87177688D01*
X103377955Y-87292378D01*
X103353737Y-87414131D01*
X103353737Y-87538269D01*
X103377955Y-87660022D01*
X103425461Y-87774712D01*
X103494429Y-87877929D01*
X103582208Y-87965708D01*
X103685425Y-88034676D01*
X103800115Y-88082182D01*
X103921868Y-88106400D01*
X104046006Y-88106400D01*
X104167759Y-88082182D01*
X104282449Y-88034676D01*
X104385666Y-87965708D01*
X104473445Y-87877929D01*
X104542413Y-87774712D01*
X104589919Y-87660022D01*
X104608509Y-87566563D01*
X104665000Y-87510072D01*
X104665001Y-88536973D01*
X104336975Y-88865000D01*
X104274925Y-88865000D01*
X104258476Y-88825288D01*
X104189508Y-88722071D01*
X104101729Y-88634292D01*
X103998512Y-88565324D01*
X103883822Y-88517818D01*
X103762069Y-88493600D01*
X103637931Y-88493600D01*
X103516178Y-88517818D01*
X103401488Y-88565324D01*
X103298271Y-88634292D01*
X103210492Y-88722071D01*
X103141524Y-88825288D01*
X103094018Y-88939978D01*
X103069800Y-89061731D01*
X103069800Y-89185869D01*
X103094018Y-89307622D01*
X103141524Y-89422312D01*
X103193434Y-89500000D01*
X103141524Y-89577688D01*
X103094018Y-89692378D01*
X103088500Y-89720117D01*
X103084616Y-89715384D01*
X103034337Y-89674121D01*
X102976973Y-89643460D01*
X102914730Y-89624578D01*
X102850000Y-89618203D01*
X101150000Y-89618203D01*
X101085270Y-89624578D01*
X101023027Y-89643460D01*
X100965663Y-89674121D01*
X100915384Y-89715384D01*
X100874121Y-89765663D01*
X100843460Y-89823027D01*
X100824578Y-89885270D01*
X100818203Y-89950000D01*
X100555200Y-89950000D01*
X100555200Y-79517374D01*
X100593910Y-79122583D01*
X100703519Y-78759541D01*
X100881553Y-78424706D01*
X101121233Y-78130830D01*
X101413433Y-77889101D01*
X101747018Y-77708732D01*
X102109288Y-77596590D01*
X102503090Y-77555200D01*
X152382625Y-77555200D01*
X152524912Y-77569152D01*
G04 #@! TA.AperFunction,Conductor*
D26*
G36*
X152524912Y-77569152D02*
G01*
X152645066Y-77605428D01*
X152755885Y-77664351D01*
X152853146Y-77743676D01*
X152933152Y-77840386D01*
X152992847Y-77950790D01*
X153029961Y-78070688D01*
X153044800Y-78211862D01*
X153044801Y-82144800D01*
X143817443Y-82144800D01*
X143800000Y-82143082D01*
X143782557Y-82144800D01*
X143730369Y-82149940D01*
X143663413Y-82170251D01*
X143601707Y-82203234D01*
X143547621Y-82247621D01*
X143503234Y-82301707D01*
X143470251Y-82363413D01*
X143449940Y-82430369D01*
X143443082Y-82500000D01*
X143444800Y-82517443D01*
X143444801Y-94482547D01*
X143443082Y-94500000D01*
X143449940Y-94569631D01*
X143470251Y-94636587D01*
X143503234Y-94698293D01*
X143547621Y-94752379D01*
X143601707Y-94796766D01*
X143663413Y-94829749D01*
X143730369Y-94850060D01*
X143782557Y-94855200D01*
X143800000Y-94856918D01*
X143817443Y-94855200D01*
X153044800Y-94855200D01*
X153044801Y-98782616D01*
X153030849Y-98924912D01*
X152994572Y-99045066D01*
X152935649Y-99155885D01*
X152856324Y-99253146D01*
X152759611Y-99333154D01*
X152649213Y-99392846D01*
X152529312Y-99429961D01*
X152388137Y-99444800D01*
X102517374Y-99444800D01*
X102122583Y-99406091D01*
X101759544Y-99296483D01*
X101424706Y-99118447D01*
X101130830Y-98878767D01*
X100889098Y-98586562D01*
X100708731Y-98252981D01*
X100596590Y-97890712D01*
X100555200Y-97496910D01*
X100555200Y-93698128D01*
X100875448Y-93698128D01*
X100951581Y-93881949D01*
X101077455Y-94076072D01*
X101238782Y-94241908D01*
X101429362Y-94373084D01*
X101641871Y-94464560D01*
X101822200Y-94424189D01*
X101822200Y-93517800D01*
X102177800Y-93517800D01*
X102177800Y-94424189D01*
X102358129Y-94464560D01*
X102570638Y-94373084D01*
X102761218Y-94241908D01*
X102922545Y-94076072D01*
X103048419Y-93881949D01*
X103124552Y-93698128D01*
X103083154Y-93517800D01*
X102177800Y-93517800D01*
X101822200Y-93517800D01*
X100916846Y-93517800D01*
X100875448Y-93698128D01*
X100555200Y-93698128D01*
X100555200Y-92981872D01*
X100875448Y-92981872D01*
X100916846Y-93162200D01*
X101822200Y-93162200D01*
X101822200Y-92255811D01*
X102177800Y-92255811D01*
X102177800Y-93162200D01*
X103083154Y-93162200D01*
X103124552Y-92981872D01*
X103048419Y-92798051D01*
X102922545Y-92603928D01*
X102761218Y-92438092D01*
X102570638Y-92306916D01*
X102358129Y-92215440D01*
X102177800Y-92255811D01*
X101822200Y-92255811D01*
X101641871Y-92215440D01*
X101429362Y-92306916D01*
X101238782Y-92438092D01*
X101077455Y-92603928D01*
X100951581Y-92798051D01*
X100875448Y-92981872D01*
X100555200Y-92981872D01*
X100555200Y-89950000D01*
X100818203Y-89950000D01*
X100818203Y-91650000D01*
X100824578Y-91714730D01*
X100843460Y-91776973D01*
X100874121Y-91834337D01*
X100915384Y-91884616D01*
X100965663Y-91925879D01*
X101023027Y-91956540D01*
X101085270Y-91975422D01*
X101150000Y-91981797D01*
X102850000Y-91981797D01*
X102914730Y-91975422D01*
X102976973Y-91956540D01*
X103034337Y-91925879D01*
X103084616Y-91884616D01*
X103125879Y-91834337D01*
X103156540Y-91776973D01*
X103175422Y-91714730D01*
X103181797Y-91650000D01*
X103181797Y-90234984D01*
X103210492Y-90277929D01*
X103298271Y-90365708D01*
X103401488Y-90434676D01*
X103516178Y-90482182D01*
X103637931Y-90506400D01*
X103762069Y-90506400D01*
X103883822Y-90482182D01*
X103998512Y-90434676D01*
X104101729Y-90365708D01*
X104189508Y-90277929D01*
X104258476Y-90174712D01*
X104274925Y-90135000D01*
X104657088Y-90135000D01*
X104678908Y-90137149D01*
X104700728Y-90135000D01*
X104700738Y-90135000D01*
X104766045Y-90128568D01*
X104849834Y-90103151D01*
X104927053Y-90061876D01*
X104994737Y-90006329D01*
X105008654Y-89989371D01*
X105789376Y-89208650D01*
X105806329Y-89194737D01*
X105828484Y-89167742D01*
X105861875Y-89127054D01*
X105861876Y-89127053D01*
X105903151Y-89049834D01*
X105928568Y-88966045D01*
X105932261Y-88928551D01*
X105941524Y-88950915D01*
X106010492Y-89054132D01*
X106098271Y-89141911D01*
X106201488Y-89210879D01*
X106316178Y-89258385D01*
X106437931Y-89282603D01*
X106562069Y-89282603D01*
X106683822Y-89258385D01*
X106798512Y-89210879D01*
X106901729Y-89141911D01*
X106989508Y-89054132D01*
X107058476Y-88950915D01*
X107105982Y-88836225D01*
X107124573Y-88742762D01*
X107365571Y-88501764D01*
X107382530Y-88487846D01*
X107438077Y-88420162D01*
X107461260Y-88376789D01*
X107479352Y-88342943D01*
X107493402Y-88296626D01*
X107497324Y-88283697D01*
X108067062Y-87713961D01*
X108159687Y-87806586D01*
X108161472Y-87809178D01*
X108190632Y-87837531D01*
X108203855Y-87850754D01*
X108206268Y-87852734D01*
X108208521Y-87854925D01*
X108223217Y-87866645D01*
X108254581Y-87892385D01*
X108257354Y-87893867D01*
X108313966Y-87939013D01*
X108334708Y-87958079D01*
X108366768Y-87977602D01*
X108398285Y-87998027D01*
X108424467Y-88008444D01*
X108512258Y-88050722D01*
X108536735Y-88064702D01*
X108572361Y-88076610D01*
X108607604Y-88089500D01*
X108635446Y-88093830D01*
X108730460Y-88115516D01*
X108757429Y-88123697D01*
X108794794Y-88127377D01*
X108832032Y-88132103D01*
X108860142Y-88130129D01*
X108957595Y-88130127D01*
X108985707Y-88132102D01*
X109022961Y-88127375D01*
X109060322Y-88123695D01*
X109086099Y-88115875D01*
X107160773Y-90041202D01*
X107074926Y-90041202D01*
X107058476Y-90001488D01*
X106989508Y-89898271D01*
X106901729Y-89810492D01*
X106798512Y-89741524D01*
X106683822Y-89694018D01*
X106562069Y-89669800D01*
X106437931Y-89669800D01*
X106316178Y-89694018D01*
X106201488Y-89741524D01*
X106098271Y-89810492D01*
X106010492Y-89898271D01*
X105941524Y-90001488D01*
X105894018Y-90116178D01*
X105869800Y-90237931D01*
X105869800Y-90362069D01*
X105894018Y-90483822D01*
X105941524Y-90598512D01*
X105993435Y-90676202D01*
X105941524Y-90753891D01*
X105894018Y-90868581D01*
X105869800Y-90990334D01*
X105869800Y-91114472D01*
X105894018Y-91236225D01*
X105941524Y-91350915D01*
X106010492Y-91454132D01*
X106098271Y-91541911D01*
X106201488Y-91610879D01*
X106316178Y-91658385D01*
X106437931Y-91682603D01*
X106562069Y-91682603D01*
X106683822Y-91658385D01*
X106798512Y-91610879D01*
X106901729Y-91541911D01*
X106989508Y-91454132D01*
X107058476Y-91350915D01*
X107074926Y-91311202D01*
X107480886Y-91311202D01*
X107502706Y-91313351D01*
X107524526Y-91311202D01*
X107524536Y-91311202D01*
X107589843Y-91304770D01*
X107673632Y-91279353D01*
X107750851Y-91238078D01*
X107818535Y-91182531D01*
X107832453Y-91165572D01*
X108339938Y-90658087D01*
X108339234Y-90658945D01*
X108299139Y-90733959D01*
X108284636Y-90781768D01*
X108274448Y-90815353D01*
X108266111Y-90900000D01*
X108268200Y-90921210D01*
X108268201Y-92378780D01*
X108266111Y-92400000D01*
X108274448Y-92484647D01*
X108286491Y-92524345D01*
X108299140Y-92566042D01*
X108339235Y-92641056D01*
X108393195Y-92706806D01*
X108409674Y-92720330D01*
X108569800Y-92880456D01*
X108569800Y-92962069D01*
X108594018Y-93083822D01*
X108641524Y-93198512D01*
X108710492Y-93301729D01*
X108798271Y-93389508D01*
X108901488Y-93458476D01*
X109016178Y-93505982D01*
X109137931Y-93530200D01*
X109262069Y-93530200D01*
X109383822Y-93505982D01*
X109498512Y-93458476D01*
X109601729Y-93389508D01*
X109689508Y-93301729D01*
X109758476Y-93198512D01*
X109805982Y-93083822D01*
X109830200Y-92962069D01*
X109830200Y-92846569D01*
X109916178Y-92882182D01*
X110037931Y-92906400D01*
X110162069Y-92906400D01*
X110283822Y-92882182D01*
X110398512Y-92834676D01*
X110501729Y-92765708D01*
X110589508Y-92677929D01*
X110658476Y-92574712D01*
X110674925Y-92535000D01*
X113957088Y-92535000D01*
X113978908Y-92537149D01*
X114000728Y-92535000D01*
X114000738Y-92535000D01*
X114066045Y-92528568D01*
X114149834Y-92503151D01*
X114227053Y-92461876D01*
X114294737Y-92406329D01*
X114308655Y-92389370D01*
X117163026Y-89535000D01*
X131856382Y-89535000D01*
X131920252Y-89598870D01*
X131934170Y-89615829D01*
X132001854Y-89671376D01*
X132079073Y-89712651D01*
X132162862Y-89738068D01*
X132228169Y-89744500D01*
X132228179Y-89744500D01*
X132249999Y-89746649D01*
X132271819Y-89744500D01*
X132436946Y-89744500D01*
X132424578Y-89785270D01*
X132418203Y-89850000D01*
X132418203Y-89883772D01*
X131936976Y-90365000D01*
X118031189Y-90365000D01*
X118000000Y-90361928D01*
X117968811Y-90365000D01*
X117968808Y-90365000D01*
X117875518Y-90374188D01*
X117767991Y-90406806D01*
X117755820Y-90410498D01*
X117645506Y-90469462D01*
X117573043Y-90528931D01*
X117573039Y-90528935D01*
X117548815Y-90548815D01*
X117528935Y-90573039D01*
X113636976Y-94465000D01*
X112856798Y-94465000D01*
X112856798Y-94350000D01*
X112850423Y-94285269D01*
X112831541Y-94223026D01*
X112800880Y-94165663D01*
X112759617Y-94115383D01*
X112709337Y-94074120D01*
X112651974Y-94043459D01*
X112589731Y-94024577D01*
X112557200Y-94021373D01*
X112557200Y-93934037D01*
X112589508Y-93901729D01*
X112658476Y-93798512D01*
X112705982Y-93683822D01*
X112730200Y-93562069D01*
X112730200Y-93437931D01*
X112705982Y-93316178D01*
X112658476Y-93201488D01*
X112589508Y-93098271D01*
X112501729Y-93010492D01*
X112398512Y-92941524D01*
X112283822Y-92894018D01*
X112162069Y-92869800D01*
X112037931Y-92869800D01*
X111916178Y-92894018D01*
X111801488Y-92941524D01*
X111698271Y-93010492D01*
X111610492Y-93098271D01*
X111541524Y-93201488D01*
X111494018Y-93316178D01*
X111469800Y-93437931D01*
X111469800Y-93562069D01*
X111494018Y-93683822D01*
X111541524Y-93798512D01*
X111610492Y-93901729D01*
X111642800Y-93934037D01*
X111642800Y-94018202D01*
X111375000Y-94018202D01*
X111310610Y-94024510D01*
X111248347Y-94043326D01*
X111225007Y-94055770D01*
X111201974Y-94043459D01*
X111139731Y-94024577D01*
X111075000Y-94018202D01*
X110075000Y-94018202D01*
X110010269Y-94024577D01*
X109948026Y-94043459D01*
X109890663Y-94074120D01*
X109840383Y-94115383D01*
X109799120Y-94165663D01*
X109768459Y-94223026D01*
X109749577Y-94285269D01*
X109743202Y-94350000D01*
X109743202Y-94465000D01*
X106663026Y-94465000D01*
X105826956Y-93628932D01*
X105754493Y-93569463D01*
X105644179Y-93510498D01*
X105524481Y-93474189D01*
X105400000Y-93461929D01*
X105275519Y-93474189D01*
X105155821Y-93510498D01*
X105045507Y-93569463D01*
X104948815Y-93648815D01*
X104869463Y-93745507D01*
X104810498Y-93855821D01*
X104774189Y-93975519D01*
X104761929Y-94100000D01*
X104774189Y-94224481D01*
X104810498Y-94344179D01*
X104869463Y-94454493D01*
X104928932Y-94526956D01*
X105928934Y-95526960D01*
X105948815Y-95551185D01*
X105973039Y-95571065D01*
X105973043Y-95571069D01*
X106045506Y-95630538D01*
X106119804Y-95670251D01*
X106155820Y-95689502D01*
X106275518Y-95725812D01*
X106368808Y-95735000D01*
X106368811Y-95735000D01*
X106400000Y-95738072D01*
X106431189Y-95735000D01*
X109743202Y-95735000D01*
X109743202Y-95850000D01*
X109749577Y-95914731D01*
X109768459Y-95976974D01*
X109799120Y-96034337D01*
X109840383Y-96084617D01*
X109890663Y-96125880D01*
X109948026Y-96156541D01*
X110010269Y-96175423D01*
X110075000Y-96181798D01*
X111075000Y-96181798D01*
X111140071Y-96175355D01*
X111202294Y-96156408D01*
X111225007Y-96144237D01*
X111248026Y-96156541D01*
X111310269Y-96175423D01*
X111375000Y-96181798D01*
X112525000Y-96181798D01*
X112589731Y-96175423D01*
X112651974Y-96156541D01*
X112709337Y-96125880D01*
X112759617Y-96084617D01*
X112800880Y-96034337D01*
X112819233Y-96000000D01*
X146543082Y-96000000D01*
X146544800Y-96017444D01*
X146544801Y-97482547D01*
X146543082Y-97500000D01*
X146549940Y-97569631D01*
X146570251Y-97636587D01*
X146603234Y-97698293D01*
X146647621Y-97752379D01*
X146701707Y-97796766D01*
X146763413Y-97829749D01*
X146830369Y-97850060D01*
X146882557Y-97855200D01*
X146900000Y-97856918D01*
X146917443Y-97855200D01*
X151882557Y-97855200D01*
X151900000Y-97856918D01*
X151917443Y-97855200D01*
X151969631Y-97850060D01*
X152036587Y-97829749D01*
X152098293Y-97796766D01*
X152152379Y-97752379D01*
X152196766Y-97698293D01*
X152229749Y-97636587D01*
X152250060Y-97569631D01*
X152256918Y-97500000D01*
X152255200Y-97482557D01*
X152255200Y-96017443D01*
X152256918Y-96000000D01*
X152250060Y-95930369D01*
X152229749Y-95863413D01*
X152196766Y-95801707D01*
X152152379Y-95747621D01*
X152098293Y-95703234D01*
X152036587Y-95670251D01*
X151969631Y-95649940D01*
X151917443Y-95644800D01*
X151900000Y-95643082D01*
X151882557Y-95644800D01*
X146917443Y-95644800D01*
X146900000Y-95643082D01*
X146882557Y-95644800D01*
X146830369Y-95649940D01*
X146763413Y-95670251D01*
X146701707Y-95703234D01*
X146647621Y-95747621D01*
X146603234Y-95801707D01*
X146570251Y-95863413D01*
X146549940Y-95930369D01*
X146543082Y-96000000D01*
X112819233Y-96000000D01*
X112831541Y-95976974D01*
X112850423Y-95914731D01*
X112856798Y-95850000D01*
X112856798Y-95735000D01*
X113868819Y-95735000D01*
X113900000Y-95738071D01*
X113931181Y-95735000D01*
X113931192Y-95735000D01*
X114024482Y-95725812D01*
X114144180Y-95689502D01*
X114254494Y-95630537D01*
X114351185Y-95551185D01*
X114371074Y-95526950D01*
X115948024Y-93950000D01*
X132668202Y-93950000D01*
X132674577Y-94014731D01*
X132693459Y-94076974D01*
X132724120Y-94134337D01*
X132765383Y-94184617D01*
X132815663Y-94225880D01*
X132873026Y-94256541D01*
X132935269Y-94275423D01*
X133000000Y-94281798D01*
X133589650Y-94280200D01*
X133672200Y-94197650D01*
X133672200Y-93127800D01*
X134027800Y-93127800D01*
X134027800Y-94197650D01*
X134110350Y-94280200D01*
X134700000Y-94281798D01*
X134764731Y-94275423D01*
X134826974Y-94256541D01*
X134884337Y-94225880D01*
X134934617Y-94184617D01*
X134975880Y-94134337D01*
X135006541Y-94076974D01*
X135025423Y-94014731D01*
X135031798Y-93950000D01*
X138118202Y-93950000D01*
X138124577Y-94014731D01*
X138143459Y-94076974D01*
X138174120Y-94134337D01*
X138215383Y-94184617D01*
X138265663Y-94225880D01*
X138323026Y-94256541D01*
X138385269Y-94275423D01*
X138450000Y-94281798D01*
X139039650Y-94280200D01*
X139122200Y-94197650D01*
X139122200Y-93127800D01*
X139477800Y-93127800D01*
X139477800Y-94197650D01*
X139560350Y-94280200D01*
X140150000Y-94281798D01*
X140214731Y-94275423D01*
X140276974Y-94256541D01*
X140334337Y-94225880D01*
X140384617Y-94184617D01*
X140425880Y-94134337D01*
X140456541Y-94076974D01*
X140475423Y-94014731D01*
X140481798Y-93950000D01*
X140480200Y-93210350D01*
X140397650Y-93127800D01*
X139477800Y-93127800D01*
X139122200Y-93127800D01*
X138202350Y-93127800D01*
X138119800Y-93210350D01*
X138118202Y-93950000D01*
X135031798Y-93950000D01*
X135030200Y-93210350D01*
X134947650Y-93127800D01*
X134027800Y-93127800D01*
X133672200Y-93127800D01*
X132752350Y-93127800D01*
X132669800Y-93210350D01*
X132668202Y-93950000D01*
X115948024Y-93950000D01*
X117948025Y-91950000D01*
X132668202Y-91950000D01*
X132669800Y-92689650D01*
X132752350Y-92772200D01*
X133672200Y-92772200D01*
X133672200Y-91702350D01*
X134027800Y-91702350D01*
X134027800Y-92772200D01*
X134947650Y-92772200D01*
X135030200Y-92689650D01*
X135031798Y-91950000D01*
X138118202Y-91950000D01*
X138119800Y-92689650D01*
X138202350Y-92772200D01*
X139122200Y-92772200D01*
X139122200Y-91702350D01*
X139477800Y-91702350D01*
X139477800Y-92772200D01*
X140397650Y-92772200D01*
X140480200Y-92689650D01*
X140481798Y-91950000D01*
X140475423Y-91885269D01*
X140456541Y-91823026D01*
X140425880Y-91765663D01*
X140384617Y-91715383D01*
X140334337Y-91674120D01*
X140276974Y-91643459D01*
X140214731Y-91624577D01*
X140150000Y-91618202D01*
X139560350Y-91619800D01*
X139477800Y-91702350D01*
X139122200Y-91702350D01*
X139039650Y-91619800D01*
X138450000Y-91618202D01*
X138385269Y-91624577D01*
X138323026Y-91643459D01*
X138265663Y-91674120D01*
X138215383Y-91715383D01*
X138174120Y-91765663D01*
X138143459Y-91823026D01*
X138124577Y-91885269D01*
X138118202Y-91950000D01*
X135031798Y-91950000D01*
X135025423Y-91885269D01*
X135006541Y-91823026D01*
X134975880Y-91765663D01*
X134934617Y-91715383D01*
X134884337Y-91674120D01*
X134826974Y-91643459D01*
X134764731Y-91624577D01*
X134700000Y-91618202D01*
X134110350Y-91619800D01*
X134027800Y-91702350D01*
X133672200Y-91702350D01*
X133589650Y-91619800D01*
X133000000Y-91618202D01*
X132935269Y-91624577D01*
X132873026Y-91643459D01*
X132815663Y-91674120D01*
X132765383Y-91715383D01*
X132724120Y-91765663D01*
X132693459Y-91823026D01*
X132674577Y-91885269D01*
X132668202Y-91950000D01*
X117948025Y-91950000D01*
X118263026Y-91635000D01*
X132168819Y-91635000D01*
X132200000Y-91638071D01*
X132231181Y-91635000D01*
X132231192Y-91635000D01*
X132324482Y-91625812D01*
X132444180Y-91589502D01*
X132554494Y-91530537D01*
X132651185Y-91451185D01*
X132671074Y-91426950D01*
X133363025Y-90735000D01*
X133781192Y-90735000D01*
X133874482Y-90725812D01*
X133994180Y-90689502D01*
X134008595Y-90681797D01*
X134750000Y-90681797D01*
X134814730Y-90675422D01*
X134876973Y-90656540D01*
X134934337Y-90625879D01*
X134943654Y-90618232D01*
X135619800Y-90618232D01*
X135619800Y-90781768D01*
X135651704Y-90942160D01*
X135714286Y-91093247D01*
X135805142Y-91229222D01*
X135920778Y-91344858D01*
X136056753Y-91435714D01*
X136207840Y-91498296D01*
X136368232Y-91530200D01*
X136531768Y-91530200D01*
X136692160Y-91498296D01*
X136843247Y-91435714D01*
X136979222Y-91344858D01*
X137094858Y-91229222D01*
X137185714Y-91093247D01*
X137248296Y-90942160D01*
X137280200Y-90781768D01*
X137280200Y-90618232D01*
X137248296Y-90457840D01*
X137185714Y-90306753D01*
X137094858Y-90170778D01*
X136979222Y-90055142D01*
X136843247Y-89964286D01*
X136692160Y-89901704D01*
X136531768Y-89869800D01*
X136368232Y-89869800D01*
X136207840Y-89901704D01*
X136056753Y-89964286D01*
X135920778Y-90055142D01*
X135805142Y-90170778D01*
X135714286Y-90306753D01*
X135651704Y-90457840D01*
X135619800Y-90618232D01*
X134943654Y-90618232D01*
X134984616Y-90584616D01*
X135025879Y-90534337D01*
X135056540Y-90476973D01*
X135075422Y-90414730D01*
X135081797Y-90350000D01*
X135081797Y-89850000D01*
X135075422Y-89785270D01*
X135056540Y-89723027D01*
X135044232Y-89700000D01*
X135056540Y-89676973D01*
X135075422Y-89614730D01*
X135081797Y-89550000D01*
X135081797Y-89050000D01*
X135075422Y-88985270D01*
X135056540Y-88923027D01*
X135044232Y-88900000D01*
X135056540Y-88876973D01*
X135075422Y-88814730D01*
X135081797Y-88750000D01*
X135081797Y-88250000D01*
X135075422Y-88185270D01*
X135056540Y-88123027D01*
X135044232Y-88100000D01*
X135056540Y-88076973D01*
X135075422Y-88014730D01*
X135081797Y-87950000D01*
X135081797Y-87450000D01*
X135075422Y-87385270D01*
X135056540Y-87323027D01*
X135044243Y-87300021D01*
X135056194Y-87277808D01*
X135075245Y-87215617D01*
X135080200Y-87156350D01*
X134997650Y-87073800D01*
X133927800Y-87073800D01*
X133927800Y-87097800D01*
X133572200Y-87097800D01*
X133572200Y-87073800D01*
X132502350Y-87073800D01*
X132419800Y-87156350D01*
X132424755Y-87215617D01*
X132440863Y-87268200D01*
X115821210Y-87268200D01*
X115800000Y-87266111D01*
X115731435Y-87272864D01*
X115715352Y-87274448D01*
X115633958Y-87299139D01*
X115558944Y-87339234D01*
X115493194Y-87393194D01*
X115479670Y-87409673D01*
X113221144Y-89668200D01*
X109521210Y-89668200D01*
X109500000Y-89666111D01*
X109415352Y-89674448D01*
X109333957Y-89699139D01*
X109322478Y-89705275D01*
X109258944Y-89739234D01*
X109258093Y-89739932D01*
X110610956Y-88387070D01*
X110703580Y-88479693D01*
X110705362Y-88482281D01*
X110734508Y-88510621D01*
X110747751Y-88523864D01*
X110750166Y-88525846D01*
X110752410Y-88528028D01*
X110767082Y-88539729D01*
X110798477Y-88565495D01*
X110801246Y-88566975D01*
X110857860Y-88612125D01*
X110878602Y-88631191D01*
X110910640Y-88650700D01*
X110942170Y-88671135D01*
X110968364Y-88681557D01*
X111056163Y-88723840D01*
X111080637Y-88737817D01*
X111116247Y-88749719D01*
X111151498Y-88762612D01*
X111179345Y-88766943D01*
X111274361Y-88788629D01*
X111301318Y-88796806D01*
X111338672Y-88800485D01*
X111375936Y-88805213D01*
X111404043Y-88803238D01*
X111501491Y-88803240D01*
X111529601Y-88805214D01*
X111566845Y-88800488D01*
X111604209Y-88796808D01*
X111631173Y-88788629D01*
X111726194Y-88766941D01*
X111754033Y-88762612D01*
X111789284Y-88749720D01*
X111824900Y-88737815D01*
X111849370Y-88723839D01*
X111937166Y-88681559D01*
X111963356Y-88671138D01*
X111994873Y-88650712D01*
X112026930Y-88631192D01*
X112047676Y-88612122D01*
X112104287Y-88566976D01*
X112107060Y-88565494D01*
X112138471Y-88539716D01*
X112153119Y-88528034D01*
X112155361Y-88525854D01*
X112157787Y-88523863D01*
X112171061Y-88510589D01*
X112196576Y-88485780D01*
X112196892Y-88485562D01*
X112198489Y-88483919D01*
X112200168Y-88482287D01*
X112200390Y-88481964D01*
X112225229Y-88456418D01*
X112238474Y-88443173D01*
X112240455Y-88440759D01*
X112242639Y-88438513D01*
X112254342Y-88423837D01*
X112280105Y-88392446D01*
X112281586Y-88389676D01*
X112326728Y-88333069D01*
X112345797Y-88312324D01*
X112365316Y-88280271D01*
X112385743Y-88248752D01*
X112396165Y-88222559D01*
X112438443Y-88134767D01*
X112452419Y-88110296D01*
X112464318Y-88074695D01*
X112477218Y-88039427D01*
X112481549Y-88011576D01*
X112503233Y-87916571D01*
X112511414Y-87889602D01*
X112515094Y-87852235D01*
X112519820Y-87814998D01*
X112517846Y-87786888D01*
X112517844Y-87689434D01*
X112519819Y-87661322D01*
X112515092Y-87624074D01*
X112511412Y-87586711D01*
X112503231Y-87559743D01*
X112481547Y-87464740D01*
X112477218Y-87436899D01*
X112464324Y-87401644D01*
X112452418Y-87366024D01*
X112438441Y-87341551D01*
X112396163Y-87253755D01*
X112385741Y-87227563D01*
X112365319Y-87196052D01*
X112345802Y-87164001D01*
X112326731Y-87143252D01*
X112281584Y-87086643D01*
X112280102Y-87083870D01*
X112254301Y-87052432D01*
X112242634Y-87037803D01*
X112240458Y-87035565D01*
X112238471Y-87033144D01*
X112225193Y-87019866D01*
X112196887Y-86990755D01*
X112194302Y-86988975D01*
X112101676Y-86896349D01*
X112354375Y-86643650D01*
X132419800Y-86643650D01*
X132502350Y-86726200D01*
X133572200Y-86726200D01*
X133572200Y-86402350D01*
X133927800Y-86402350D01*
X133927800Y-86726200D01*
X134997650Y-86726200D01*
X135080200Y-86643650D01*
X135075245Y-86584383D01*
X135056194Y-86522192D01*
X135025377Y-86464912D01*
X134983976Y-86414745D01*
X134933585Y-86373619D01*
X134876138Y-86343114D01*
X134813844Y-86324402D01*
X134749096Y-86318203D01*
X134010350Y-86319800D01*
X133927800Y-86402350D01*
X133572200Y-86402350D01*
X133489650Y-86319800D01*
X132750904Y-86318203D01*
X132686156Y-86324402D01*
X132623862Y-86343114D01*
X132566415Y-86373619D01*
X132516024Y-86414745D01*
X132474623Y-86464912D01*
X132443806Y-86522192D01*
X132424755Y-86584383D01*
X132419800Y-86643650D01*
X112354375Y-86643650D01*
X112779793Y-86218232D01*
X135619800Y-86218232D01*
X135619800Y-86381768D01*
X135651704Y-86542160D01*
X135714286Y-86693247D01*
X135805142Y-86829222D01*
X135920778Y-86944858D01*
X136056753Y-87035714D01*
X136207840Y-87098296D01*
X136368232Y-87130200D01*
X136531768Y-87130200D01*
X136692160Y-87098296D01*
X136843247Y-87035714D01*
X136979222Y-86944858D01*
X137094858Y-86829222D01*
X137185714Y-86693247D01*
X137248296Y-86542160D01*
X137280200Y-86381768D01*
X137280200Y-86218232D01*
X137248296Y-86057840D01*
X137185714Y-85906753D01*
X137094858Y-85770778D01*
X136979222Y-85655142D01*
X136843247Y-85564286D01*
X136692160Y-85501704D01*
X136531768Y-85469800D01*
X136368232Y-85469800D01*
X136207840Y-85501704D01*
X136056753Y-85564286D01*
X135920778Y-85655142D01*
X135805142Y-85770778D01*
X135714286Y-85906753D01*
X135651704Y-86057840D01*
X135619800Y-86218232D01*
X112779793Y-86218232D01*
X113948025Y-85050000D01*
X132668202Y-85050000D01*
X132674577Y-85114731D01*
X132693459Y-85176974D01*
X132724120Y-85234337D01*
X132765383Y-85284617D01*
X132815663Y-85325880D01*
X132873026Y-85356541D01*
X132935269Y-85375423D01*
X133000000Y-85381798D01*
X133589650Y-85380200D01*
X133672200Y-85297650D01*
X133672200Y-84227800D01*
X134027800Y-84227800D01*
X134027800Y-85297650D01*
X134110350Y-85380200D01*
X134700000Y-85381798D01*
X134764731Y-85375423D01*
X134826974Y-85356541D01*
X134884337Y-85325880D01*
X134934617Y-85284617D01*
X134975880Y-85234337D01*
X135006541Y-85176974D01*
X135025423Y-85114731D01*
X135031798Y-85050000D01*
X138118202Y-85050000D01*
X138124577Y-85114731D01*
X138143459Y-85176974D01*
X138174120Y-85234337D01*
X138215383Y-85284617D01*
X138265663Y-85325880D01*
X138323026Y-85356541D01*
X138385269Y-85375423D01*
X138450000Y-85381798D01*
X139039650Y-85380200D01*
X139122200Y-85297650D01*
X139122200Y-84227800D01*
X139477800Y-84227800D01*
X139477800Y-85297650D01*
X139560350Y-85380200D01*
X140150000Y-85381798D01*
X140214731Y-85375423D01*
X140276974Y-85356541D01*
X140334337Y-85325880D01*
X140384617Y-85284617D01*
X140425880Y-85234337D01*
X140456541Y-85176974D01*
X140475423Y-85114731D01*
X140481798Y-85050000D01*
X140480200Y-84310350D01*
X140397650Y-84227800D01*
X139477800Y-84227800D01*
X139122200Y-84227800D01*
X138202350Y-84227800D01*
X138119800Y-84310350D01*
X138118202Y-85050000D01*
X135031798Y-85050000D01*
X135030200Y-84310350D01*
X134947650Y-84227800D01*
X134027800Y-84227800D01*
X133672200Y-84227800D01*
X132752350Y-84227800D01*
X132669800Y-84310350D01*
X132668202Y-85050000D01*
X113948025Y-85050000D01*
X115948025Y-83050000D01*
X132668202Y-83050000D01*
X132669800Y-83789650D01*
X132752350Y-83872200D01*
X133672200Y-83872200D01*
X133672200Y-82802350D01*
X134027800Y-82802350D01*
X134027800Y-83872200D01*
X134947650Y-83872200D01*
X135030200Y-83789650D01*
X135031798Y-83050000D01*
X138118202Y-83050000D01*
X138119800Y-83789650D01*
X138202350Y-83872200D01*
X139122200Y-83872200D01*
X139122200Y-82802350D01*
X139477800Y-82802350D01*
X139477800Y-83872200D01*
X140397650Y-83872200D01*
X140480200Y-83789650D01*
X140481798Y-83050000D01*
X140475423Y-82985269D01*
X140456541Y-82923026D01*
X140425880Y-82865663D01*
X140384617Y-82815383D01*
X140334337Y-82774120D01*
X140276974Y-82743459D01*
X140214731Y-82724577D01*
X140150000Y-82718202D01*
X139560350Y-82719800D01*
X139477800Y-82802350D01*
X139122200Y-82802350D01*
X139039650Y-82719800D01*
X138450000Y-82718202D01*
X138385269Y-82724577D01*
X138323026Y-82743459D01*
X138265663Y-82774120D01*
X138215383Y-82815383D01*
X138174120Y-82865663D01*
X138143459Y-82923026D01*
X138124577Y-82985269D01*
X138118202Y-83050000D01*
X135031798Y-83050000D01*
X135025423Y-82985269D01*
X135006541Y-82923026D01*
X134975880Y-82865663D01*
X134934617Y-82815383D01*
X134884337Y-82774120D01*
X134826974Y-82743459D01*
X134764731Y-82724577D01*
X134700000Y-82718202D01*
X134110350Y-82719800D01*
X134027800Y-82802350D01*
X133672200Y-82802350D01*
X133589650Y-82719800D01*
X133000000Y-82718202D01*
X132935269Y-82724577D01*
X132873026Y-82743459D01*
X132815663Y-82774120D01*
X132765383Y-82815383D01*
X132724120Y-82865663D01*
X132693459Y-82923026D01*
X132674577Y-82985269D01*
X132668202Y-83050000D01*
X115948025Y-83050000D01*
X116448025Y-82550000D01*
X121368202Y-82550000D01*
X121374577Y-82614731D01*
X121393459Y-82676974D01*
X121424120Y-82734337D01*
X121465383Y-82784617D01*
X121515663Y-82825880D01*
X121573026Y-82856541D01*
X121635269Y-82875423D01*
X121700000Y-82881798D01*
X122264650Y-82880200D01*
X122347200Y-82797650D01*
X122347200Y-82077800D01*
X122702800Y-82077800D01*
X122702800Y-82797650D01*
X122785350Y-82880200D01*
X123350000Y-82881798D01*
X123414731Y-82875423D01*
X123476974Y-82856541D01*
X123534337Y-82825880D01*
X123584617Y-82784617D01*
X123625880Y-82734337D01*
X123656541Y-82676974D01*
X123675423Y-82614731D01*
X123681798Y-82550000D01*
X123680200Y-82160350D01*
X123597650Y-82077800D01*
X122702800Y-82077800D01*
X122347200Y-82077800D01*
X121452350Y-82077800D01*
X121369800Y-82160350D01*
X121368202Y-82550000D01*
X116448025Y-82550000D01*
X116989376Y-82008650D01*
X117006329Y-81994737D01*
X117028484Y-81967742D01*
X117059293Y-81930200D01*
X117061876Y-81927053D01*
X117103151Y-81849834D01*
X117128568Y-81766045D01*
X117135000Y-81700738D01*
X117135000Y-81700729D01*
X117137149Y-81678909D01*
X117135000Y-81657089D01*
X117135000Y-81637931D01*
X118569800Y-81637931D01*
X118569800Y-81762069D01*
X118594018Y-81883822D01*
X118641524Y-81998512D01*
X118710492Y-82101729D01*
X118798271Y-82189508D01*
X118901488Y-82258476D01*
X119016178Y-82305982D01*
X119137931Y-82330200D01*
X119262069Y-82330200D01*
X119383822Y-82305982D01*
X119498512Y-82258476D01*
X119601729Y-82189508D01*
X119689508Y-82101729D01*
X119758476Y-81998512D01*
X119799640Y-81899132D01*
X119816178Y-81905982D01*
X119937931Y-81930200D01*
X120062069Y-81930200D01*
X120183822Y-81905982D01*
X120298512Y-81858476D01*
X120401729Y-81789508D01*
X120489508Y-81701729D01*
X120558476Y-81598512D01*
X120605982Y-81483822D01*
X120630200Y-81362069D01*
X120630200Y-81250000D01*
X121368202Y-81250000D01*
X121369800Y-81639650D01*
X121452350Y-81722200D01*
X122347200Y-81722200D01*
X122347200Y-81002350D01*
X122702800Y-81002350D01*
X122702800Y-81722200D01*
X123597650Y-81722200D01*
X123680200Y-81639650D01*
X123681798Y-81250000D01*
X123675423Y-81185269D01*
X123656541Y-81123026D01*
X123625880Y-81065663D01*
X123584617Y-81015383D01*
X123534337Y-80974120D01*
X123476974Y-80943459D01*
X123414731Y-80924577D01*
X123350000Y-80918202D01*
X122785350Y-80919800D01*
X122702800Y-81002350D01*
X122347200Y-81002350D01*
X122264650Y-80919800D01*
X121700000Y-80918202D01*
X121635269Y-80924577D01*
X121573026Y-80943459D01*
X121515663Y-80974120D01*
X121465383Y-81015383D01*
X121424120Y-81065663D01*
X121393459Y-81123026D01*
X121374577Y-81185269D01*
X121368202Y-81250000D01*
X120630200Y-81250000D01*
X120630200Y-81237931D01*
X120605982Y-81116178D01*
X120558476Y-81001488D01*
X120489508Y-80898271D01*
X120420969Y-80829732D01*
X120464730Y-80825422D01*
X120526973Y-80806540D01*
X120584337Y-80775879D01*
X120634616Y-80734616D01*
X120675879Y-80684337D01*
X120706540Y-80626973D01*
X120725422Y-80564730D01*
X120731797Y-80500000D01*
X120731797Y-79500000D01*
X146543082Y-79500000D01*
X146544800Y-79517444D01*
X146544801Y-80982547D01*
X146543082Y-81000000D01*
X146549940Y-81069631D01*
X146570251Y-81136587D01*
X146603234Y-81198293D01*
X146647621Y-81252379D01*
X146701707Y-81296766D01*
X146763413Y-81329749D01*
X146830369Y-81350060D01*
X146882557Y-81355200D01*
X146900000Y-81356918D01*
X146917443Y-81355200D01*
X151882557Y-81355200D01*
X151900000Y-81356918D01*
X151917443Y-81355200D01*
X151969631Y-81350060D01*
X152036587Y-81329749D01*
X152098293Y-81296766D01*
X152152379Y-81252379D01*
X152196766Y-81198293D01*
X152229749Y-81136587D01*
X152250060Y-81069631D01*
X152256918Y-81000000D01*
X152255200Y-80982557D01*
X152255200Y-79517443D01*
X152256918Y-79500000D01*
X152250060Y-79430369D01*
X152229749Y-79363413D01*
X152196766Y-79301707D01*
X152152379Y-79247621D01*
X152098293Y-79203234D01*
X152036587Y-79170251D01*
X151969631Y-79149940D01*
X151917443Y-79144800D01*
X151900000Y-79143082D01*
X151882557Y-79144800D01*
X146917443Y-79144800D01*
X146900000Y-79143082D01*
X146882557Y-79144800D01*
X146830369Y-79149940D01*
X146763413Y-79170251D01*
X146701707Y-79203234D01*
X146647621Y-79247621D01*
X146603234Y-79301707D01*
X146570251Y-79363413D01*
X146549940Y-79430369D01*
X146543082Y-79500000D01*
X120731797Y-79500000D01*
X120725422Y-79435270D01*
X120706540Y-79373027D01*
X120675879Y-79315663D01*
X120634616Y-79265384D01*
X120584337Y-79224121D01*
X120526973Y-79193460D01*
X120464730Y-79174578D01*
X120400000Y-79168203D01*
X120100000Y-79168203D01*
X120035270Y-79174578D01*
X120000000Y-79185277D01*
X119964730Y-79174578D01*
X119900000Y-79168203D01*
X119600000Y-79168203D01*
X119535270Y-79174578D01*
X119500000Y-79185277D01*
X119464730Y-79174578D01*
X119400000Y-79168203D01*
X119100000Y-79168203D01*
X119035270Y-79174578D01*
X118999973Y-79185286D01*
X118966283Y-79174890D01*
X118906350Y-79169800D01*
X118823800Y-79252350D01*
X118823800Y-79316264D01*
X118793460Y-79373027D01*
X118774578Y-79435270D01*
X118768203Y-79500000D01*
X118768203Y-80500000D01*
X118774578Y-80564730D01*
X118793460Y-80626973D01*
X118818200Y-80673260D01*
X118818201Y-81197175D01*
X118798271Y-81210492D01*
X118710492Y-81298271D01*
X118641524Y-81401488D01*
X118594018Y-81516178D01*
X118569800Y-81637931D01*
X117135000Y-81637931D01*
X117135000Y-80972658D01*
X117162651Y-80920927D01*
X117188068Y-80837138D01*
X117194500Y-80771831D01*
X117194500Y-80771821D01*
X117196649Y-80750001D01*
X117194500Y-80728181D01*
X117194500Y-80649499D01*
X117206540Y-80626973D01*
X117225422Y-80564730D01*
X117231797Y-80500000D01*
X117231797Y-79500000D01*
X117268203Y-79500000D01*
X117268203Y-80500000D01*
X117274578Y-80564730D01*
X117293460Y-80626973D01*
X117323800Y-80683736D01*
X117323800Y-80747650D01*
X117406350Y-80830200D01*
X117466283Y-80825110D01*
X117499973Y-80814714D01*
X117535270Y-80825422D01*
X117600000Y-80831797D01*
X117900000Y-80831797D01*
X117964730Y-80825422D01*
X118000000Y-80814723D01*
X118035270Y-80825422D01*
X118100000Y-80831797D01*
X118400000Y-80831797D01*
X118464730Y-80825422D01*
X118500027Y-80814714D01*
X118533717Y-80825110D01*
X118593650Y-80830200D01*
X118676200Y-80747650D01*
X118676200Y-80683736D01*
X118706540Y-80626973D01*
X118725422Y-80564730D01*
X118731797Y-80500000D01*
X118731797Y-79500000D01*
X118725422Y-79435270D01*
X118706540Y-79373027D01*
X118676200Y-79316264D01*
X118676200Y-79252350D01*
X118593650Y-79169800D01*
X118533717Y-79174890D01*
X118500027Y-79185286D01*
X118464730Y-79174578D01*
X118400000Y-79168203D01*
X118100000Y-79168203D01*
X118035270Y-79174578D01*
X118000000Y-79185277D01*
X117964730Y-79174578D01*
X117900000Y-79168203D01*
X117600000Y-79168203D01*
X117535270Y-79174578D01*
X117499973Y-79185286D01*
X117466283Y-79174890D01*
X117406350Y-79169800D01*
X117323800Y-79252350D01*
X117323800Y-79316264D01*
X117293460Y-79373027D01*
X117274578Y-79435270D01*
X117268203Y-79500000D01*
X117231797Y-79500000D01*
X117225422Y-79435270D01*
X117206540Y-79373027D01*
X117176200Y-79316264D01*
X117176200Y-79252350D01*
X117093650Y-79169800D01*
X117033717Y-79174890D01*
X117000027Y-79185286D01*
X116964730Y-79174578D01*
X116900000Y-79168203D01*
X116600000Y-79168203D01*
X116535270Y-79174578D01*
X116500000Y-79185277D01*
X116464730Y-79174578D01*
X116400000Y-79168203D01*
X116100000Y-79168203D01*
X116035270Y-79174578D01*
X115999973Y-79185286D01*
X115966283Y-79174890D01*
X115906350Y-79169800D01*
X115823800Y-79252350D01*
X115823800Y-79316264D01*
X115793460Y-79373027D01*
X115774578Y-79435270D01*
X115768203Y-79500000D01*
X115768203Y-80500000D01*
X115774578Y-80564730D01*
X115793460Y-80626973D01*
X115805501Y-80649500D01*
X115805501Y-80728172D01*
X115803351Y-80750001D01*
X115811933Y-80837138D01*
X115837349Y-80920926D01*
X115865000Y-80972658D01*
X115865001Y-81336973D01*
X111145090Y-86056886D01*
X111152912Y-86031099D01*
X111156592Y-85993732D01*
X111161318Y-85956495D01*
X111159344Y-85928385D01*
X111159342Y-85830931D01*
X111161317Y-85802819D01*
X111156590Y-85765571D01*
X111152910Y-85728208D01*
X111144729Y-85701240D01*
X111123045Y-85606237D01*
X111118716Y-85578396D01*
X111105822Y-85543141D01*
X111093916Y-85507521D01*
X111079939Y-85483048D01*
X111037661Y-85395252D01*
X111027239Y-85369060D01*
X111006817Y-85337549D01*
X110987300Y-85305498D01*
X110968229Y-85284749D01*
X110923082Y-85228140D01*
X110921600Y-85225367D01*
X110895799Y-85193929D01*
X110884132Y-85179300D01*
X110881956Y-85177062D01*
X110879969Y-85174641D01*
X110866691Y-85161363D01*
X110838385Y-85132252D01*
X110835800Y-85130472D01*
X110743174Y-85037846D01*
X113989376Y-81791645D01*
X114006329Y-81777732D01*
X114020242Y-81760779D01*
X114020245Y-81760776D01*
X114061876Y-81710049D01*
X114103151Y-81632829D01*
X114108816Y-81614155D01*
X114128568Y-81549040D01*
X114135000Y-81483733D01*
X114135000Y-81483723D01*
X114137149Y-81461903D01*
X114135000Y-81440083D01*
X114135000Y-80972658D01*
X114162651Y-80920927D01*
X114188068Y-80837138D01*
X114194500Y-80771831D01*
X114194500Y-80771821D01*
X114196649Y-80750001D01*
X114194500Y-80728181D01*
X114194500Y-80649499D01*
X114206540Y-80626973D01*
X114225422Y-80564730D01*
X114231797Y-80500000D01*
X114231797Y-79802200D01*
X114268203Y-79802200D01*
X114268203Y-80500000D01*
X114274578Y-80564730D01*
X114293460Y-80626973D01*
X114323800Y-80683736D01*
X114323800Y-80747650D01*
X114406350Y-80830200D01*
X114466283Y-80825110D01*
X114499973Y-80814714D01*
X114535270Y-80825422D01*
X114600000Y-80831797D01*
X114900000Y-80831797D01*
X114964730Y-80825422D01*
X115000000Y-80814723D01*
X115035270Y-80825422D01*
X115100000Y-80831797D01*
X115400000Y-80831797D01*
X115464730Y-80825422D01*
X115500027Y-80814714D01*
X115533717Y-80825110D01*
X115593650Y-80830200D01*
X115676200Y-80747650D01*
X115676200Y-80683736D01*
X115706540Y-80626973D01*
X115725422Y-80564730D01*
X115731797Y-80500000D01*
X115731797Y-79500000D01*
X115725422Y-79435270D01*
X115706540Y-79373027D01*
X115676200Y-79316264D01*
X115676200Y-79252350D01*
X115636298Y-79212448D01*
X115635000Y-79199271D01*
X115635000Y-79199262D01*
X115628568Y-79133955D01*
X115603151Y-79050166D01*
X115561876Y-78972947D01*
X115539646Y-78945860D01*
X115520244Y-78922218D01*
X115520242Y-78922216D01*
X115506329Y-78905263D01*
X115489377Y-78891351D01*
X114708654Y-78110629D01*
X114694737Y-78093671D01*
X114627053Y-78038124D01*
X114549834Y-77996849D01*
X114466045Y-77971432D01*
X114400738Y-77965000D01*
X114400728Y-77965000D01*
X114378908Y-77962851D01*
X114357088Y-77965000D01*
X106942912Y-77965000D01*
X106921092Y-77962851D01*
X106899272Y-77965000D01*
X106899262Y-77965000D01*
X106833955Y-77971432D01*
X106750166Y-77996849D01*
X106672946Y-78038124D01*
X106622219Y-78079755D01*
X106622216Y-78079758D01*
X106605263Y-78093671D01*
X106591350Y-78110624D01*
X103417562Y-81284413D01*
X103400609Y-81298326D01*
X103386696Y-81315279D01*
X103386692Y-81315283D01*
X103345061Y-81366010D01*
X103303786Y-81443230D01*
X103278370Y-81527018D01*
X103269788Y-81614155D01*
X103271938Y-81635985D01*
X103271937Y-84727513D01*
X103269113Y-84732796D01*
X103246080Y-84808728D01*
X103243697Y-84816584D01*
X103239214Y-84862107D01*
X103235115Y-84903721D01*
X103237265Y-84925550D01*
X103237264Y-85295702D01*
X103226929Y-85306037D01*
X103157961Y-85409254D01*
X103110455Y-85523944D01*
X103086237Y-85645697D01*
X103086237Y-85769835D01*
X103110455Y-85891588D01*
X103157961Y-86006278D01*
X103226929Y-86109495D01*
X103314708Y-86197274D01*
X103417925Y-86266242D01*
X103511499Y-86305001D01*
X103494429Y-86322071D01*
X103425461Y-86425288D01*
X103377955Y-86539978D01*
X103353737Y-86661731D01*
X103353737Y-86785869D01*
X103377955Y-86907622D01*
X103425461Y-87022312D01*
X103477371Y-87100000D01*
X103425461Y-87177688D01*
X103377955Y-87292378D01*
X103353737Y-87414131D01*
X103353737Y-87538269D01*
X103377955Y-87660022D01*
X103425461Y-87774712D01*
X103494429Y-87877929D01*
X103582208Y-87965708D01*
X103685425Y-88034676D01*
X103800115Y-88082182D01*
X103921868Y-88106400D01*
X104046006Y-88106400D01*
X104167759Y-88082182D01*
X104282449Y-88034676D01*
X104385666Y-87965708D01*
X104473445Y-87877929D01*
X104542413Y-87774712D01*
X104589919Y-87660022D01*
X104608509Y-87566563D01*
X104665000Y-87510072D01*
X104665001Y-88536973D01*
X104336975Y-88865000D01*
X104274925Y-88865000D01*
X104258476Y-88825288D01*
X104189508Y-88722071D01*
X104101729Y-88634292D01*
X103998512Y-88565324D01*
X103883822Y-88517818D01*
X103762069Y-88493600D01*
X103637931Y-88493600D01*
X103516178Y-88517818D01*
X103401488Y-88565324D01*
X103298271Y-88634292D01*
X103210492Y-88722071D01*
X103141524Y-88825288D01*
X103094018Y-88939978D01*
X103069800Y-89061731D01*
X103069800Y-89185869D01*
X103094018Y-89307622D01*
X103141524Y-89422312D01*
X103193434Y-89500000D01*
X103141524Y-89577688D01*
X103094018Y-89692378D01*
X103088500Y-89720117D01*
X103084616Y-89715384D01*
X103034337Y-89674121D01*
X102976973Y-89643460D01*
X102914730Y-89624578D01*
X102850000Y-89618203D01*
X101150000Y-89618203D01*
X101085270Y-89624578D01*
X101023027Y-89643460D01*
X100965663Y-89674121D01*
X100915384Y-89715384D01*
X100874121Y-89765663D01*
X100843460Y-89823027D01*
X100824578Y-89885270D01*
X100818203Y-89950000D01*
X100555200Y-89950000D01*
X100555200Y-79517374D01*
X100593910Y-79122583D01*
X100703519Y-78759541D01*
X100881553Y-78424706D01*
X101121233Y-78130830D01*
X101413433Y-77889101D01*
X101747018Y-77708732D01*
X102109288Y-77596590D01*
X102503090Y-77555200D01*
X152382625Y-77555200D01*
X152524912Y-77569152D01*
G37*
G04 #@! TD.AperFunction*
D25*
X131934170Y-88184171D02*
X131920252Y-88201130D01*
X131856382Y-88265000D01*
X116842912Y-88265000D01*
X116821092Y-88262851D01*
X116799272Y-88265000D01*
X116799262Y-88265000D01*
X116733955Y-88271432D01*
X116665713Y-88292133D01*
X116650166Y-88296849D01*
X116572946Y-88338124D01*
X116522219Y-88379755D01*
X116522216Y-88379758D01*
X116505263Y-88393671D01*
X116491350Y-88410624D01*
X113636975Y-91265000D01*
X110674925Y-91265000D01*
X110658476Y-91225288D01*
X110589508Y-91122071D01*
X110501729Y-91034292D01*
X110398512Y-90965324D01*
X110283822Y-90917818D01*
X110162069Y-90893600D01*
X110037931Y-90893600D01*
X109916178Y-90917818D01*
X109801488Y-90965324D01*
X109698271Y-91034292D01*
X109610492Y-91122071D01*
X109541524Y-91225288D01*
X109494018Y-91339978D01*
X109469800Y-91461731D01*
X109469800Y-91585869D01*
X109494018Y-91707622D01*
X109541524Y-91822312D01*
X109593434Y-91900000D01*
X109541524Y-91977688D01*
X109494018Y-92092378D01*
X109469800Y-92214131D01*
X109469800Y-92329631D01*
X109383822Y-92294018D01*
X109262069Y-92269800D01*
X109180456Y-92269800D01*
X109131800Y-92221144D01*
X109131800Y-91078856D01*
X109678857Y-90531800D01*
X113378790Y-90531800D01*
X113400000Y-90533889D01*
X113421210Y-90531800D01*
X113484648Y-90525552D01*
X113566042Y-90500861D01*
X113641056Y-90460766D01*
X113706806Y-90406806D01*
X113720335Y-90390321D01*
X115978857Y-88131800D01*
X131997984Y-88131800D01*
X131934170Y-88184171D01*
G04 #@! TA.AperFunction,Conductor*
D26*
G36*
X131934170Y-88184171D02*
G01*
X131920252Y-88201130D01*
X131856382Y-88265000D01*
X116842912Y-88265000D01*
X116821092Y-88262851D01*
X116799272Y-88265000D01*
X116799262Y-88265000D01*
X116733955Y-88271432D01*
X116665713Y-88292133D01*
X116650166Y-88296849D01*
X116572946Y-88338124D01*
X116522219Y-88379755D01*
X116522216Y-88379758D01*
X116505263Y-88393671D01*
X116491350Y-88410624D01*
X113636975Y-91265000D01*
X110674925Y-91265000D01*
X110658476Y-91225288D01*
X110589508Y-91122071D01*
X110501729Y-91034292D01*
X110398512Y-90965324D01*
X110283822Y-90917818D01*
X110162069Y-90893600D01*
X110037931Y-90893600D01*
X109916178Y-90917818D01*
X109801488Y-90965324D01*
X109698271Y-91034292D01*
X109610492Y-91122071D01*
X109541524Y-91225288D01*
X109494018Y-91339978D01*
X109469800Y-91461731D01*
X109469800Y-91585869D01*
X109494018Y-91707622D01*
X109541524Y-91822312D01*
X109593434Y-91900000D01*
X109541524Y-91977688D01*
X109494018Y-92092378D01*
X109469800Y-92214131D01*
X109469800Y-92329631D01*
X109383822Y-92294018D01*
X109262069Y-92269800D01*
X109180456Y-92269800D01*
X109131800Y-92221144D01*
X109131800Y-91078856D01*
X109678857Y-90531800D01*
X113378790Y-90531800D01*
X113400000Y-90533889D01*
X113421210Y-90531800D01*
X113484648Y-90525552D01*
X113566042Y-90500861D01*
X113641056Y-90460766D01*
X113706806Y-90406806D01*
X113720335Y-90390321D01*
X115978857Y-88131800D01*
X131997984Y-88131800D01*
X131934170Y-88184171D01*
G37*
G04 #@! TD.AperFunction*
D25*
X107604867Y-85936139D02*
X107616776Y-85971768D01*
X107630757Y-85996246D01*
X107664417Y-86066143D01*
X107674837Y-86092333D01*
X107695247Y-86123826D01*
X107714782Y-86155906D01*
X107733860Y-86176660D01*
X107766617Y-86217737D01*
X107768099Y-86220510D01*
X107793874Y-86251917D01*
X107805562Y-86266573D01*
X107807744Y-86268817D01*
X107809730Y-86271237D01*
X107822990Y-86284497D01*
X107851309Y-86313622D01*
X107853897Y-86315404D01*
X107894795Y-86356303D01*
X107888650Y-86358167D01*
X107793645Y-86379851D01*
X107765794Y-86384182D01*
X107730526Y-86397082D01*
X107694925Y-86408981D01*
X107670454Y-86422957D01*
X107582662Y-86465235D01*
X107556469Y-86475657D01*
X107524950Y-86496084D01*
X107492897Y-86515603D01*
X107472152Y-86534672D01*
X107415540Y-86579818D01*
X107412772Y-86581298D01*
X107381407Y-86607039D01*
X107366708Y-86618761D01*
X107364458Y-86620948D01*
X107362045Y-86622929D01*
X107348812Y-86636162D01*
X107319659Y-86664508D01*
X107317876Y-86667096D01*
X106688864Y-87296107D01*
X106683822Y-87294018D01*
X106562069Y-87269800D01*
X106437931Y-87269800D01*
X106316178Y-87294018D01*
X106201488Y-87341524D01*
X106098271Y-87410492D01*
X106010492Y-87498271D01*
X105941524Y-87601488D01*
X105935000Y-87617238D01*
X105935000Y-87463025D01*
X106870944Y-86527082D01*
X106949834Y-86503151D01*
X107027053Y-86461876D01*
X107094737Y-86406329D01*
X107108655Y-86389370D01*
X107593357Y-85904668D01*
X107604867Y-85936139D01*
G04 #@! TA.AperFunction,Conductor*
D26*
G36*
X107604867Y-85936139D02*
G01*
X107616776Y-85971768D01*
X107630757Y-85996246D01*
X107664417Y-86066143D01*
X107674837Y-86092333D01*
X107695247Y-86123826D01*
X107714782Y-86155906D01*
X107733860Y-86176660D01*
X107766617Y-86217737D01*
X107768099Y-86220510D01*
X107793874Y-86251917D01*
X107805562Y-86266573D01*
X107807744Y-86268817D01*
X107809730Y-86271237D01*
X107822990Y-86284497D01*
X107851309Y-86313622D01*
X107853897Y-86315404D01*
X107894795Y-86356303D01*
X107888650Y-86358167D01*
X107793645Y-86379851D01*
X107765794Y-86384182D01*
X107730526Y-86397082D01*
X107694925Y-86408981D01*
X107670454Y-86422957D01*
X107582662Y-86465235D01*
X107556469Y-86475657D01*
X107524950Y-86496084D01*
X107492897Y-86515603D01*
X107472152Y-86534672D01*
X107415540Y-86579818D01*
X107412772Y-86581298D01*
X107381407Y-86607039D01*
X107366708Y-86618761D01*
X107364458Y-86620948D01*
X107362045Y-86622929D01*
X107348812Y-86636162D01*
X107319659Y-86664508D01*
X107317876Y-86667096D01*
X106688864Y-87296107D01*
X106683822Y-87294018D01*
X106562069Y-87269800D01*
X106437931Y-87269800D01*
X106316178Y-87294018D01*
X106201488Y-87341524D01*
X106098271Y-87410492D01*
X106010492Y-87498271D01*
X105941524Y-87601488D01*
X105935000Y-87617238D01*
X105935000Y-87463025D01*
X106870944Y-86527082D01*
X106949834Y-86503151D01*
X107027053Y-86461876D01*
X107094737Y-86406329D01*
X107108655Y-86389370D01*
X107593357Y-85904668D01*
X107604867Y-85936139D01*
G37*
G04 #@! TD.AperFunction*
D25*
X112768203Y-80500000D02*
X112774578Y-80564730D01*
X112793460Y-80626973D01*
X112805501Y-80649500D01*
X112805501Y-80728172D01*
X112803351Y-80750001D01*
X112811933Y-80837138D01*
X112837349Y-80920926D01*
X112865000Y-80972658D01*
X112865001Y-81119968D01*
X109696311Y-84288660D01*
X109693722Y-84290443D01*
X109665403Y-84319568D01*
X109652143Y-84332828D01*
X109650157Y-84335248D01*
X109647975Y-84337492D01*
X109636284Y-84352153D01*
X109610512Y-84383555D01*
X109609030Y-84386327D01*
X109563887Y-84442935D01*
X109544817Y-84463681D01*
X109525297Y-84495738D01*
X109504871Y-84527255D01*
X109494450Y-84553445D01*
X109452170Y-84641241D01*
X109438194Y-84665711D01*
X109426289Y-84701327D01*
X109413397Y-84736578D01*
X109409068Y-84764417D01*
X109387382Y-84859430D01*
X109385516Y-84865580D01*
X109344620Y-84824684D01*
X109342837Y-84822095D01*
X109313712Y-84793776D01*
X109300452Y-84780516D01*
X109298032Y-84778530D01*
X109295788Y-84776348D01*
X109281132Y-84764660D01*
X109249725Y-84738885D01*
X109246952Y-84737403D01*
X109205875Y-84704646D01*
X109185121Y-84685568D01*
X109153041Y-84666033D01*
X109121548Y-84645623D01*
X109095358Y-84635203D01*
X109025461Y-84601543D01*
X109000983Y-84587562D01*
X108965354Y-84575653D01*
X108930111Y-84562763D01*
X108902268Y-84558433D01*
X108826628Y-84541169D01*
X108799649Y-84532985D01*
X108789113Y-84531947D01*
X108791240Y-84518266D01*
X108812925Y-84423258D01*
X108821106Y-84396288D01*
X108824787Y-84358910D01*
X108829512Y-84321677D01*
X108827538Y-84293573D01*
X108827538Y-84196108D01*
X108829512Y-84168007D01*
X108824788Y-84130777D01*
X108823804Y-84120793D01*
X108833785Y-84121776D01*
X108871018Y-84126501D01*
X108899122Y-84124527D01*
X108996585Y-84124527D01*
X109024689Y-84126501D01*
X109061916Y-84121777D01*
X109099301Y-84118095D01*
X109126275Y-84109912D01*
X109221280Y-84088229D01*
X109249122Y-84083899D01*
X109284379Y-84071004D01*
X109319989Y-84059102D01*
X109344461Y-84045126D01*
X109432255Y-84002846D01*
X109458445Y-83992425D01*
X109489962Y-83971999D01*
X109522019Y-83952479D01*
X109542765Y-83933409D01*
X109599373Y-83888266D01*
X109602145Y-83886784D01*
X109633547Y-83861012D01*
X109648208Y-83849321D01*
X109650452Y-83847139D01*
X109652872Y-83845153D01*
X109666129Y-83831896D01*
X109695257Y-83803574D01*
X109697040Y-83800984D01*
X109789366Y-83708658D01*
X109806329Y-83694737D01*
X109861876Y-83627053D01*
X109903151Y-83549834D01*
X109928568Y-83466045D01*
X109935000Y-83400738D01*
X109935000Y-83400729D01*
X109937149Y-83378909D01*
X109935000Y-83357089D01*
X109935000Y-82735000D01*
X110657088Y-82735000D01*
X110678908Y-82737149D01*
X110700728Y-82735000D01*
X110700738Y-82735000D01*
X110766045Y-82728568D01*
X110849834Y-82703151D01*
X110927053Y-82661876D01*
X110994737Y-82606329D01*
X111008655Y-82589370D01*
X112489376Y-81108650D01*
X112506329Y-81094737D01*
X112520242Y-81077784D01*
X112520245Y-81077781D01*
X112561876Y-81027054D01*
X112603151Y-80949834D01*
X112608345Y-80932711D01*
X112628568Y-80866045D01*
X112635000Y-80800738D01*
X112635000Y-80800728D01*
X112636298Y-80787552D01*
X112676200Y-80747650D01*
X112676200Y-80683736D01*
X112706540Y-80626973D01*
X112725422Y-80564730D01*
X112731797Y-80500000D01*
X112731797Y-79802200D01*
X112768203Y-79802200D01*
X112768203Y-80500000D01*
G04 #@! TA.AperFunction,Conductor*
D26*
G36*
X112768203Y-80500000D02*
G01*
X112774578Y-80564730D01*
X112793460Y-80626973D01*
X112805501Y-80649500D01*
X112805501Y-80728172D01*
X112803351Y-80750001D01*
X112811933Y-80837138D01*
X112837349Y-80920926D01*
X112865000Y-80972658D01*
X112865001Y-81119968D01*
X109696311Y-84288660D01*
X109693722Y-84290443D01*
X109665403Y-84319568D01*
X109652143Y-84332828D01*
X109650157Y-84335248D01*
X109647975Y-84337492D01*
X109636284Y-84352153D01*
X109610512Y-84383555D01*
X109609030Y-84386327D01*
X109563887Y-84442935D01*
X109544817Y-84463681D01*
X109525297Y-84495738D01*
X109504871Y-84527255D01*
X109494450Y-84553445D01*
X109452170Y-84641241D01*
X109438194Y-84665711D01*
X109426289Y-84701327D01*
X109413397Y-84736578D01*
X109409068Y-84764417D01*
X109387382Y-84859430D01*
X109385516Y-84865580D01*
X109344620Y-84824684D01*
X109342837Y-84822095D01*
X109313712Y-84793776D01*
X109300452Y-84780516D01*
X109298032Y-84778530D01*
X109295788Y-84776348D01*
X109281132Y-84764660D01*
X109249725Y-84738885D01*
X109246952Y-84737403D01*
X109205875Y-84704646D01*
X109185121Y-84685568D01*
X109153041Y-84666033D01*
X109121548Y-84645623D01*
X109095358Y-84635203D01*
X109025461Y-84601543D01*
X109000983Y-84587562D01*
X108965354Y-84575653D01*
X108930111Y-84562763D01*
X108902268Y-84558433D01*
X108826628Y-84541169D01*
X108799649Y-84532985D01*
X108789113Y-84531947D01*
X108791240Y-84518266D01*
X108812925Y-84423258D01*
X108821106Y-84396288D01*
X108824787Y-84358910D01*
X108829512Y-84321677D01*
X108827538Y-84293573D01*
X108827538Y-84196108D01*
X108829512Y-84168007D01*
X108824788Y-84130777D01*
X108823804Y-84120793D01*
X108833785Y-84121776D01*
X108871018Y-84126501D01*
X108899122Y-84124527D01*
X108996585Y-84124527D01*
X109024689Y-84126501D01*
X109061916Y-84121777D01*
X109099301Y-84118095D01*
X109126275Y-84109912D01*
X109221280Y-84088229D01*
X109249122Y-84083899D01*
X109284379Y-84071004D01*
X109319989Y-84059102D01*
X109344461Y-84045126D01*
X109432255Y-84002846D01*
X109458445Y-83992425D01*
X109489962Y-83971999D01*
X109522019Y-83952479D01*
X109542765Y-83933409D01*
X109599373Y-83888266D01*
X109602145Y-83886784D01*
X109633547Y-83861012D01*
X109648208Y-83849321D01*
X109650452Y-83847139D01*
X109652872Y-83845153D01*
X109666129Y-83831896D01*
X109695257Y-83803574D01*
X109697040Y-83800984D01*
X109789366Y-83708658D01*
X109806329Y-83694737D01*
X109861876Y-83627053D01*
X109903151Y-83549834D01*
X109928568Y-83466045D01*
X109935000Y-83400738D01*
X109935000Y-83400729D01*
X109937149Y-83378909D01*
X109935000Y-83357089D01*
X109935000Y-82735000D01*
X110657088Y-82735000D01*
X110678908Y-82737149D01*
X110700728Y-82735000D01*
X110700738Y-82735000D01*
X110766045Y-82728568D01*
X110849834Y-82703151D01*
X110927053Y-82661876D01*
X110994737Y-82606329D01*
X111008655Y-82589370D01*
X112489376Y-81108650D01*
X112506329Y-81094737D01*
X112520242Y-81077784D01*
X112520245Y-81077781D01*
X112561876Y-81027054D01*
X112603151Y-80949834D01*
X112608345Y-80932711D01*
X112628568Y-80866045D01*
X112635000Y-80800738D01*
X112635000Y-80800728D01*
X112636298Y-80787552D01*
X112676200Y-80747650D01*
X112676200Y-80683736D01*
X112706540Y-80626973D01*
X112725422Y-80564730D01*
X112731797Y-80500000D01*
X112731797Y-79802200D01*
X112768203Y-79802200D01*
X112768203Y-80500000D01*
G37*
G04 #@! TD.AperFunction*
D25*
X107297198Y-82806154D02*
X107267435Y-82843475D01*
X107248365Y-82864221D01*
X107228845Y-82896278D01*
X107208419Y-82927795D01*
X107197998Y-82953985D01*
X107155718Y-83041779D01*
X107141743Y-83066249D01*
X107129841Y-83101857D01*
X107116945Y-83137118D01*
X107112615Y-83164961D01*
X107090931Y-83259964D01*
X107082748Y-83286940D01*
X107080356Y-83311222D01*
X107065119Y-83303619D01*
X107037929Y-83296197D01*
X106945957Y-83264014D01*
X106920069Y-83252863D01*
X106883356Y-83245024D01*
X106846875Y-83236157D01*
X106818717Y-83234972D01*
X106746769Y-83226866D01*
X106743761Y-83225953D01*
X106703301Y-83221968D01*
X106684696Y-83219872D01*
X106681573Y-83219828D01*
X106678454Y-83219521D01*
X106659662Y-83219521D01*
X106619081Y-83218952D01*
X106615995Y-83219521D01*
X106446821Y-83219521D01*
X106449855Y-83213845D01*
X106501692Y-83131345D01*
X106518322Y-83108591D01*
X106534132Y-83074548D01*
X106550902Y-83040940D01*
X106558325Y-83013744D01*
X106590508Y-82921777D01*
X106601658Y-82895890D01*
X106605601Y-82877425D01*
X106650000Y-82881798D01*
X107214650Y-82880200D01*
X107297198Y-82797652D01*
X107297198Y-82806154D01*
G04 #@! TA.AperFunction,Conductor*
D26*
G36*
X107297198Y-82806154D02*
G01*
X107267435Y-82843475D01*
X107248365Y-82864221D01*
X107228845Y-82896278D01*
X107208419Y-82927795D01*
X107197998Y-82953985D01*
X107155718Y-83041779D01*
X107141743Y-83066249D01*
X107129841Y-83101857D01*
X107116945Y-83137118D01*
X107112615Y-83164961D01*
X107090931Y-83259964D01*
X107082748Y-83286940D01*
X107080356Y-83311222D01*
X107065119Y-83303619D01*
X107037929Y-83296197D01*
X106945957Y-83264014D01*
X106920069Y-83252863D01*
X106883356Y-83245024D01*
X106846875Y-83236157D01*
X106818717Y-83234972D01*
X106746769Y-83226866D01*
X106743761Y-83225953D01*
X106703301Y-83221968D01*
X106684696Y-83219872D01*
X106681573Y-83219828D01*
X106678454Y-83219521D01*
X106659662Y-83219521D01*
X106619081Y-83218952D01*
X106615995Y-83219521D01*
X106446821Y-83219521D01*
X106449855Y-83213845D01*
X106501692Y-83131345D01*
X106518322Y-83108591D01*
X106534132Y-83074548D01*
X106550902Y-83040940D01*
X106558325Y-83013744D01*
X106590508Y-82921777D01*
X106601658Y-82895890D01*
X106605601Y-82877425D01*
X106650000Y-82881798D01*
X107214650Y-82880200D01*
X107297198Y-82797652D01*
X107297198Y-82806154D01*
G37*
G04 #@! TD.AperFunction*
D25*
X105365000Y-82381321D02*
X105234006Y-82381321D01*
X105230920Y-82380752D01*
X105190337Y-82381321D01*
X105171546Y-82381321D01*
X105168427Y-82381628D01*
X105165303Y-82381672D01*
X105146691Y-82383769D01*
X105106239Y-82387753D01*
X105103231Y-82388665D01*
X105031283Y-82396771D01*
X105003124Y-82397957D01*
X104966640Y-82406825D01*
X104929931Y-82414663D01*
X104904044Y-82425813D01*
X104812077Y-82457996D01*
X104784881Y-82465419D01*
X104751273Y-82482189D01*
X104717230Y-82497999D01*
X104694476Y-82514629D01*
X104611978Y-82566465D01*
X104587114Y-82579755D01*
X104558088Y-82603576D01*
X104541937Y-82616089D01*
X104541937Y-81956088D01*
X105365001Y-81133024D01*
X105365000Y-82381321D01*
G04 #@! TA.AperFunction,Conductor*
D26*
G36*
X105365000Y-82381321D02*
G01*
X105234006Y-82381321D01*
X105230920Y-82380752D01*
X105190337Y-82381321D01*
X105171546Y-82381321D01*
X105168427Y-82381628D01*
X105165303Y-82381672D01*
X105146691Y-82383769D01*
X105106239Y-82387753D01*
X105103231Y-82388665D01*
X105031283Y-82396771D01*
X105003124Y-82397957D01*
X104966640Y-82406825D01*
X104929931Y-82414663D01*
X104904044Y-82425813D01*
X104812077Y-82457996D01*
X104784881Y-82465419D01*
X104751273Y-82482189D01*
X104717230Y-82497999D01*
X104694476Y-82514629D01*
X104611978Y-82566465D01*
X104587114Y-82579755D01*
X104558088Y-82603576D01*
X104541937Y-82616089D01*
X104541937Y-81956088D01*
X105365001Y-81133024D01*
X105365000Y-82381321D01*
G37*
G04 #@! TD.AperFunction*
D25*
X108065000Y-80263026D02*
X108065001Y-80857079D01*
X108062851Y-80878908D01*
X108066786Y-80918862D01*
X107735350Y-80919800D01*
X107652800Y-81002350D01*
X107652800Y-81722200D01*
X108547650Y-81722200D01*
X108630200Y-81639650D01*
X108630247Y-81628272D01*
X108691350Y-81689376D01*
X108705263Y-81706329D01*
X108722216Y-81720242D01*
X108722218Y-81720244D01*
X108744555Y-81738575D01*
X108772947Y-81761876D01*
X108850166Y-81803151D01*
X108887499Y-81814476D01*
X108810625Y-81891350D01*
X108793672Y-81905263D01*
X108779759Y-81922216D01*
X108779755Y-81922220D01*
X108738124Y-81972947D01*
X108696849Y-82050167D01*
X108671433Y-82133955D01*
X108662851Y-82221092D01*
X108665001Y-82242921D01*
X108665000Y-82513840D01*
X108651989Y-82505408D01*
X108631582Y-82497288D01*
X108630200Y-82160350D01*
X108547650Y-82077800D01*
X107652800Y-82077800D01*
X107652800Y-82097800D01*
X107297200Y-82097800D01*
X107297200Y-82077800D01*
X107277200Y-82077800D01*
X107277200Y-81722200D01*
X107297200Y-81722200D01*
X107297200Y-81002350D01*
X107214650Y-80919800D01*
X106978893Y-80919133D01*
X107763026Y-80135000D01*
X107936975Y-80135000D01*
X108065000Y-80263026D01*
G04 #@! TA.AperFunction,Conductor*
D26*
G36*
X108065000Y-80263026D02*
G01*
X108065001Y-80857079D01*
X108062851Y-80878908D01*
X108066786Y-80918862D01*
X107735350Y-80919800D01*
X107652800Y-81002350D01*
X107652800Y-81722200D01*
X108547650Y-81722200D01*
X108630200Y-81639650D01*
X108630247Y-81628272D01*
X108691350Y-81689376D01*
X108705263Y-81706329D01*
X108722216Y-81720242D01*
X108722218Y-81720244D01*
X108744555Y-81738575D01*
X108772947Y-81761876D01*
X108850166Y-81803151D01*
X108887499Y-81814476D01*
X108810625Y-81891350D01*
X108793672Y-81905263D01*
X108779759Y-81922216D01*
X108779755Y-81922220D01*
X108738124Y-81972947D01*
X108696849Y-82050167D01*
X108671433Y-82133955D01*
X108662851Y-82221092D01*
X108665001Y-82242921D01*
X108665000Y-82513840D01*
X108651989Y-82505408D01*
X108631582Y-82497288D01*
X108630200Y-82160350D01*
X108547650Y-82077800D01*
X107652800Y-82077800D01*
X107652800Y-82097800D01*
X107297200Y-82097800D01*
X107297200Y-82077800D01*
X107277200Y-82077800D01*
X107277200Y-81722200D01*
X107297200Y-81722200D01*
X107297200Y-81002350D01*
X107214650Y-80919800D01*
X106978893Y-80919133D01*
X107763026Y-80135000D01*
X107936975Y-80135000D01*
X108065000Y-80263026D01*
G37*
G04 #@! TD.AperFunction*
D25*
X109768203Y-80197800D02*
X109676200Y-80197800D01*
X109676200Y-80177800D01*
X109600000Y-80177800D01*
X109600000Y-79822200D01*
X109676200Y-79822200D01*
X109676200Y-79802200D01*
X109768203Y-79802200D01*
X109768203Y-80197800D01*
G04 #@! TA.AperFunction,Conductor*
D26*
G36*
X109768203Y-80197800D02*
G01*
X109676200Y-80197800D01*
X109676200Y-80177800D01*
X109600000Y-80177800D01*
X109600000Y-79822200D01*
X109676200Y-79822200D01*
X109676200Y-79802200D01*
X109768203Y-79802200D01*
X109768203Y-80197800D01*
G37*
G04 #@! TD.AperFunction*
D25*
X111268203Y-80197800D02*
X111231797Y-80197800D01*
X111231797Y-79802200D01*
X111268203Y-79802200D01*
X111268203Y-80197800D01*
G04 #@! TA.AperFunction,Conductor*
D26*
G36*
X111268203Y-80197800D02*
G01*
X111231797Y-80197800D01*
X111231797Y-79802200D01*
X111268203Y-79802200D01*
X111268203Y-80197800D01*
G37*
G04 #@! TD.AperFunction*
D25*
X109364266Y-79266506D02*
X109323243Y-79316982D01*
X109292856Y-79374491D01*
X109274272Y-79436824D01*
X109268206Y-79501584D01*
X109269448Y-79687113D01*
X109261876Y-79672946D01*
X109220245Y-79622219D01*
X109220242Y-79622216D01*
X109206329Y-79605263D01*
X109189377Y-79591351D01*
X108833025Y-79235000D01*
X109402285Y-79235000D01*
X109364266Y-79266506D01*
G04 #@! TA.AperFunction,Conductor*
D26*
G36*
X109364266Y-79266506D02*
G01*
X109323243Y-79316982D01*
X109292856Y-79374491D01*
X109274272Y-79436824D01*
X109268206Y-79501584D01*
X109269448Y-79687113D01*
X109261876Y-79672946D01*
X109220245Y-79622219D01*
X109220242Y-79622216D01*
X109206329Y-79605263D01*
X109189377Y-79591351D01*
X108833025Y-79235000D01*
X109402285Y-79235000D01*
X109364266Y-79266506D01*
G37*
G04 #@! TD.AperFunction*
M02*
